<svg xmlns="http://www.w3.org/2000/svg" width="800" height="800" viewBox="0 0 800 800"><path fill="none" stroke="#7e090901" stroke-width=".3" d="M0 800h800V0H0v800m550-477c8.67-9.27 14.04 4.44 19.77 11.23s11.78 15.01 17.48 22.52c5.71 7.5 11.56 14.48 17.5 22.5 5.95 8.01 10.83 13.88 17.5 22.5s-6.64 14.82-13.5 21c-6.85 6.18-15.35 9.21-22.45 16.55-7.1 7.35-16.91 12.2-22.05 1.45-5.15-10.74-12.05-13.44-17.5-22.5s-11.63-14.31-17.5-22.5c-5.87-8.18-11.36-14.73-17.25-22.75-4.95 6.15 1.68 8.93-5.77 15.23s-16.17 12.92-23.98 19.02c-7.81 6.09-17.18 13.11-25 19-7.81 5.9-6.75 6-15.92 4.42s-6.24.92-7.66 9-4.84 9.57 6.35 8.35c11.2-1.21 19.57 9.66 25.23 17.73 5.67 8.06 13.51 16.34 18.67 24.33s6.77 8.33 4.3 16.14-.23 8.47 1.78 15.78c-5.39 3.62-10.23 5.93-15.23 10.77s-9.91 8.74-14.54 3-14.72 1.61-19.46-4.54c-4.74-6.16-7.2-9.02-11.54-14.46s-6.8-9.65-11.48-14.52-6.34-11.07-9.53-16.47c-3.18-5.41 3.02-18.38.52-21.52s-18.23-2.62-19.99 1.49c-1.75 4.12-1.36 15.36-7.5 18.5s-8.37 8.54-14 12c-5.64 3.46-9.47 7.22-15 11-5.52 3.79-8.93 7.33-14.95 11.05-6.01 3.73-16.52-.68-22.3 2.7 3.27 7.39 10.16 13.52 14.75 20.25 4.6 6.72 11.01 13.94 15.5 20.5 4.5 6.55 11.92 14.07 15.52 20.48s16.45 14.35 11.97 21.51c-4.48 7.17-14.13 9.16-19.99 16.01-5.85 6.86-14.02 7.64-20.5 15.5s-15.22 6.03-19.55-2.95c-4.33-8.97-11.36-12.3-15.95-20.05-4.58-7.75-10.79-13.48-15.5-20.5s-11.5-13.76-15.55-20.45c-4.05-6.68-15.82-14.32-10.95-21.55 4.88-7.22 17.79-7.88 18.25-17.75-10.12 3.5-5.53-13.86-13.25-9.24-7.72 4.61-8.87 7.55-16 11.99-7.13 4.45-10.99-6.87-15.05-11.45s-8.41-10.56-12.45-15.55c-4.04-4.98-7.8-10.9-12-16-4.21-5.09-8.6-11.18-12.55-16.45-3.96-5.27-8.49-10.41-12.45-15.55-3.97-5.14-10.62-11.45-4.5-16 6.11-4.55 10.69-8.3 16.48-12.52s10.03-8.16 15.52-12.48S218.39 411.19 223 406c23.39 23.75 42.32 52.66 63 79 6.76-3.74 3.35-16.96 10.25-21.75 6.91-4.78 11.48-9.12 18-14s12.02-8.44 18.45-13.55c6.43-5.12 13.28-10.97 22.32-7.72 9.05 3.24 13.03-14.46 10.2-20.2s-19.04-.15-24.45-5.55-10.02-11.49-14.54-17.46S315.52 371.44 314 365s8.88-23.53-.25-16.25c-9.13 7.29-14.53.78-10.82-8.82 3.7-9.61 13.84-8.88 6.82-18.68s9.42-11.26 11.25-.25c7.93-1.91 14.5-11.07 24-8s-.03 13.88-5 17c6.11 2.17 16.09-2.66 21.69 2.31 5.61 4.96 8.53 8.41 12.56 14.44 4.04 6.02 7.73 8.35 12 15 4.27 6.66 3.41 13.06-.02 21.48s7.11 8.62 14.84 9.7c7.74 1.08 5.37-10.23 8.86-16 3.48-5.78 10.67-7.25 14.82-12.18C428.89 359.81 437 357.8 438 351c-2.54-.96-3.89-3.8-2-6 6.15 8.22 12.93 2.03 19.08-3.92 6.16-5.94 16.39-7.73 24.92-8.08-3.14-6.92-9.04-12.25-13.25-18.75-4.21-6.49-9.86-12.19-14.5-18.5-4.65-6.3-9.55-12.49-14.17-18.83-4.62-6.35-10.03-12.09-14.33-18.67s7.31-11.91 12.5-16c5.19-4.1 13.04-10.71 18.83-14.17s12.27-13.22 19-14 11.78 12.22 16.17 16.67c4.4 4.44 9.7 12.62 14 18s10.35 12.86 14.5 18.5 10.75 13.28 14.17 18.83 14.89 13.97 8.83 19.67 2.9 10.91 7.5 17Z"/><path fill="none" stroke="#19456c" stroke-width=".3" d="M549.25 322.75c-4.6-6.09-13.56-11.3-7.5-17s-5.41-14.12-8.83-19.67-10.02-13.19-14.17-18.83-10.2-13.12-14.5-18.5-9.6-13.56-14-18c-4.39-4.45-9.44-17.45-16.17-16.67s-13.21 10.54-19 14-13.64 10.07-18.83 14.17c-5.19 4.09-16.8 9.42-12.5 16s9.71 12.32 14.33 18.67c4.62 6.34 9.52 12.53 14.17 18.83 4.64 6.31 10.29 12.01 14.5 18.5 4.21 6.5 10.11 11.83 13.25 18.75-8.53.35-18.76 2.14-24.92 8.08-6.15 5.95-12.93 12.14-19.08 3.92-1.89 2.2-.54 5.04 2 6-1 6.8-9.11 8.81-13.25 13.75-4.15 4.93-11.34 6.4-14.82 12.18-3.49 5.77-1.12 17.08-8.86 16-7.73-1.08-18.27-1.28-14.84-9.7s4.29-14.82.02-21.48c-4.27-6.65-7.96-8.98-12-15-4.03-6.03-6.95-9.48-12.56-14.44-5.6-4.97-15.58-.14-21.69-2.31 4.97-3.12 14.5-13.93 5-17s-16.07 6.09-24 8c-1.83-11.01-18.27-9.55-11.25.25s-3.12 9.07-6.82 18.68c-3.71 9.6 1.69 16.11 10.82 8.82 9.13-7.28-1.27 9.81.25 16.25s7.71 13.8 12.23 19.77 9.13 12.06 14.54 17.46 21.62-.19 24.45 5.55-1.15 23.44-10.2 20.2c-9.04-3.25-15.89 2.6-22.32 7.72-6.43 5.11-11.93 8.67-18.45 13.55s-11.09 9.22-18 14c-6.9 4.79-3.49 18.01-10.25 21.75-20.68-26.34-39.61-55.25-63-79-4.61 5.19-10.76 8.43-16.25 12.75s-9.73 8.26-15.52 12.48-10.37 7.97-16.48 12.52c-6.12 4.55.53 10.86 4.5 16 3.96 5.14 8.49 10.28 12.45 15.55 3.95 5.27 8.34 11.36 12.55 16.45 4.2 5.1 7.96 11.02 12 16 4.04 4.99 8.39 10.97 12.45 15.55s7.92 15.9 15.05 11.45c7.13-4.44 8.28-7.38 16-11.99 7.72-4.62 3.13 12.74 13.25 9.24-.46 9.87-13.37 10.53-18.25 17.75-4.87 7.23 6.9 14.87 10.95 21.55 4.05 6.69 10.84 13.43 15.55 20.45s10.92 12.75 15.5 20.5c4.59 7.75 11.62 11.08 15.95 20.05 4.33 8.98 13.07 10.81 19.55 2.95s14.65-8.64 20.5-15.5c5.86-6.85 15.51-8.84 19.99-16.01 4.48-7.16-8.37-15.1-11.97-21.51s-11.02-13.93-15.52-20.48c-4.49-6.56-10.9-13.78-15.5-20.5-4.59-6.73-11.48-12.86-14.75-20.25 5.78-3.38 16.29 1.03 22.3-2.7 6.02-3.72 9.43-7.26 14.95-11.05 5.53-3.78 9.36-7.54 15-11 5.63-3.46 7.86-8.86 14-12s5.75-14.38 7.5-18.5c1.76-4.11 17.49-4.63 19.99-1.49s-3.7 16.11-.52 21.52c3.19 5.4 4.85 11.6 9.53 16.47s7.14 9.08 11.48 14.52 6.8 8.3 11.54 14.46c4.74 6.15 14.83-1.2 19.46 4.54s9.54 1.84 14.54-3 9.84-7.15 15.23-10.77c-2.01-7.31-4.25-7.97-1.78-15.78s.86-8.15-4.3-16.14-13-16.27-18.67-24.33c-5.66-8.07-14.03-18.94-25.23-17.73-11.19 1.22-7.77-.27-6.35-8.35s-1.51-10.58 7.66-9 8.11 1.48 15.92-4.42c7.82-5.89 17.19-12.91 25-19 7.81-6.1 16.53-12.72 23.98-19.02s.82-9.08 5.77-15.23c5.89 8.02 11.38 14.57 17.25 22.75 5.87 8.19 12.05 13.44 17.5 22.5s12.35 11.76 17.5 22.5c5.14 10.75 14.95 5.9 22.05-1.45 7.1-7.34 15.6-10.37 22.45-16.55 6.86-6.18 20.17-12.38 13.5-21s-11.55-14.49-17.5-22.5c-5.94-8.02-11.79-15-17.5-22.5-5.7-7.51-11.75-15.73-17.48-22.52S558.67 313.73 550 323m-75-106c2.97 6.22 11.99 11.28 11 18 7.66 1.91 9.97 11.93 15.11 16.89 5.13 4.97 9.8 11.96 13.02 17.03 3.22 5.06 14.02 12.25 10.87 18.08 6.76-.48 9.71 10.68 15 15-1.97 1.72-4.95 2.37-6 5-5.02-5.35-12.33-5.61-19-4-2.5 5.15-10.93 12.66-17 12 .69 6.86-13.76 8.84-9 19-23.43-24.47-41.9-53.36-63-80 4.94-3.17 10.33-6.32 14-11 5.74 3.72 11.43 11.22 13 18-4.05 1.78-8.97 5.32-11 9 4.77-2.67 9.15-6.65 13-10 3.3 5.4 7.15 10.9 12 15-1.16 5.53-8.77 6.01-10 11 3.88-2.74 8.31-5.24 11-9 3.76 6.49 10.48 12.98 14.23 18.77 3.76 5.78 13.65 12.49 8.77 18.23 2.87-1.56 4.07-1.48 7 0-3.71-2.61.97-4.05 1-7-6.45 6.34-11.43-8.13-15.77-12.23S474.57 282.15 469 277c2.83-3.91 9.85-4.76 11-10-3.99 2.82-7.44 6.22-12 8-3.51-6.55-16.32-13.77-8-20-2.28.55-3.59 2.99-6 3-2.55-6.11-8.77-10.7-11-17 11.08-7.4 21.15-16.26 32-24m55 91c10.91 5.51 26.94 26.51 14 36-1.15-13.26-10.73-24.4-21-32-1.99-1.34-4.99-1.57-6-4 3.81-2.78 9.2-2.7 13 0m6 20c3.02 4.55 10.2 14.36 4.92 18.92-5.29 4.55-10.71 9.44-16.92 12.08.7-6.49-3.1-11.7-6-17-4.72-7.62-12.47-15.67-21-18 6.47-2.97 12.44-14.76 20.08-13.07 7.63 1.69 15.22 10.46 18.92 17.07m-217-4c-3.8 2.19-6.29-5.27-8-8 4.24-.23 5.13 5.56 8 8m13 6c-7.13 5.46-9.31 6.98-16.7 13.3-7.39 6.33-13.04 3.88-5.22-3.22 7.83-7.1 9.25-7.32 16.92-13.08 5.13-3.85 13.08-14.14 19-8-3.82 4.49-9.05 8.24-14 11m0-10c-6.99 7.4-15.81 13.43-24 19 6.69-7.91 15.43-14.02 24-19m225 3c2.23 6.46 12.08 11.04 10 18 5.69.19 15.45 12.38 13 18 4.42-1.09 11.92 7.11 13.75 12.25 1.84 5.13-11.82 11.27-14.75 13.75-2.65-5.01-8.17-8.48-10.25-13.75-2.09-5.27 10.48-6.6 10.25-12.25-4.34 3.06-8 7.41-13 9-4.09-5.66-9.62-10.54-12-17 4.21-2.18 9.08-4.92 12-9-5.52 1.61-13.87 13.68-17 3 5.14-4.01 3.28-12.8 1-18 2.84-.52 4.11-3.92 7-4m-40 21c2.19 3.58 9.35 13.38 4.69 17.69-4.65 4.32-6.58-11.13-8.69-14.69-4.42-7.44-11.92-16.17-21-17 6.86-11.79 21.06 6.64 25 14m-172 2c-8.86 6.92-17.4 14.89-27 21-2.37-6.93 1.99-14.05 7-19-6.84-.79-4.54-8.09 1-9 3.81-2.75 14.29-12 12-1 5.83-3.23 15.02-6.66 21-2-4.77 3.27-8.92 7.33-14 10m162 16c-.03.35-.77.74-1 1-2.39 2.66 4.23 15.72 0 20-2.93-7.21-6.69-18.07-12.75-25.25-6.06-7.17-11.26-14.95-19.25-19.75 7.91-2.8 15.23 4.09 21 9-.07-.27.99-.81 1-1-1.65-2.01-2.8-6.02-6-7 3.37-10.34 12.81-.95 16.25 4.75S518.18 358.32 510 364c-1.25-.3-1.71-1.83-3-2m-136 7c-.54.43-1.5 1.52-2 2-.25.24-.72.77-1 1-8.4 6.84-16.12 12.49-24.75 19.25S328.07 377.93 322 373c11.63-7.04 21.3-17.14 33-24 2.12-1.77 3.9-4.4 6-6-4.42.16-6.48 5.07-10 7-4.98 3.56-11.29 8.49-16.23 11.77S323.55 374.62 319 369c9.37-7.45 19-15.64 29-22 4.38-3.36 10.4-12.57 16-8-2.94 2.84 4.53 4.59 6.77 9.23S378.08 356.1 381 360c-1.26 4.25-6.37 7.11-10 9m127-1c3.2 5.62 5.93 11.86 5 19-15.59 9.63-29.1 23.89-45 33-1.81-6.27-4.19-12.55-8-18-4.16-6.45-9.61-12.32-13-19 15.48-10.59 31.7-21.83 45-35-15.6 11.01-30.77 24.42-47 35-3.49-5.01-10.04-6.82-14-11 14.41-9.97 24.36-19.92 39.25-29.75 14.88-9.83 31.82 12.97 37.75 25.75m50-21c.81 2.04 3.27 2.97 4 5-5.69 3.52-10.56 8.15-16 12-7.24-7.88 6.93-12.33 12-17m5 6c3.64 5.22 6.94 11.03 12 15-2.96 5.98-10.34 9.88-16 13-.28-5.21-11.74-10.75-10.92-16.08.81-5.32 12.32-7.82 14.92-11.92m-29 22c4.56-2.69 7.93-7.53 13-9 2.96 5.58 5.63 8.08 9.75 13.25s-8.13 8.29-8.75 12.75c4.27-2.65 8.07-5.88 12-9 3.09 5.4 5.92 8.04 9.75 13.25s-8.04 8.07-8.75 12.75c4.33-2.57 7.84-6.23 12-9 4.01 4.99 6.59 11.24 12 15-3.7 5.51-10.55 8.98-16 13-1.85-6.71-13.81-12-9-19-7 2.38-14.24-10.25-14-16-4.49 2.6-6.51-4.12-8.77-7.23s-7.96-7.2-4.23-10.77c-5.45 2.66-7.81-5.72-11-9 3.31-2.13 10.44 3.29 13.08-1.92s10.99-3.67 9.13 1.15-9.88 4.1-10.21 9.77m-154 4c-8.88 6.94-17.07 15.4-27 21-6.48-6.03 4.72-9.55 9.25-13.75 4.52-4.2 11.45-9.22 16.75-12.25 2.24-1.72 14.27-13.55 15.75-7.75S373.06 376.61 370 379m-22 22c-3.1-1.89 5.27-6.19 8.25-8.75 2.97-2.56 8.52-6.46 11.75-9.25 5.33-4.6 11.5-8.41 17-13 .37 17.55-20.21 35.41-37 31m214-3c-2.6-5.77-8.04-10.28-11-16 3.48-.22 12.88-12.4 15.7-10.64 2.81 1.76 11.37 12.09 10.94 15.34-.42 3.24-13.23 9.19-15.64 11.3m34-24c2.69 6.41 13.93 12.35 10 19 7.63-2.49 9.06 10.01 15 13-14.03 15.16-32.28 26.8-49 39-2.6-6.29-9.55-10.45-11-17 5.48-2.48 10.44-7.5 15-11 3.96 4.57 6.41 11.63 12 14-3.68-5.06-7.63-9.79-11-15 4.73-3.56 10.21-6.5 14-11 6.76 2.32 7.82 11.5 14 15-2.18-5.38-6.77-9.11-9.75-14.25-2.99-5.14 8.23-6.98 9.75-11.75-4.87 1.38-7.98 6.87-13 8-4.44-5.14-7.97-10.65-12-16 6.04-2.9 10.73-7.9 16-12m-146 31c3.43 5.48 12.89 14.8 2.3 20.3-10.58 5.5-13.03-3.86-17.3-12.3-5.07-10.03-14.08-19.79-25-23-.66-14.1 12.88-17.77 21.08-9.08 8.21 8.69 13.18 14.21 18.92 24.08m141-3c-2.13 6.23-10.3 7.98-14 13-5.76-4.45-9.87-10.85-13-17 5.69.88 9.86-10.68 15.08-9.92 5.23.77 6.34 12.72 11.92 13.92m-206-7c-5.95 3.95-6.3 6.11-12.75 10.25-6.45 4.13-6.63-5.68-.55-7.55 6.07-1.87 9.26-11.46 13.3-2.7m21 2c1.55-1.55 4.18-1.83 5-4 6.07 1.22 13.24 7.78 16.25 12.75 3.02 4.96 11.66 15.4 6 20.5-5.67 5.09-10.77-8-14.55-11.95-3.79-3.94-9.79-12.31-12.7-17.3m-18 10c-6.76 5.33-13.44 11.38-21 15-.12-8.33 6.39-14.8 13-19 5.49-4.04 12.62-9.58 20-6-3.04 4.41-8.09 6.56-12 10m32 31c-7.78 5.96-14.93 14.1-24 18-1.59-13.73-11.32-27.98-25-32 5.19-6.56 13.57-12.71 21-17 3.44-2.64 6.28-7.4 11-8 6.95 11.97 17.71 22.07 25 34-2.93 1.29-4.85 4.46-8 5m-170 6c-6.78 2.59-12.82 14.88-19 9 3.94 2.93-.31 5.37-2 8 5.6-5.88 7.9 1.19 12 4-10.46-9.14 3.04-14.49 10-20 5.98 8.24 15.13 19.33 20.75 27.25 5.62 7.91 20.37 21.41 10.5 28-9.88 6.59-16.36 15.2-27.25 17.75 1 6.33-10.19 8.21-13 14-6.13-3.62-10.31-11.25-15.25-16.75s-8.95-12.57-12.46-17.55S200.71 485.84 204 480c-6.02.32-10.15-8.03-13.77-13.23s-10.28-11.18-13.15-16.85c-2.86-5.67 10.68-10.56 13.92-13.92 4.41 4.76 6.88 11.03 12 15-1.24 5.38-9 5.68-10 11 3.69-3.07 8.18-5.42 11-9 3.8 6.52 10.74 12.88 14.23 18.77 3.5 5.88 14.02 12.3 8.77 18.23 7.76-4.48 9.84 9.96 16 13-.81 2.04-3.27 2.97-4 5 2.66.48 3.32-3.53 6-3 2.26 3.74 4.44 9.62 9 11-2.06-4.97-10.9-9.82-7-15-7.36 1.73-11.01-10.07-15-15 5.88-2.83 10.45-7.67 16-11 3.76 5.59 7.26 11.55 12 16-3.87 2.4-8.8 6.02-12 10 5.11-1.44 8.5-7.24 13-9 2.71 2.41 3.58 7.1 7 8-1.23-3.8-5.05-6.24-6-10 3.93-2.31 9.65-4.33 11-9-4.92 4.17-11.85 10.58-16.25 4.25-4.41-6.33-6.68-11.45-12.75-15.25 5.32 6.28-2.69 6.29-7.25 11.75-4.56 5.47-10.34-.05-13.05-5.45-2.72-5.39-7.23-8.1-10-13-2.78-4.89-11.52-9.28-5.7-14.3-7.65 3.89-11.68-10.13-16-15 4.92-2.79 10.25-6.51 14-11 6.47 1 5.74 10.87 12 12-3.37-4.48-6.67-9.12-9-14 5.38-.22 11.67-12.77 16.75-8.74 5.07 4.03 7.45 11.82 11.95 16.04 4.51 4.21 8.29 10.94 12.3 15.7m114-15c6.2-6.29 15.67.51 19.3 6.7 3.63 6.18 12.76 13.11 8.77 21.38-3.99 8.26-10.05-5.63-13.32-10.83-3.28-5.19-12.08-11.5-14.75-17.25m16 52c-2.45-20.24-17.96-38.3-35-49 23.27-5.8 49.34 29.32 35 49m-7-17c1.73 3.27 3.94 6.89 4 11-12.74 8.4-24.1 18.93-37 27-.54-4.08-3.98-7.17-5-11-6.9-11.03-17.16-22.84-29-29 9.6-10.9 24.59-18.23 35-29 14.51 4.59 25.44 18.01 32 31m49-6c-2.91 2.39-5.04 6-9 7-5.98-4.55 1.5-9.69 6-11 .9-.76 2.71-3.45 3-5-6.59 4.38-14.17 13.98-23 10-2.08-2.08 6.2-5.7 8.08-7.92 1.88-2.21 8.47-6.16 10.92-8.08 3.84-3 7.33-6.98 12-9 1.3 6.3-3.35 10.72-7 15 3.05-1.91 5.03 1.38 6 4-2.74 1.09-3.83 5.03-7 5m39 37c-5.96 5-11.21 8.58-17.08 13.92s-13.03 8.65-16.67-.17c-3.65-8.81-12.59-10.22-9.25-18.75-6.93 1.76-9.73-12.68-6.22-18.22 3.51-5.55 11.65-10.44 17.22-13.78 21.57-16.53 33.34 12.41 46 27-5.03 2.86-8.78 7.56-14 10m-128-3c4.24 6.37 14.68 15.51 3.3 22.3-11.37 6.8-12.65-3.11-17.3-12.3-5-9.89-13.9-19.67-25-22-.78-12.1 11.58-20.76 19.7-11.7 8.12 9.07 14.06 13.36 19.3 23.7m45-15c.62 8.67-9.38 12.51-15.25 17.75-5.87 5.25-13.5 9.46-19.75 14.25-2.52-8.21 8.31-12.78 14.25-17.75 5.94-4.98 13.71-10.38 20.75-14.25m-62 38c-3.91-12.45-15.09-21.36-22-32 6.75-.41 13.76 7.27 17.75 12.25 3.99 4.97 10.38 16.15 4.25 19.75m-23-29c5.31.82 9.37 12.25 13.75 15.25 4.39 2.99 10.35 18.09 3.17 16.81-7.18-1.27-7.47-13.79-12.84-16.14-5.36-2.35-13.73-17.42-4.08-15.92m179 33c-10.09 7.89-26.49 20.99-34 2 9.95-5.67 18-14.78 28-20 3.77-3.09 7.42-6.8 11-10-4.59 1.34-7.94 5.48-12 8-9.37 7.47-19.16 15.01-29 22-1.78-6.28 7.44-9.01 11.75-13.25 4.32-4.24 10.86-7.38 15.25-11.75 4.02-3.47 8.54-6.96 13-10 11.48 9.8 12.13 27.97-4 33m-173-2c-4.4-5.44-5.39-6.14-9.75-12.25-4.37-6.11 4.17-5.65 6 0s9.7 7.82 3.75 12.25m-14-13c9.32 10.95-14.02 6.4 0 0m-7 6c3.75 2.51 1.89 8.87-3.08 8.92-4.98.04-2.27-10.84 3.08-8.92m13 1c-4.3 7.6-14.67 14.45-23 18 5.45-7.31 14.84-13.94 23-18m3 4c2.67 1.3-.68 7.88-3.7 6.64-3.01-1.23 1.05-7.92 3.7-6.64m-24 1c3.17.91 3.12 7.9-.7 6.64-3.81-1.25-4.14-8.03.7-6.64m213 0c3.87 7.52-5.22 7.01-9.75 13.25-4.52 6.25-13.92 4.85-6.17-1.17 7.76-6.01 8.47-7.08 15.92-12.08m-208 29c2.31 5.1 8.17 8.46 9 14-4.61 2.44-9.41 6.11-13 10-6.13-3.11-9.93-10.5-14-16 6.03-2.53 11.4-13.62 18-9-1.67-7.29 9.49-11.47 14.7-15.3 5.2-3.84 11.77-14.17 18.53-7.93s11.02 11.37 2.52 16.98c-8.5 5.62-10.35 6.87-18 14-7.64 7.14-11.94-1.49-17.75-6.75m13-20c-2.13 2.47-8.87 3.84-7.64-.7 1.22-4.53 8.07-3.34 7.64.7m-10 2c3.5 1.17 1.62 7.33-1.68 5.66s-1.29-6.65 1.68-5.66m41 6c4.19 4.89 7.14 10.89 12 15-4.19 5.58-13.66 17.32-20 9-.18 3.03 3.72 3.02 4 6-5.25 3.24-10.55 6.99-15 11-5.47-4.64-10.17-10.67-13-17 6.03-2.59 10.11-8.24 16-11 1.02 2.35 2.58 4.85 5 6-.18-3.14-4.3-4.58-4-8 5.43-2.62 9.99-7.41 15-11m6 42c6.76 6.57-8.53 10.78-12 16-5.82-4.12-8.54-10.77-13-16 6.49-2.15 11.14-11.57 18-10-.19-6.22 4.46-5.17 9.25-10.75s7.66.29 11.67 4.83 5.93 9.19-.67 12.17c-6.6 2.97-6.75 8.93-13.25 3.75m-39-16c3.64 5.21 6.94 11.03 12 15-2.44 5.66-10.88 7.32-13 13 4.92-3.32 9.87-7.25 14-11 3.8 5.82 8.81 11.06 12 17-4.15 2.48-9.93 5.66-12 10 9.76-7.42 11.69-11.19 19.77-.77s-1.6 10.38-7.77 18.77c4.79-.66 9.86-10.98 14.7-9.64 4.83 1.34 6.22 12.08 11.3 13.64-3.08 5.79-10.17 10.2-16 13-5.19-12.91-20.93-21.88-23-35-6.93.41-8.74-10.45-13.92-15.08-5.17-4.63-9.88-12.05-14.08-17.92 5.96-2.29 10.21-8.16 16-11m71 25c-4.12 4.03-9.67 6.28-13 11-2.37-.03-3.72-2.5-6-3 7.07 6.67-8.21 11.53-13 16-4.03-5.38-7.99-10.65-12-16 5.74-3.44 10.75-7.86 16-12 1.83 2.43 3.05 5.63 6 7-.56-3.13-3.76-5.09-5-8 4.86-.52 10.81-12.39 15.7-10.64 4.88 1.74 7.93 12.41 11.3 15.64m13 18c-4.32 3.03-12.25 8.42-15.75 10.39-3.51 1.98-11.88 13.73-15.95 12.25-4.06-1.48-12.38-13.42-10.04-16.39 2.34-2.96 12.89-12.66 16.74-8.25-4.22-6.86 9.33-8.91 12-15 5.91 3.3 10.88 10.65 13 17Z"/><path fill="none" stroke="#318cb8" stroke-width=".3" d="M475 217c-10.85 7.74-20.92 16.6-32 24 2.23 6.3 8.45 10.89 11 17 2.41-.01 3.72-2.45 6-3-8.32 6.23 4.49 13.45 8 20 4.56-1.78 8.01-5.18 12-8-1.15 5.24-8.17 6.09-11 10 5.57 5.15 9.89 13.67 14.23 17.77S492.55 313.34 499 307c-.03 2.95-4.71 4.39-1 7-2.93-1.48-4.13-1.56-7 0 4.88-5.74-5.01-12.45-8.77-18.23-3.75-5.79-10.47-12.28-14.23-18.77-2.69 3.76-7.12 6.26-11 9 1.23-4.99 8.84-5.47 10-11-4.85-4.1-8.7-9.6-12-15-3.85 3.35-8.23 7.33-13 10 2.03-3.68 6.95-7.22 11-9-1.57-6.78-7.26-14.28-13-18-3.67 4.68-9.06 7.83-14 11 21.1 26.64 39.57 55.53 63 80-4.76-10.16 9.69-12.14 9-19 6.07.66 14.5-6.85 17-12 6.67-1.61 13.98-1.35 19 4 1.05-2.63 4.03-3.28 6-5-5.29-4.32-8.24-15.48-15-15 3.15-5.83-7.65-13.02-10.87-18.08-3.22-5.07-7.89-12.06-13.02-17.03-5.14-4.96-7.45-14.98-15.11-16.89.99-6.72-8.03-11.78-11-18m24 35c-1.96 5.41-8.44 7.98-13 11 3.87 5.04 7.59 16.73 15 15-2.87 8.89 10.53 15.73 14 24-4.96-5.94-9.32 3.68-15 5 2.46-3.62 6.34-5.91 10-8-1.86-6.24-9.07-10.4-11-17-2.66-.48-3.32 3.53-6 3 .81-2.04 3.27-2.97 4-5-6.39-3-8.19-17.46-16-13 5.39-5.21-5.66-13.2-8.75-18.25S463.07 237.49 459 231c5.13 2.77 8.62 10.07 13.08 13.92 4.46 3.84 5.85 12.47 11.17 15.83s11.01-6.83 15.75-8.75m-14-16c-2.06 3.63-6.93 7.28-11 9 2.9-3.77 6.97-6.67 11-9m39 52c-2.06 3.63-6.94 7.28-11 9 2.9-3.77 6.97-6.67 11-9m-34 26c-.91 3.13-5.01 5.8-8 7 1.86-3.22 5.07-5.1 8-7Z"/><path fill="none" stroke="#28587e" stroke-width=".3" d="M499 252c-4.74 1.92-10.43 12.11-15.75 8.75s-6.71-11.99-11.17-15.83c-4.46-3.85-7.95-11.15-13.08-13.92 4.07 6.49 10.16 12.7 13.25 17.75S486.39 261.79 481 267c7.81-4.46 9.61 10 16 13-.73 2.03-3.19 2.96-4 5 2.68.53 3.34-3.48 6-3 1.93 6.6 9.14 10.76 11 17-3.66 2.09-7.54 4.38-10 8 5.68-1.32 10.04-10.94 15-5-3.47-8.27-16.87-15.11-14-24-7.41 1.73-11.13-9.96-15-15 4.56-3.02 11.04-5.59 13-11Z"/><path fill="none" stroke="#346a8f" stroke-width=".3" d="M485 236c-4.03 2.33-8.1 5.23-11 9 4.07-1.72 8.94-5.37 11-9Z"/><path fill="none" stroke="#32678c" stroke-width=".3" d="M524 288c-4.03 2.33-8.1 5.23-11 9 4.06-1.72 8.94-5.37 11-9Z"/><path fill="none" stroke="#69b3d5" stroke-width=".3" d="M523 312c2.07.07 6.63-2.37 7-4-3.8-2.7-9.19-2.78-13 0 1.01 2.43 4.01 2.66 6 4Z"/><path fill="none" stroke="#368db8" stroke-width=".3" d="M523 312c10.27 7.6 19.85 18.74 21 32 12.94-9.49-3.09-30.49-14-36-.37 1.63-4.93 4.07-7 4Z"/><path fill="none" stroke="#60b2d6" stroke-width=".3" d="M518 342c2.15.51 7.94-4.96 9.7-6.3 1.75-1.34 8.13-5.39 8.3-7.7-3.7-6.61-11.29-15.38-18.92-17.07-7.64-1.69-13.61 10.1-20.08 13.07 8.53 2.33 16.28 10.38 21 18Z"/><path fill="none" stroke="#35698e" stroke-width=".3" d="M490 314c-2.93 1.9-6.14 3.78-8 7 2.99-1.2 7.09-3.87 8-7Z"/><path fill="none" stroke="#5191b5" stroke-width=".3" d="M319 324c-2.87-2.44-3.76-8.23-8-8 1.71 2.73 4.2 10.19 8 8Z"/><path fill="none" stroke="#368cb7" stroke-width=".3" d="M327 327c2.4-.06 2.96 2.9 5 3 4.95-2.76 10.18-6.51 14-11-5.92-6.14-13.87 4.15-19 8Z"/><path fill="none" stroke="#67aacb" stroke-width=".3" d="M332 320c-8.57 4.98-17.31 11.09-24 19 8.19-5.57 17.01-11.6 24-19Z"/><path fill="none" stroke="#338cb9" stroke-width=".3" d="M557 323c-2.89.08-4.16 3.48-7 4 2.28 5.2 4.14 13.99-1 18 3.13 10.68 11.48-1.39 17-3-2.92 4.08-7.79 6.82-12 9 2.38 6.46 7.91 11.34 12 17 5-1.59 8.66-5.94 13-9 .23 5.65-12.34 6.98-10.25 12.25 2.08 5.27 7.6 8.74 10.25 13.75 2.93-2.48 16.59-8.62 14.75-13.75-1.83-5.14-9.33-13.34-13.75-12.25 2.45-5.62-7.31-17.81-13-18 2.08-6.96-7.77-11.54-10-18Z"/><path fill="none" stroke="#64b1d4" stroke-width=".3" d="M513 347c.34-1.22 3.7-1.92 4-3-3.94-7.36-18.14-25.79-25-14 9.08.83 16.58 9.56 21 17Z"/><path fill="none" stroke="#62b1d4" stroke-width=".3" d="M332 330c-2.04-.1-2.6-3.06-5-3-7.67 5.76-9.09 5.98-16.92 13.08-7.82 7.1-2.17 9.55 5.22 3.22 7.39-6.32 9.57-7.84 16.7-13.3Z"/><path fill="none" stroke="#328cb8" stroke-width=".3" d="M518 342c2.9 5.3 6.7 10.51 6 17 6.21-2.64 11.63-7.53 16.92-12.08 5.28-4.56-1.9-14.37-4.92-18.92-.17 2.31-6.55 6.36-8.3 7.7-1.76 1.34-7.55 6.81-9.7 6.3Z"/><path fill="none" stroke="#358bb7" stroke-width=".3" d="M326 339c1.11 1.67 2.3 3.13 3 5 .28.75.89.78 0 2 6.5-2.7 10.41.39 16 0 5.08-2.67 9.23-6.73 14-10-5.98-4.66-15.17-1.23-21 2 2.29-11-8.19-1.75-12 1Z"/><path fill="none" stroke="#368db9" stroke-width=".3" d="M496 346c3.52 4.29 11.46 9.73 11 16 1.29.17 1.75 1.7 3 2 8.18-5.68-.31-14.55-3.75-20.25S493.37 328.66 490 339c3.2.98 4.35 4.99 6 7Z"/><path fill="none" stroke="#328cb9" stroke-width=".3" d="M348 347c.74.12 2.71 2.11 3 3 3.52-1.93 5.58-6.84 10-7-2.1 1.6-3.88 4.23-6 6 0 3.34 7.63 6.51 8.25 9.75s7.96 7.3 7.75 10.25c3.63-1.89 8.74-4.75 10-9-2.92-3.9-7.99-7.13-10.23-11.77s-9.71-6.39-6.77-9.23c-5.6-4.57-11.62 4.64-16 8Z"/><path fill="none" stroke="#388db8" stroke-width=".3" d="M506 363c-4.69-2.27-7.63-12.13-11-16-5.77-4.91-13.09-11.8-21-9 7.99 4.8 13.19 12.58 19.25 19.75 6.06 7.18 9.82 18.04 12.75 25.25 4.23-4.28-2.39-17.34 0-20Z"/><path fill="none" stroke="#63b1d5" stroke-width=".3" d="M345 346c-5.59.39-9.5-2.7-16 0-1.17.49-1.77 1.69-3 2-.21-1.77 1.54-3.37 3-4-.7-1.87-1.89-3.33-3-5-5.54.91-7.84 8.21-1 9-5.01 4.95-9.37 12.07-7 19 9.6-6.11 18.14-14.08 27-21m-19-5c2.17.86-.23 5.88-2.7 4.64-2.46-1.24.41-5.55 2.7-4.64Z"/><path fill="none" stroke="#61b2d6" stroke-width=".3" d="M450 402c4.6 2.51 11.19-8.37 15.75-10.25 4.57-1.88 11.37-10.21 16-12 4.63-1.8 11.36-12.89 16.25-11.75-5.93-12.78-22.87-35.58-37.75-25.75-14.89 9.83-24.84 19.78-39.25 29.75 3.96 4.18 10.51 5.99 14 11 16.23-10.58 31.4-23.99 47-35-13.3 13.17-29.52 24.41-45 35 3.39 6.68 8.84 12.55 13 19m33-43c5.58 1.74 2.54 12.65-3.67 9.67-6.21-2.99-2.38-11.56 3.67-9.67m-14 10c5.71 1.16 3.2 12.73-3.22 10.22-6.43-2.51-2.32-11.35 3.22-10.22m-13 11c5.33 1.86 2.15 12.45-4 10s-2.21-12.17 4-10Z"/><path fill="none" stroke="#2d8cba" stroke-width=".3" d="M326 341c-2.29-.91-5.16 3.4-2.7 4.64 2.47 1.24 4.87-3.78 2.7-4.64Z"/><path fill="none" stroke="#2a587d" stroke-width=".3" d="M329 346c.89-1.22.28-1.25 0-2-1.46.63-3.21 2.23-3 4 1.23-.31 1.83-1.51 3-2Z"/><path fill="none" stroke="#398db8" stroke-width=".3" d="M513 347c2.11 3.56 4.04 19.01 8.69 14.69 4.66-4.31-2.5-14.11-4.69-17.69-.3 1.08-3.66 1.78-4 3Z"/><path fill="none" stroke="#eef4f7" stroke-width=".3" d="M495 347c3.37 3.87 6.31 13.73 11 16 .23-.26.97-.65 1-1 .46-6.27-7.48-11.71-11-16-.01.19-1.07.73-1 1Z"/><path fill="none" stroke="#63b2d5" stroke-width=".3" d="M351 350c-.29-.89-2.26-2.88-3-3-10 6.36-19.63 14.55-29 22 4.55 5.62 10.83-3.95 15.77-7.23S346.02 353.56 351 350Z"/><path fill="none" stroke="#368db9" stroke-width=".3" d="M548 347c-5.07 4.67-19.24 9.12-12 17 5.44-3.85 10.31-8.48 16-12-.73-2.03-3.19-2.96-4-5Z"/><path fill="none" stroke="#61b2d6" stroke-width=".3" d="M368 372c-6.8-2.99-9.74-15.13-15-20 6.38 4.4 10.19 13.69 16 19 .5-.48 1.46-1.57 2-2 .21-2.95-7.13-7.01-7.75-10.25S355 352.34 355 349c-11.7 6.86-21.37 16.96-33 24 6.07 4.93 12.62 25.01 21.25 18.25S359.6 378.84 368 372m-14-9c5.39 2.63.65 12.8-5.07 9.07-5.73-3.72-.99-12.03 5.07-9.07Z"/><path fill="none" stroke="#3992bd" stroke-width=".3" d="M368 372c.28-.23.75-.76 1-1-5.81-5.31-9.62-14.6-16-19 5.26 4.87 8.2 17.01 15 20Z"/><path fill="none" stroke="#328cb9" stroke-width=".3" d="M553 353c-2.6 4.1-14.11 6.6-14.92 11.92-.82 5.33 10.64 10.87 10.92 16.08 5.66-3.12 13.04-7.02 16-13-5.06-3.97-8.36-9.78-12-15Z"/><path fill="none" stroke="#1a476d" stroke-width=".3" d="M483 359c-6.05-1.89-9.88 6.68-3.67 9.67 6.21 2.98 9.25-7.93 3.67-9.67m0 2c3.67 1.43.98 8.21-3.23 6.21-4.2-1.99-1.64-8.11 3.23-6.21Z"/><path fill="none" stroke="#338cb8" stroke-width=".3" d="M524 375c.33-5.67 8.35-4.95 10.21-9.77s-6.49-6.36-9.13-1.15-9.77-.21-13.08 1.92c3.19 3.28 5.55 11.66 11 9-3.73 3.57 1.97 7.66 4.23 10.77s4.28 9.83 8.77 7.23c-.24 5.75 7 18.38 14 16-4.81 7 7.15 12.29 9 19 5.45-4.02 12.3-7.49 16-13-5.41-3.76-7.99-10.01-12-15-4.16 2.77-7.67 6.43-12 9 .71-4.68 12.58-7.54 8.75-12.75S553.09 388.4 550 383c-3.93 3.12-7.73 6.35-12 9 .62-4.46 12.87-7.58 8.75-12.75s-6.79-7.67-9.75-13.25c-5.07 1.47-8.44 6.31-13 9Z"/><path fill="none" stroke="#3889b4" stroke-width=".3" d="M483 361c-4.87-1.9-7.43 4.22-3.23 6.21 4.21 2 6.9-4.78 3.23-6.21Z"/><path fill="none" stroke="#17446b" stroke-width=".3" d="M354 363c-6.06-2.96-10.8 5.35-5.07 9.07 5.72 3.73 10.46-6.44 5.07-9.07m-2 1c4 .6 3.72 7.61-1.01 6.99s-3.6-7.68 1.01-6.99Z"/><path fill="none" stroke="#3a8cb6" stroke-width=".3" d="M352 364c-4.61-.69-5.74 6.37-1.01 6.99S356 364.6 352 364Z"/><path fill="none" stroke="#378db8" stroke-width=".3" d="M369 374c-.37 2 1.31 3.14 1 5 3.06-2.39 16.23-6.95 14.75-12.75S371.24 372.28 369 374Z"/><path fill="none" stroke="#308cb9" stroke-width=".3" d="M450 402c3.81 5.45 6.19 11.73 8 18 15.9-9.11 29.41-23.37 45-33 .93-7.14-1.8-13.38-5-19-4.89-1.14-11.62 9.95-16.25 11.75-4.63 1.79-11.43 10.12-16 12-4.56 1.88-11.15 12.76-15.75 10.25Z"/><path fill="none" stroke="#1d496f" stroke-width=".3" d="M469 369c-5.54-1.13-9.65 7.71-3.22 10.22 6.42 2.51 8.93-9.06 3.22-10.22m0 2c3.65 1.3 1.46 8.45-2.68 6.66s-1.37-8.1 2.68-6.66Z"/><path fill="none" stroke="#338cb9" stroke-width=".3" d="M368 383c-2.13 3.02-13.35 18-20 18 16.79 4.41 37.37-13.45 37-31-5.5 4.59-11.67 8.4-17 13Z"/><path fill="none" stroke="#3e8db6" stroke-width=".3" d="M469 371c-4.05-1.44-6.82 4.87-2.68 6.66s6.33-5.36 2.68-6.66Z"/><path fill="none" stroke="#328db9" stroke-width=".3" d="M562 398c2.41-2.11 15.22-8.06 15.64-11.3.43-3.25-8.13-13.58-10.94-15.34-2.82-1.76-12.22 10.42-15.7 10.64 2.96 5.72 8.4 10.23 11 16Z"/><path fill="none" stroke="#64b1d5" stroke-width=".3" d="M370 379c.31-1.86-1.37-3-1-5-5.3 3.03-12.23 8.05-16.75 12.25-4.53 4.2-15.73 7.72-9.25 13.75 9.93-5.6 18.12-14.06 27-21Z"/><path fill="none" stroke="#328cb9" stroke-width=".3" d="M596 374c-5.27 4.1-9.96 9.1-16 12 4.03 5.35 7.56 10.86 12 16 5.02-1.13 8.13-6.62 13-8-1.52 4.77-12.74 6.61-9.75 11.75 2.98 5.14 7.57 8.87 9.75 14.25-6.18-3.5-7.24-12.68-14-15-3.79 4.5-9.27 7.44-14 11 3.37 5.21 7.32 9.94 11 15-5.59-2.37-8.04-9.43-12-14-4.56 3.5-9.52 8.52-15 11 1.45 6.55 8.4 10.71 11 17 16.72-12.2 34.97-23.84 49-39-5.94-2.99-7.37-15.49-15-13 3.93-6.65-7.31-12.59-10-19Z"/><path fill="none" stroke="#60b3d7" stroke-width=".3" d="M435 413c5.4 3.23 9.86-9.19 15-8-5.74-9.87-10.71-15.39-18.92-24.08-8.2-8.69-21.74-5.02-21.08 9.08 10.92 3.21 19.93 12.97 25 23Z"/><path fill="none" stroke="#1c486f" stroke-width=".3" d="M456 380c-6.21-2.17-10.15 7.55-4 10s9.33-8.14 4-10m-1 2c3.32 1.18 2.07 7.72-2.23 6.21-4.3-1.5-2.06-7.74 2.23-6.21Z"/><path fill="none" stroke="#3e90b9" stroke-width=".3" d="M455 382c-4.29-1.53-6.53 4.71-2.23 6.21 4.3 1.51 5.55-5.03 2.23-6.21Z"/><path fill="none" stroke="#6cb6d7" stroke-width=".3" d="M348 401c6.65 0 17.87-14.98 20-18-3.23 2.79-8.78 6.69-11.75 9.25-2.98 2.56-11.35 6.86-8.25 8.75Z"/><path fill="none" stroke="#318dba" stroke-width=".3" d="M591 402c-5.58-1.2-6.69-13.15-11.92-13.92-5.22-.76-9.39 10.8-15.08 9.92 3.13 6.15 7.24 12.55 13 17 3.7-5.02 11.87-6.77 14-13Z"/><path fill="none" stroke="#388db8" stroke-width=".3" d="M385 395c-4.04-8.76-7.23.83-13.3 2.7-6.08 1.87-5.9 11.68.55 7.55 6.45-4.14 6.8-6.3 12.75-10.25Z"/><path fill="none" stroke="#338cb8" stroke-width=".3" d="M406 397c2.91 4.99 8.91 13.36 12.7 17.3 3.78 3.95 8.88 17.04 14.55 11.95 5.66-5.1-2.98-15.54-6-20.5-3.01-4.97-10.18-11.53-16.25-12.75-.82 2.17-3.45 2.45-5 4Z"/><path fill="none" stroke="#398eb9" stroke-width=".3" d="M380 403c2.56-.45 9.02 1.14 8 4 3.91-3.44 8.96-5.59 12-10-7.38-3.58-14.51 1.96-20 6Z"/><path fill="none" stroke="#318cb9" stroke-width=".3" d="M392 407c6.85.57 8.84 12.97 13.92 16.08 5.08 3.12 7.8 16.43 14.08 14.92 3.15-.54 5.07-3.71 8-5-7.29-11.93-18.05-22.03-25-34-4.72.6-7.56 5.36-11 8Z"/><path fill="none" stroke="#63b1d4" stroke-width=".3" d="M388 407c1.02-2.86-5.44-4.45-8-4-6.61 4.2-13.12 10.67-13 19 7.56-3.62 14.24-9.67 21-15Z"/><path fill="none" stroke="#328cb9" stroke-width=".3" d="M435 413c4.27 8.44 6.72 17.8 17.3 12.3 10.59-5.5 1.13-14.82-2.3-20.3-5.14-1.19-9.6 11.23-15 8Z"/><path fill="none" stroke="#60b3d7" stroke-width=".3" d="M420 438c-6.28 1.51-9-11.8-14.08-14.92-5.08-3.11-7.07-15.51-13.92-16.08-7.43 4.29-15.81 10.44-21 17 13.68 4.02 23.41 18.27 25 32 9.07-3.9 16.22-12.04 24-18Z"/><path fill="none" stroke="#318cb8" stroke-width=".3" d="M250 444c-4.01-4.76-7.79-11.49-12.3-15.7-4.5-4.22-6.88-12.01-11.95-16.04-5.08-4.03-11.37 8.52-16.75 8.74 2.33 4.88 5.63 9.52 9 14-6.26-1.13-5.53-11-12-12-3.75 4.49-9.08 8.21-14 11 4.32 4.87 8.35 18.89 16 15-5.82 5.02 2.92 9.41 5.7 14.3 2.77 4.9 7.28 7.61 10 13 2.71 5.4 8.49 10.92 13.05 5.45 4.56-5.46 12.57-5.47 7.25-11.75 6.07 3.8 8.34 8.92 12.75 15.25 4.4 6.33 11.33-.08 16.25-4.25-1.35 4.67-7.07 6.69-11 9 .95 3.76 4.77 6.2 6 10-3.42-.9-4.29-5.59-7-8-4.5 1.76-7.89 7.56-13 9 3.2-3.98 8.13-7.6 12-10-4.74-4.45-8.24-10.41-12-16-5.55 3.33-10.12 8.17-16 11 3.99 4.93 7.64 16.73 15 15-3.9 5.18 4.94 10.03 7 15-4.56-1.38-6.74-7.26-9-11-2.68-.53-3.34 3.48-6 3 .73-2.03 3.19-2.96 4-5-6.16-3.04-8.24-17.48-16-13 5.25-5.93-5.27-12.35-8.77-18.23-3.49-5.89-10.43-12.25-14.23-18.77-2.82 3.58-7.31 5.93-11 9 1-5.32 8.76-5.62 10-11-5.12-3.97-7.59-10.24-12-15-3.24 3.36-16.78 8.25-13.92 13.92 2.87 5.67 9.53 11.65 13.15 16.85S197.98 480.32 204 480c-3.29 5.84 6.78 12.72 10.29 17.7s7.52 12.05 12.46 17.55S235.87 528.38 242 532c2.81-5.79 14-7.67 13-14 10.89-2.55 17.37-11.16 27.25-17.75 9.87-6.59-4.88-20.09-10.5-28-5.62-7.92-14.77-19.01-20.75-27.25-6.96 5.51-20.46 10.86-10 20-4.1-2.81-6.4-9.88-12-4 1.69-2.63 5.94-5.07 2-8 6.18 5.88 12.22-6.41 19-9m-15-16c-2.04 5.22-8.44 8.35-13 11 3.57 4.06 5.59 8.89 9 13-6.22-.68-5.55-13.58-13-10 2.26-1.98 1.94-3.99 0-6 6.35 4.45 11.44-5.08 17-8m27 34c-2.26 4.86-8.36 8.49-13 11 3.48-4.57 8.66-7.39 13-11m-47 9c-.9 4.06-5.82 5.86-9 8 1.29-3.52 6.16-5.31 9-8Z"/><path fill="none" stroke="#348cb8" stroke-width=".3" d="M364 429c2.67 5.75 11.47 12.06 14.75 17.25 3.27 5.2 9.33 19.09 13.32 10.83 3.99-8.27-5.14-15.2-8.77-21.38-3.63-6.19-13.1-12.99-19.3-6.7Z"/><path fill="none" stroke="#32668c" stroke-width=".3" d="M235 428c-5.56 2.92-10.65 12.45-17 8 1.94 2.01 2.26 4.02 0 6 7.45-3.58 6.78 9.32 13 10-3.41-4.11-5.43-8.94-9-13 4.56-2.65 10.96-5.78 13-11Z"/><path fill="none" stroke="#358db9" stroke-width=".3" d="M380 481c14.34-19.68-11.73-54.8-35-49 17.04 10.7 32.55 28.76 35 49Z"/><path fill="none" stroke="#60b3d7" stroke-width=".3" d="M335 491c4.06.84 8.87-6.91 12.7-8.3 3.82-1.39 8.59-8.23 12.38-9.62s8.71-10.34 12.92-9.08c-6.56-12.99-17.49-26.41-32-31-10.41 10.77-25.4 18.1-35 29 11.84 6.16 22.1 17.97 29 29m23-37c7.37 2.47 1.67 15.87-5.67 11.67s-1.4-14.04 5.67-11.67m-16 12c7.26 2.62 3.4 15.79-4.67 12.67S333.95 463.1 342 466Z"/><path fill="none" stroke="#378db8" stroke-width=".3" d="M418 443c-.87 1.48-3.18 7.91-7.25 8.75-4.06.85-7.09 8.99-11.75 7.25 8.83 3.98 16.41-5.62 23-10-.29 1.55-2.1 4.24-3 5 .11 1.68 2.96 2.32 3 4 3.17.03 4.26-3.91 7-5-.97-2.62-2.95-5.91-6-4 3.65-4.28 8.3-8.7 7-15-4.67 2.02-8.16 6-12 9Z"/><path fill="none" stroke="#6ab4d5" stroke-width=".3" d="M399 459c4.66 1.74 7.69-6.4 11.75-7.25 4.07-.84 6.38-7.27 7.25-8.75-2.45 1.92-9.04 5.87-10.92 8.08-1.88 2.22-10.16 5.84-8.08 7.92Z"/><path fill="none" stroke="#318cb9" stroke-width=".3" d="M429 458c6.33-.1 9.15 10.63 14 11 3.38-2.83 7.91-4.65 11-8-.93 5.08-7.54 6.07-10 10 1.6 4.11 7.01 7.65 8.3 11.7 1.29 4.04 9.02 8.01 8.7 12.3 5.22-2.44 8.97-7.14 14-10-12.66-14.59-24.43-43.53-46-27Z"/><path fill="none" stroke="#1a466d" stroke-width=".3" d="M358 454c-7.07-2.37-13.01 7.47-5.67 11.67s13.04-9.2 5.67-11.67m-2 1c5.46.62 4.52 10.66-1.7 9.64-6.21-1.01-3.3-10.2 1.7-9.64Z"/><path fill="none" stroke="#65b2d5" stroke-width=".3" d="M422 458c-.04-1.68-2.89-2.32-3-4-4.5 1.31-11.98 6.45-6 11 3.96-1 6.09-4.61 9-7Z"/><path fill="none" stroke="#378cb7" stroke-width=".3" d="M356 455c-5-.56-7.91 8.63-1.7 9.64 6.22 1.02 7.16-9.02 1.7-9.64Z"/><path fill="none" stroke="#60b3d7" stroke-width=".3" d="M461 495c.32-4.29-7.41-8.26-8.7-12.3-1.29-4.05-6.7-7.59-8.3-11.7a343 343 0 0 1-24 18c6.44-8.06 16.37-12.33 23-20-4.85-.37-7.67-11.1-14-11-5.57 3.34-13.71 8.23-17.22 13.78-3.51 5.54-.71 19.98 6.22 18.22-3.34 8.53 5.6 9.94 9.25 18.75 3.64 8.82 10.8 5.51 16.67.17S455.04 500 461 495m-24 6c-3.93 1.75-11.72-7.1-8.22-10.22S438.8 497.52 437 501Z"/><path fill="none" stroke="#386a8e" stroke-width=".3" d="M443 469c-6.63 7.67-16.56 11.94-23 20 7.99-5.45 16.32-11.69 24-18 2.46-3.93 9.07-4.92 10-10-3.09 3.35-7.62 5.17-11 8Z"/><path fill="none" stroke="#35688d" stroke-width=".3" d="M262 462c-4.34 3.61-9.52 6.43-13 11 4.64-2.51 10.74-6.14 13-11Z"/><path fill="none" stroke="#60b3d7" stroke-width=".3" d="M319 502c2.77 1.66 13.92-6.46 14-10-5.24-10.34-11.18-14.63-19.3-23.7-8.12-9.06-20.48-.4-19.7 11.7 11.1 2.33 20 12.11 25 22Z"/><path fill="none" stroke="#318cb9" stroke-width=".3" d="M335 491c1.02 3.83 4.46 6.92 5 11 12.9-8.07 24.26-18.6 37-27-.06-4.11-2.27-7.73-4-11-4.21-1.26-9.13 7.69-12.92 9.08s-8.56 8.23-12.38 9.62c-3.83 1.39-8.64 9.14-12.7 8.3Z"/><path fill="none" stroke="#18446c" stroke-width=".3" d="M342 466c-8.05-2.9-12.74 9.55-4.67 12.67S349.26 468.62 342 466m-1 2c5.56 1.49 2.71 11.12-3 9-5.72-2.13-2.72-10.54 3-9Z"/><path fill="none" stroke="#398eba" stroke-width=".3" d="M341 468c-5.72-1.54-8.72 6.87-3 9 5.71 2.12 8.56-7.51 3-9Z"/><path fill="none" stroke="#34698e" stroke-width=".3" d="M215 471c-2.84 2.69-7.71 4.48-9 8 3.18-2.14 8.1-3.94 9-8Z"/><path fill="none" stroke="#398db8" stroke-width=".3" d="M378 477c-7.04 3.87-14.81 9.27-20.75 14.25-5.94 4.97-16.77 9.54-14.25 17.75 6.25-4.79 13.88-9 19.75-14.25 5.87-5.24 15.87-9.08 15.25-17.75Z"/><path fill="none" stroke="#388eb9" stroke-width=".3" d="M316 515c6.13-3.6-.26-14.78-4.25-19.75-3.99-4.98-11-12.66-17.75-12.25 6.91 10.64 18.09 19.55 22 32Z"/><path fill="none" stroke="#368cb8" stroke-width=".3" d="M293 486c-9.65-1.5-1.28 13.57 4.08 15.92 5.37 2.35 5.66 14.87 12.84 16.14 7.18 1.28 1.22-13.82-3.17-16.81-4.38-3-8.44-14.43-13.75-15.25Z"/><path fill="none" stroke="#338db9" stroke-width=".3" d="M463 496c-.12 1.27.66 2.73 2 3 4.06-2.52 7.41-6.66 12-8-3.58 3.2-7.23 6.91-11 10-.14 2.35 4.6 5.68 4.77 8.23s1.83 8.01 1.23 9.77c16.13-5.03 15.48-23.2 4-33-4.46 3.04-8.98 6.53-13 10Z"/><path fill="none" stroke="#18456c" stroke-width=".3" d="M437 501c1.8-3.48-4.72-13.34-8.22-10.22s4.29 11.97 8.22 10.22m-2-1c-2.51-1.52-4.33-4.28-5-7 2.25 1.72 5.55 3.71 5 7Z"/><path fill="none" stroke="#338cb9" stroke-width=".3" d="M319 502c4.65 9.19 5.93 19.1 17.3 12.3 11.38-6.79.94-15.93-3.3-22.3-.08 3.54-11.23 11.66-14 10Z"/><path fill="none" stroke="#4b8db2" stroke-width=".3" d="M435 500c.55-3.29-2.75-5.28-5-7 .67 2.72 2.49 5.48 5 7Z"/><path fill="none" stroke="#64b4d7" stroke-width=".3" d="M465 499c-1.34-.27-2.12-1.73-2-3-4.39 4.37-10.93 7.51-15.25 11.75-4.31 4.24-13.53 6.97-11.75 13.25 9.84-6.99 19.63-14.53 29-22Z"/><path fill="none" stroke="#e8ecf0" stroke-width=".3" d="M299 517c5.95-4.43-1.92-6.6-3.75-12.25s-10.37-6.11-6 0c4.36 6.11 5.35 6.81 9.75 12.25Z"/><path fill="none" stroke="#60b2d7" stroke-width=".3" d="M472 519c.6-1.76-1.06-7.22-1.23-9.77s-4.91-5.88-4.77-8.23c-10 5.22-18.05 14.33-28 20 7.51 18.99 23.91 5.89 34-2Z"/><path fill="none" stroke="#eef1f4" stroke-width=".3" d="M285 504c-14.02 6.4 9.32 10.95 0 0Z"/><path fill="none" stroke="#e6ebef" stroke-width=".3" d="M278 510c-5.35-1.92-8.06 8.96-3.08 8.92 4.97-.05 6.83-6.41 3.08-8.92Z"/><path fill="none" stroke="#418db5" stroke-width=".3" d="M291 511c-8.16 4.06-17.55 10.69-23 18 8.33-3.55 18.7-10.4 23-18Z"/><path fill="none" stroke="#e4e9ed" stroke-width=".3" d="M294 515c-2.65-1.28-6.71 5.41-3.7 6.64 3.02 1.24 6.37-5.34 3.7-6.64Z"/><path fill="none" stroke="#e6ebef" stroke-width=".3" d="M270 516c-4.84-1.39-4.51 5.39-.7 6.64 3.82 1.26 3.87-5.73.7-6.64Z"/><path fill="none" stroke="#3e90ba" stroke-width=".3" d="M483 516c-7.45 5-8.16 6.07-15.92 12.08-7.75 6.02 1.65 7.42 6.17 1.17 4.53-6.24 13.62-5.73 9.75-13.25Z"/><path fill="none" stroke="#328cb9" stroke-width=".3" d="M275 545c5.81 5.26 10.11 13.89 17.75 6.75 7.65-7.13 9.5-8.38 18-14 8.5-5.61 4.24-10.74-2.52-16.98s-13.33 4.09-18.53 7.93c-5.21 3.83-16.37 8.01-14.7 15.3-6.6-4.62-11.97 6.47-18 9 4.07 5.5 7.87 12.89 14 16 3.59-3.89 8.39-7.56 13-10-.83-5.54-6.69-8.9-9-14m23-6c-4.16-.68-5.07-5.99-7-9 3.93 1.84 4.1 6.26 7 9Z"/><path fill="none" stroke="#e0e5eb" stroke-width=".3" d="M288 525c.43-4.04-6.42-5.23-7.64-.7-1.23 4.54 5.51 3.17 7.64.7Z"/><path fill="none" stroke="#eaeef2" stroke-width=".3" d="M278 527c-2.97-.99-4.98 3.99-1.68 5.66s5.18-4.49 1.68-5.66Z"/><path fill="none" stroke="#366c91" stroke-width=".3" d="M298 539c-2.9-2.74-3.07-7.16-7-9 1.93 3.01 2.84 8.32 7 9Z"/><path fill="none" stroke="#318cb9" stroke-width=".3" d="M319 533c-5.01 3.59-9.57 8.38-15 11-.3 3.42 3.82 4.86 4 8-2.42-1.15-3.98-3.65-5-6-5.89 2.76-9.97 8.41-16 11 2.83 6.33 7.53 12.36 13 17 4.45-4.01 9.75-7.76 15-11-.28-2.98-4.18-2.97-4-6 6.34 8.32 15.81-3.42 20-9-4.86-4.11-7.81-10.11-12-15Z"/><path fill="none" stroke="#318cb8" stroke-width=".3" d="M325 575c6.5 5.18 6.65-.78 13.25-3.75 6.6-2.98 4.68-7.63.67-12.17s-6.88-10.41-11.67-4.83-9.44 4.53-9.25 10.75c-6.86-1.57-11.51 7.85-18 10 4.46 5.23 7.18 11.88 13 16 3.47-5.22 18.76-9.43 12-16Z"/><path fill="none" stroke="#328cb9" stroke-width=".3" d="M286 559c-5.79 2.84-10.04 8.71-16 11 4.2 5.87 8.91 13.29 14.08 17.92 5.18 4.63 6.99 15.49 13.92 15.08 2.07 13.12 17.81 22.09 23 35 5.83-2.8 12.92-7.21 16-13-5.08-1.56-6.47-12.3-11.3-13.64-4.84-1.34-9.91 8.98-14.7 9.64 6.17-8.39 15.85-8.35 7.77-18.77s-10.01-6.65-19.77.77c2.07-4.34 7.85-7.52 12-10-3.19-5.94-8.2-11.18-12-17-4.13 3.75-9.08 7.68-14 11 2.12-5.68 10.56-7.34 13-13-5.06-3.97-8.36-9.79-12-15Z"/><path fill="none" stroke="#318cb9" stroke-width=".3" d="M357 584c-3.37-3.23-6.42-13.9-11.3-15.64-4.89-1.75-10.84 10.12-15.7 10.64 1.24 2.91 4.44 4.87 5 8-2.95-1.37-4.17-4.57-6-7-5.25 4.14-10.26 8.56-16 12 4.01 5.35 7.97 10.62 12 16 4.79-4.47 20.07-9.33 13-16 2.28.5 3.63 2.97 6 3 3.33-4.72 8.88-6.97 13-11Z"/><path fill="none" stroke="#318bb8" stroke-width=".3" d="M370 602c-2.12-6.35-7.09-13.7-13-17-2.67 6.09-16.22 8.14-12 15-3.85-4.41-14.4 5.29-16.74 8.25-2.34 2.97 5.98 14.91 10.04 16.39 4.07 1.48 12.44-10.27 15.95-12.25 3.5-1.97 11.43-7.36 15.75-10.39Z"/><path fill="#3b3b3b00" d="M0 800h800V0H0zm550-477c8.67-9.27 14.04 4.44 19.77 11.23s11.78 15.01 17.48 22.52c5.71 7.5 11.56 14.48 17.5 22.5 5.95 8.01 10.83 13.88 17.5 22.5s-6.64 14.82-13.5 21c-6.85 6.18-15.35 9.21-22.45 16.55-7.1 7.35-16.91 12.2-22.05 1.45-5.15-10.74-12.05-13.44-17.5-22.5s-11.63-14.31-17.5-22.5c-5.87-8.18-11.36-14.73-17.25-22.75-4.95 6.15 1.68 8.93-5.77 15.23s-16.17 12.92-23.98 19.02c-7.81 6.09-17.18 13.11-25 19-7.81 5.9-6.75 6-15.92 4.42s-6.24.92-7.66 9-4.84 9.57 6.35 8.35c11.2-1.21 19.57 9.66 25.23 17.73 5.67 8.06 13.51 16.34 18.67 24.33s6.77 8.33 4.3 16.14-.23 8.47 1.78 15.78c-5.39 3.62-10.23 5.93-15.23 10.77s-9.91 8.74-14.54 3-14.72 1.61-19.46-4.54c-4.74-6.16-7.2-9.02-11.54-14.46s-6.8-9.65-11.48-14.52-6.34-11.07-9.53-16.47c-3.18-5.41 3.02-18.38.52-21.52s-18.23-2.62-19.99 1.49c-1.75 4.12-1.36 15.36-7.5 18.5s-8.37 8.54-14 12c-5.64 3.46-9.47 7.22-15 11-5.52 3.79-8.93 7.33-14.95 11.05-6.01 3.73-16.52-.68-22.3 2.7 3.27 7.39 10.16 13.52 14.75 20.25 4.6 6.72 11.01 13.94 15.5 20.5 4.5 6.55 11.92 14.07 15.52 20.48s16.45 14.35 11.97 21.51c-4.48 7.17-14.13 9.16-19.99 16.01-5.85 6.86-14.02 7.64-20.5 15.5s-15.22 6.03-19.55-2.95c-4.33-8.97-11.36-12.3-15.95-20.05-4.58-7.75-10.79-13.48-15.5-20.5s-11.5-13.76-15.55-20.45c-4.05-6.68-15.82-14.32-10.95-21.55 4.88-7.22 17.79-7.88 18.25-17.75-10.12 3.5-5.53-13.86-13.25-9.24-7.72 4.61-8.87 7.55-16 11.99-7.13 4.45-10.99-6.87-15.05-11.45s-8.41-10.56-12.45-15.55c-4.04-4.98-7.8-10.9-12-16-4.21-5.09-8.6-11.18-12.55-16.45-3.96-5.27-8.49-10.41-12.45-15.55-3.97-5.14-10.62-11.45-4.5-16 6.11-4.55 10.69-8.3 16.48-12.52s10.03-8.16 15.52-12.48S218.39 411.19 223 406c23.39 23.75 42.32 52.66 63 79 6.76-3.74 3.35-16.96 10.25-21.75 6.91-4.78 11.48-9.12 18-14s12.02-8.44 18.45-13.55c6.43-5.12 13.28-10.97 22.32-7.72 9.05 3.24 13.03-14.46 10.2-20.2s-19.04-.15-24.45-5.55-10.02-11.49-14.54-17.46S315.52 371.44 314 365s8.88-23.53-.25-16.25c-9.13 7.29-14.53.78-10.82-8.82 3.7-9.61 13.84-8.88 6.82-18.68s9.42-11.26 11.25-.25c7.93-1.91 14.5-11.07 24-8s-.03 13.88-5 17c6.11 2.17 16.09-2.66 21.69 2.31 5.61 4.96 8.53 8.41 12.56 14.44 4.04 6.02 7.73 8.35 12 15 4.27 6.66 3.41 13.06-.02 21.48s7.11 8.62 14.84 9.7c7.74 1.08 5.37-10.23 8.86-16 3.48-5.78 10.67-7.25 14.82-12.18C428.89 359.81 437 357.8 438 351c-2.54-.96-3.89-3.8-2-6 6.15 8.22 12.93 2.03 19.08-3.92 6.16-5.94 16.39-7.73 24.92-8.08-3.14-6.92-9.04-12.25-13.25-18.75-4.21-6.49-9.86-12.19-14.5-18.5-4.65-6.3-9.55-12.49-14.17-18.83-4.62-6.35-10.03-12.09-14.33-18.67s7.31-11.91 12.5-16c5.19-4.1 13.04-10.71 18.83-14.17s12.27-13.22 19-14 11.78 12.22 16.17 16.67c4.4 4.44 9.7 12.62 14 18s10.35 12.86 14.5 18.5 10.75 13.28 14.17 18.83 14.89 13.97 8.83 19.67 2.9 10.91 7.5 17Z"/><path fill="#19456c" d="M549.25 322.75c-4.6-6.09-13.56-11.3-7.5-17s-5.41-14.12-8.83-19.67-10.02-13.19-14.17-18.83-10.2-13.12-14.5-18.5-9.6-13.56-14-18c-4.39-4.45-9.44-17.45-16.17-16.67s-13.21 10.54-19 14-13.64 10.07-18.83 14.17c-5.19 4.09-16.8 9.42-12.5 16s9.71 12.32 14.33 18.67c4.62 6.34 9.52 12.53 14.17 18.83 4.64 6.31 10.29 12.01 14.5 18.5 4.21 6.5 10.11 11.83 13.25 18.75-8.53.35-18.76 2.14-24.92 8.08-6.15 5.95-12.93 12.14-19.08 3.92-1.89 2.2-.54 5.04 2 6-1 6.8-9.11 8.81-13.25 13.75-4.15 4.93-11.34 6.4-14.82 12.18-3.49 5.77-1.12 17.08-8.86 16-7.73-1.08-18.27-1.28-14.84-9.7s4.29-14.82.02-21.48c-4.27-6.65-7.96-8.98-12-15-4.03-6.03-6.95-9.48-12.56-14.44-5.6-4.97-15.58-.14-21.69-2.31 4.97-3.12 14.5-13.93 5-17s-16.07 6.09-24 8c-1.83-11.01-18.27-9.55-11.25.25s-3.12 9.07-6.82 18.68c-3.71 9.6 1.69 16.11 10.82 8.82 9.13-7.28-1.27 9.81.25 16.25s7.71 13.8 12.23 19.77 9.13 12.06 14.54 17.46 21.62-.19 24.45 5.55-1.15 23.44-10.2 20.2c-9.04-3.25-15.89 2.6-22.32 7.72-6.43 5.11-11.93 8.67-18.45 13.55s-11.09 9.22-18 14c-6.9 4.79-3.49 18.01-10.25 21.75-20.68-26.34-39.61-55.25-63-79-4.61 5.19-10.76 8.43-16.25 12.75s-9.73 8.26-15.52 12.48-10.37 7.97-16.48 12.52c-6.12 4.55.53 10.86 4.5 16 3.96 5.14 8.49 10.28 12.45 15.55 3.95 5.27 8.34 11.36 12.55 16.45 4.2 5.1 7.96 11.02 12 16 4.04 4.99 8.39 10.97 12.45 15.55s7.92 15.9 15.05 11.45c7.13-4.44 8.28-7.38 16-11.99 7.72-4.62 3.13 12.74 13.25 9.24-.46 9.87-13.37 10.53-18.25 17.75-4.87 7.23 6.9 14.87 10.95 21.55 4.05 6.69 10.84 13.43 15.55 20.45s10.92 12.75 15.5 20.5c4.59 7.75 11.62 11.08 15.95 20.05 4.33 8.98 13.07 10.81 19.55 2.95s14.65-8.64 20.5-15.5c5.86-6.85 15.51-8.84 19.99-16.01 4.48-7.16-8.37-15.1-11.97-21.51s-11.02-13.93-15.52-20.48c-4.49-6.56-10.9-13.78-15.5-20.5-4.59-6.73-11.48-12.86-14.75-20.25 5.78-3.38 16.29 1.03 22.3-2.7 6.02-3.72 9.43-7.26 14.95-11.05 5.53-3.78 9.36-7.54 15-11 5.63-3.46 7.86-8.86 14-12s5.75-14.38 7.5-18.5c1.76-4.11 17.49-4.63 19.99-1.49s-3.7 16.11-.52 21.52c3.19 5.4 4.85 11.6 9.53 16.47s7.14 9.08 11.48 14.52 6.8 8.3 11.54 14.46c4.74 6.15 14.83-1.2 19.46 4.54s9.54 1.84 14.54-3 9.84-7.15 15.23-10.77c-2.01-7.31-4.25-7.97-1.78-15.78s.86-8.15-4.3-16.14-13-16.27-18.67-24.33c-5.66-8.07-14.03-18.94-25.23-17.73-11.19 1.22-7.77-.27-6.35-8.35s-1.51-10.58 7.66-9 8.11 1.48 15.92-4.42c7.82-5.89 17.19-12.91 25-19 7.81-6.1 16.53-12.72 23.98-19.02s.82-9.08 5.77-15.23c5.89 8.02 11.38 14.57 17.25 22.75 5.87 8.19 12.05 13.44 17.5 22.5s12.35 11.76 17.5 22.5c5.14 10.75 14.95 5.9 22.05-1.45 7.1-7.34 15.6-10.37 22.45-16.55 6.86-6.18 20.17-12.38 13.5-21s-11.55-14.49-17.5-22.5c-5.94-8.02-11.79-15-17.5-22.5-5.7-7.51-11.75-15.73-17.48-22.52S558.67 313.73 550 323m-75-106c2.97 6.22 11.99 11.28 11 18 7.66 1.91 9.97 11.93 15.11 16.89 5.13 4.97 9.8 11.96 13.02 17.03 3.22 5.06 14.02 12.25 10.87 18.08 6.76-.48 9.71 10.68 15 15-1.97 1.72-4.95 2.37-6 5-5.02-5.35-12.33-5.61-19-4-2.5 5.15-10.93 12.66-17 12 .69 6.86-13.76 8.84-9 19-23.43-24.47-41.9-53.36-63-80 4.94-3.17 10.33-6.32 14-11 5.74 3.72 11.43 11.22 13 18-4.05 1.78-8.97 5.32-11 9 4.77-2.67 9.15-6.65 13-10 3.3 5.4 7.15 10.9 12 15-1.16 5.53-8.77 6.01-10 11 3.88-2.74 8.31-5.24 11-9 3.76 6.49 10.48 12.98 14.23 18.77 3.76 5.78 13.65 12.49 8.77 18.23 2.87-1.56 4.07-1.48 7 0-3.71-2.61.97-4.05 1-7-6.45 6.34-11.43-8.13-15.77-12.23S474.57 282.15 469 277c2.83-3.91 9.85-4.76 11-10-3.99 2.82-7.44 6.22-12 8-3.51-6.55-16.32-13.77-8-20-2.28.55-3.59 2.99-6 3-2.55-6.11-8.77-10.7-11-17 11.08-7.4 21.15-16.26 32-24m55 91c10.91 5.51 26.94 26.51 14 36-1.15-13.26-10.73-24.4-21-32-1.99-1.34-4.99-1.57-6-4 3.81-2.78 9.2-2.7 13 0m6 20c3.02 4.55 10.2 14.36 4.92 18.92-5.29 4.55-10.71 9.44-16.92 12.08.7-6.49-3.1-11.7-6-17-4.72-7.62-12.47-15.67-21-18 6.47-2.97 12.44-14.76 20.08-13.07 7.63 1.69 15.22 10.46 18.92 17.07m-217-4c-3.8 2.19-6.29-5.27-8-8 4.24-.23 5.13 5.56 8 8m13 6c-7.13 5.46-9.31 6.98-16.7 13.3-7.39 6.33-13.04 3.88-5.22-3.22 7.83-7.1 9.25-7.32 16.92-13.08 5.13-3.85 13.08-14.14 19-8-3.82 4.49-9.05 8.24-14 11m0-10c-6.99 7.4-15.81 13.43-24 19 6.69-7.91 15.43-14.02 24-19m225 3c2.23 6.46 12.08 11.04 10 18 5.69.19 15.45 12.38 13 18 4.42-1.09 11.92 7.11 13.75 12.25 1.84 5.13-11.82 11.27-14.75 13.75-2.65-5.01-8.17-8.48-10.25-13.75-2.09-5.27 10.48-6.6 10.25-12.25-4.34 3.06-8 7.41-13 9-4.09-5.66-9.62-10.54-12-17 4.21-2.18 9.08-4.92 12-9-5.52 1.61-13.87 13.68-17 3 5.14-4.01 3.28-12.8 1-18 2.84-.52 4.11-3.92 7-4m-40 21c2.19 3.58 9.35 13.38 4.69 17.69-4.65 4.32-6.58-11.13-8.69-14.69-4.42-7.44-11.92-16.17-21-17 6.86-11.79 21.06 6.64 25 14m-172 2c-8.86 6.92-17.4 14.89-27 21-2.37-6.93 1.99-14.05 7-19-6.84-.79-4.54-8.09 1-9 3.81-2.75 14.29-12 12-1 5.83-3.23 15.02-6.66 21-2-4.77 3.27-8.92 7.33-14 10m162 16c-.03.35-.77.74-1 1-2.39 2.66 4.23 15.72 0 20-2.93-7.21-6.69-18.07-12.75-25.25-6.06-7.17-11.26-14.95-19.25-19.75 7.91-2.8 15.23 4.09 21 9-.07-.27.99-.81 1-1-1.65-2.01-2.8-6.02-6-7 3.37-10.34 12.81-.95 16.25 4.75S518.18 358.32 510 364c-1.25-.3-1.71-1.83-3-2m-136 7c-.54.43-1.5 1.52-2 2-.25.24-.72.77-1 1-8.4 6.84-16.12 12.49-24.75 19.25S328.07 377.93 322 373c11.63-7.04 21.3-17.14 33-24 2.12-1.77 3.9-4.4 6-6-4.42.16-6.48 5.07-10 7-4.98 3.56-11.29 8.49-16.23 11.77S323.55 374.62 319 369c9.37-7.45 19-15.64 29-22 4.38-3.36 10.4-12.57 16-8-2.94 2.84 4.53 4.59 6.77 9.23S378.08 356.1 381 360c-1.26 4.25-6.37 7.11-10 9m127-1c3.2 5.62 5.93 11.86 5 19-15.59 9.63-29.1 23.89-45 33-1.81-6.27-4.19-12.55-8-18-4.16-6.45-9.61-12.32-13-19 15.48-10.59 31.7-21.83 45-35-15.6 11.01-30.77 24.42-47 35-3.49-5.01-10.04-6.82-14-11 14.41-9.97 24.36-19.92 39.25-29.75 14.88-9.83 31.82 12.97 37.75 25.75m50-21c.81 2.04 3.27 2.97 4 5-5.69 3.52-10.56 8.15-16 12-7.24-7.88 6.93-12.33 12-17m5 6c3.64 5.22 6.94 11.03 12 15-2.96 5.98-10.34 9.88-16 13-.28-5.21-11.74-10.75-10.92-16.08.81-5.32 12.32-7.82 14.92-11.92m-29 22c4.56-2.69 7.93-7.53 13-9 2.96 5.58 5.63 8.08 9.75 13.25s-8.13 8.29-8.75 12.75c4.27-2.65 8.07-5.88 12-9 3.09 5.4 5.92 8.04 9.75 13.25s-8.04 8.07-8.75 12.75c4.33-2.57 7.84-6.23 12-9 4.01 4.99 6.59 11.24 12 15-3.7 5.51-10.55 8.98-16 13-1.85-6.71-13.81-12-9-19-7 2.38-14.24-10.25-14-16-4.49 2.6-6.51-4.12-8.77-7.23s-7.96-7.2-4.23-10.77c-5.45 2.66-7.81-5.72-11-9 3.31-2.13 10.44 3.29 13.08-1.92s10.99-3.67 9.13 1.15-9.88 4.1-10.21 9.77m-154 4c-8.88 6.94-17.07 15.4-27 21-6.48-6.03 4.72-9.55 9.25-13.75 4.52-4.2 11.45-9.22 16.75-12.25 2.24-1.72 14.27-13.55 15.75-7.75S373.06 376.61 370 379m-22 22c-3.1-1.89 5.27-6.19 8.25-8.75 2.97-2.56 8.52-6.46 11.75-9.25 5.33-4.6 11.5-8.41 17-13 .37 17.55-20.21 35.41-37 31m214-3c-2.6-5.77-8.04-10.28-11-16 3.48-.22 12.88-12.4 15.7-10.64 2.81 1.76 11.37 12.09 10.94 15.34-.42 3.24-13.23 9.19-15.64 11.3m34-24c2.69 6.41 13.93 12.35 10 19 7.63-2.49 9.06 10.01 15 13-14.03 15.16-32.28 26.8-49 39-2.6-6.29-9.55-10.45-11-17 5.48-2.48 10.44-7.5 15-11 3.96 4.57 6.41 11.63 12 14-3.68-5.06-7.63-9.79-11-15 4.73-3.56 10.21-6.5 14-11 6.76 2.32 7.82 11.5 14 15-2.18-5.38-6.77-9.11-9.75-14.25-2.99-5.14 8.23-6.98 9.75-11.75-4.87 1.38-7.98 6.87-13 8-4.44-5.14-7.97-10.65-12-16 6.04-2.9 10.73-7.9 16-12m-146 31c3.43 5.48 12.89 14.8 2.3 20.3-10.58 5.5-13.03-3.86-17.3-12.3-5.07-10.03-14.08-19.79-25-23-.66-14.1 12.88-17.77 21.08-9.08 8.21 8.69 13.18 14.21 18.92 24.08m141-3c-2.13 6.23-10.3 7.98-14 13-5.76-4.45-9.87-10.85-13-17 5.69.88 9.86-10.68 15.08-9.92 5.23.77 6.34 12.72 11.92 13.92m-206-7c-5.95 3.95-6.3 6.11-12.75 10.25-6.45 4.13-6.63-5.68-.55-7.55 6.07-1.87 9.26-11.46 13.3-2.7m21 2c1.55-1.55 4.18-1.83 5-4 6.07 1.22 13.24 7.78 16.25 12.75 3.02 4.96 11.66 15.4 6 20.5-5.67 5.09-10.77-8-14.55-11.95-3.79-3.94-9.79-12.31-12.7-17.3m-18 10c-6.76 5.33-13.44 11.38-21 15-.12-8.33 6.39-14.8 13-19 5.49-4.04 12.62-9.58 20-6-3.04 4.41-8.09 6.56-12 10m32 31c-7.78 5.96-14.93 14.1-24 18-1.59-13.73-11.32-27.98-25-32 5.19-6.56 13.57-12.71 21-17 3.44-2.64 6.28-7.4 11-8 6.95 11.97 17.71 22.07 25 34-2.93 1.29-4.85 4.46-8 5m-170 6c-6.78 2.59-12.82 14.88-19 9 3.94 2.93-.31 5.37-2 8 5.6-5.88 7.9 1.19 12 4-10.46-9.14 3.04-14.49 10-20 5.98 8.24 15.13 19.33 20.75 27.25 5.62 7.91 20.37 21.41 10.5 28-9.88 6.59-16.36 15.2-27.25 17.75 1 6.33-10.19 8.21-13 14-6.13-3.62-10.31-11.25-15.25-16.75s-8.95-12.57-12.46-17.55S200.71 485.84 204 480c-6.02.32-10.15-8.03-13.77-13.23s-10.28-11.18-13.15-16.85c-2.86-5.67 10.68-10.56 13.92-13.92 4.41 4.76 6.88 11.03 12 15-1.24 5.38-9 5.68-10 11 3.69-3.07 8.18-5.42 11-9 3.8 6.52 10.74 12.88 14.23 18.77 3.5 5.88 14.02 12.3 8.77 18.23 7.76-4.48 9.84 9.96 16 13-.81 2.04-3.27 2.97-4 5 2.66.48 3.32-3.53 6-3 2.26 3.74 4.44 9.62 9 11-2.06-4.97-10.9-9.82-7-15-7.36 1.73-11.01-10.07-15-15 5.88-2.83 10.45-7.67 16-11 3.76 5.59 7.26 11.55 12 16-3.87 2.4-8.8 6.02-12 10 5.11-1.44 8.5-7.24 13-9 2.71 2.41 3.58 7.1 7 8-1.23-3.8-5.05-6.24-6-10 3.93-2.31 9.65-4.33 11-9-4.92 4.17-11.85 10.58-16.25 4.25-4.41-6.33-6.68-11.45-12.75-15.25 5.32 6.28-2.69 6.29-7.25 11.75-4.56 5.47-10.34-.05-13.05-5.45-2.72-5.39-7.23-8.1-10-13-2.78-4.89-11.52-9.28-5.7-14.3-7.65 3.89-11.68-10.13-16-15 4.92-2.79 10.25-6.51 14-11 6.47 1 5.74 10.87 12 12-3.37-4.48-6.67-9.12-9-14 5.38-.22 11.67-12.77 16.75-8.74 5.07 4.03 7.45 11.82 11.95 16.04 4.51 4.21 8.29 10.94 12.3 15.7m114-15c6.2-6.29 15.67.51 19.3 6.7 3.63 6.18 12.76 13.11 8.77 21.38-3.99 8.26-10.05-5.63-13.32-10.83-3.28-5.19-12.08-11.5-14.75-17.25m16 52c-2.45-20.24-17.96-38.3-35-49 23.27-5.8 49.34 29.32 35 49m-7-17c1.73 3.27 3.94 6.89 4 11-12.74 8.4-24.1 18.93-37 27-.54-4.08-3.98-7.17-5-11-6.9-11.03-17.16-22.84-29-29 9.6-10.9 24.59-18.23 35-29 14.51 4.59 25.44 18.01 32 31m49-6c-2.91 2.39-5.04 6-9 7-5.98-4.55 1.5-9.69 6-11 .9-.76 2.71-3.45 3-5-6.59 4.38-14.17 13.98-23 10-2.08-2.08 6.2-5.7 8.08-7.92 1.88-2.21 8.47-6.16 10.92-8.08 3.84-3 7.33-6.98 12-9 1.3 6.3-3.35 10.72-7 15 3.05-1.91 5.03 1.38 6 4-2.74 1.09-3.83 5.03-7 5m39 37c-5.96 5-11.21 8.58-17.08 13.92s-13.03 8.65-16.67-.17c-3.65-8.81-12.59-10.22-9.25-18.75-6.93 1.76-9.73-12.68-6.22-18.22 3.51-5.55 11.65-10.44 17.22-13.78 21.57-16.53 33.34 12.41 46 27-5.03 2.86-8.78 7.56-14 10m-128-3c4.24 6.37 14.68 15.51 3.3 22.3-11.37 6.8-12.65-3.11-17.3-12.3-5-9.89-13.9-19.67-25-22-.78-12.1 11.58-20.76 19.7-11.7 8.12 9.07 14.06 13.36 19.3 23.7m45-15c.62 8.67-9.38 12.51-15.25 17.75-5.87 5.25-13.5 9.46-19.75 14.25-2.52-8.21 8.31-12.78 14.25-17.75 5.94-4.98 13.71-10.38 20.75-14.25m-62 38c-3.91-12.45-15.09-21.36-22-32 6.75-.41 13.76 7.27 17.75 12.25 3.99 4.97 10.38 16.15 4.25 19.75m-23-29c5.31.82 9.37 12.25 13.75 15.25 4.39 2.99 10.35 18.09 3.17 16.81-7.18-1.27-7.47-13.79-12.84-16.14-5.36-2.35-13.73-17.42-4.08-15.92m179 33c-10.09 7.89-26.49 20.99-34 2 9.95-5.67 18-14.78 28-20 3.77-3.09 7.42-6.8 11-10-4.59 1.34-7.94 5.48-12 8-9.37 7.47-19.16 15.01-29 22-1.78-6.28 7.44-9.01 11.75-13.25 4.32-4.24 10.86-7.38 15.25-11.75 4.02-3.47 8.54-6.96 13-10 11.48 9.8 12.13 27.97-4 33m-173-2c-4.4-5.44-5.39-6.14-9.75-12.25-4.37-6.11 4.17-5.65 6 0s9.7 7.82 3.75 12.25m-14-13c9.32 10.95-14.02 6.4 0 0m-7 6c3.75 2.51 1.89 8.87-3.08 8.92-4.98.04-2.27-10.84 3.08-8.92m13 1c-4.3 7.6-14.67 14.45-23 18 5.45-7.31 14.84-13.94 23-18m3 4c2.67 1.3-.68 7.88-3.7 6.64-3.01-1.23 1.05-7.92 3.7-6.64m-24 1c3.17.91 3.12 7.9-.7 6.64-3.81-1.25-4.14-8.03.7-6.64m213 0c3.87 7.52-5.22 7.01-9.75 13.25-4.52 6.25-13.92 4.85-6.17-1.17 7.76-6.01 8.47-7.08 15.92-12.08m-208 29c2.31 5.1 8.17 8.46 9 14-4.61 2.44-9.41 6.11-13 10-6.13-3.11-9.93-10.5-14-16 6.03-2.53 11.4-13.62 18-9-1.67-7.29 9.49-11.47 14.7-15.3 5.2-3.84 11.77-14.17 18.53-7.93s11.02 11.37 2.52 16.98c-8.5 5.62-10.35 6.87-18 14-7.64 7.14-11.94-1.49-17.75-6.75m13-20c-2.13 2.47-8.87 3.84-7.64-.7 1.22-4.53 8.07-3.34 7.64.7m-10 2c3.5 1.17 1.62 7.33-1.68 5.66s-1.29-6.65 1.68-5.66m41 6c4.19 4.89 7.14 10.89 12 15-4.19 5.58-13.66 17.32-20 9-.18 3.03 3.72 3.02 4 6-5.25 3.24-10.55 6.99-15 11-5.47-4.64-10.17-10.67-13-17 6.03-2.59 10.11-8.24 16-11 1.02 2.35 2.58 4.85 5 6-.18-3.14-4.3-4.58-4-8 5.43-2.62 9.99-7.41 15-11m6 42c6.76 6.57-8.53 10.78-12 16-5.82-4.12-8.54-10.77-13-16 6.49-2.15 11.14-11.57 18-10-.19-6.22 4.46-5.17 9.25-10.75s7.66.29 11.67 4.83 5.93 9.19-.67 12.17c-6.6 2.97-6.75 8.93-13.25 3.75m-39-16c3.64 5.21 6.94 11.03 12 15-2.44 5.66-10.88 7.32-13 13 4.92-3.32 9.87-7.25 14-11 3.8 5.82 8.81 11.06 12 17-4.15 2.48-9.93 5.66-12 10 9.76-7.42 11.69-11.19 19.77-.77s-1.6 10.38-7.77 18.77c4.79-.66 9.86-10.98 14.7-9.64 4.83 1.34 6.22 12.08 11.3 13.64-3.08 5.79-10.17 10.2-16 13-5.19-12.91-20.93-21.88-23-35-6.93.41-8.74-10.45-13.92-15.08-5.17-4.63-9.88-12.05-14.08-17.92 5.96-2.29 10.21-8.16 16-11m71 25c-4.12 4.03-9.67 6.28-13 11-2.37-.03-3.72-2.5-6-3 7.07 6.67-8.21 11.53-13 16-4.03-5.38-7.99-10.65-12-16 5.74-3.44 10.75-7.86 16-12 1.83 2.43 3.05 5.63 6 7-.56-3.13-3.76-5.09-5-8 4.86-.52 10.81-12.39 15.7-10.64 4.88 1.74 7.93 12.41 11.3 15.64m13 18c-4.32 3.03-12.25 8.42-15.75 10.39-3.51 1.98-11.88 13.73-15.95 12.25-4.06-1.48-12.38-13.42-10.04-16.39 2.34-2.96 12.89-12.66 16.74-8.25-4.22-6.86 9.33-8.91 12-15 5.91 3.3 10.88 10.65 13 17"/><path fill="#318cb8" d="M475 217c-10.85 7.74-20.92 16.6-32 24 2.23 6.3 8.45 10.89 11 17 2.41-.01 3.72-2.45 6-3-8.32 6.23 4.49 13.45 8 20 4.56-1.78 8.01-5.18 12-8-1.15 5.24-8.17 6.09-11 10 5.57 5.15 9.89 13.67 14.23 17.77S492.55 313.34 499 307c-.03 2.95-4.71 4.39-1 7-2.93-1.48-4.13-1.56-7 0 4.88-5.74-5.01-12.45-8.77-18.23-3.75-5.79-10.47-12.28-14.23-18.77-2.69 3.76-7.12 6.26-11 9 1.23-4.99 8.84-5.47 10-11-4.85-4.1-8.7-9.6-12-15-3.85 3.35-8.23 7.33-13 10 2.03-3.68 6.95-7.22 11-9-1.57-6.78-7.26-14.28-13-18-3.67 4.68-9.06 7.83-14 11 21.1 26.64 39.57 55.53 63 80-4.76-10.16 9.69-12.14 9-19 6.07.66 14.5-6.85 17-12 6.67-1.61 13.98-1.35 19 4 1.05-2.63 4.03-3.28 6-5-5.29-4.32-8.24-15.48-15-15 3.15-5.83-7.65-13.02-10.87-18.08-3.22-5.07-7.89-12.06-13.02-17.03-5.14-4.96-7.45-14.98-15.11-16.89.99-6.72-8.03-11.78-11-18m24 35c-1.96 5.41-8.44 7.98-13 11 3.87 5.04 7.59 16.73 15 15-2.87 8.89 10.53 15.73 14 24-4.96-5.94-9.32 3.68-15 5 2.46-3.62 6.34-5.91 10-8-1.86-6.24-9.07-10.4-11-17-2.66-.48-3.32 3.53-6 3 .81-2.04 3.27-2.97 4-5-6.39-3-8.19-17.46-16-13 5.39-5.21-5.66-13.2-8.75-18.25S463.07 237.49 459 231c5.13 2.77 8.62 10.07 13.08 13.92 4.46 3.84 5.85 12.47 11.17 15.83s11.01-6.83 15.75-8.75m-14-16c-2.06 3.63-6.93 7.28-11 9 2.9-3.77 6.97-6.67 11-9m39 52c-2.06 3.63-6.94 7.28-11 9 2.9-3.77 6.97-6.67 11-9m-34 26c-.91 3.13-5.01 5.8-8 7 1.86-3.22 5.07-5.1 8-7"/><path fill="#28587e" d="M499 252c-4.74 1.92-10.43 12.11-15.75 8.75s-6.71-11.99-11.17-15.83c-4.46-3.85-7.95-11.15-13.08-13.92 4.07 6.49 10.16 12.7 13.25 17.75S486.39 261.79 481 267c7.81-4.46 9.61 10 16 13-.73 2.03-3.19 2.96-4 5 2.68.53 3.34-3.48 6-3 1.93 6.6 9.14 10.76 11 17-3.66 2.09-7.54 4.38-10 8 5.68-1.32 10.04-10.94 15-5-3.47-8.27-16.87-15.11-14-24-7.41 1.73-11.13-9.96-15-15 4.56-3.02 11.04-5.59 13-11"/><path fill="#346a8f" d="M485 236c-4.03 2.33-8.1 5.23-11 9 4.07-1.72 8.94-5.37 11-9"/><path fill="#32678c" d="M524 288c-4.03 2.33-8.1 5.23-11 9 4.06-1.72 8.94-5.37 11-9"/><path fill="#69b3d5" d="M523 312c2.07.07 6.63-2.37 7-4-3.8-2.7-9.19-2.78-13 0 1.01 2.43 4.01 2.66 6 4"/><path fill="#368db8" d="M523 312c10.27 7.6 19.85 18.74 21 32 12.94-9.49-3.09-30.49-14-36-.37 1.63-4.93 4.07-7 4"/><path fill="#60b2d6" d="M518 342c2.15.51 7.94-4.96 9.7-6.3 1.75-1.34 8.13-5.39 8.3-7.7-3.7-6.61-11.29-15.38-18.92-17.07-7.64-1.69-13.61 10.1-20.08 13.07 8.53 2.33 16.28 10.38 21 18"/><path fill="#35698e" d="M490 314c-2.93 1.9-6.14 3.78-8 7 2.99-1.2 7.09-3.87 8-7"/><path fill="#5191b5" d="M319 324c-2.87-2.44-3.76-8.23-8-8 1.71 2.73 4.2 10.19 8 8"/><path fill="#368cb7" d="M327 327c2.4-.06 2.96 2.9 5 3 4.95-2.76 10.18-6.51 14-11-5.92-6.14-13.87 4.15-19 8"/><path fill="#67aacb" d="M332 320c-8.57 4.98-17.31 11.09-24 19 8.19-5.57 17.01-11.6 24-19"/><path fill="#338cb9" d="M557 323c-2.89.08-4.16 3.48-7 4 2.28 5.2 4.14 13.99-1 18 3.13 10.68 11.48-1.39 17-3-2.92 4.08-7.79 6.82-12 9 2.38 6.46 7.91 11.34 12 17 5-1.59 8.66-5.94 13-9 .23 5.65-12.34 6.98-10.25 12.25 2.08 5.27 7.6 8.74 10.25 13.75 2.93-2.48 16.59-8.62 14.75-13.75-1.83-5.14-9.33-13.34-13.75-12.25 2.45-5.62-7.31-17.81-13-18 2.08-6.96-7.77-11.54-10-18"/><path fill="#64b1d4" d="M513 347c.34-1.22 3.7-1.92 4-3-3.94-7.36-18.14-25.79-25-14 9.08.83 16.58 9.56 21 17"/><path fill="#62b1d4" d="M332 330c-2.04-.1-2.6-3.06-5-3-7.67 5.76-9.09 5.98-16.92 13.08-7.82 7.1-2.17 9.55 5.22 3.22 7.39-6.32 9.57-7.84 16.7-13.3"/><path fill="#328cb8" d="M518 342c2.9 5.3 6.7 10.51 6 17 6.21-2.64 11.63-7.53 16.92-12.08 5.28-4.56-1.9-14.37-4.92-18.92-.17 2.31-6.55 6.36-8.3 7.7-1.76 1.34-7.55 6.81-9.7 6.3"/><path fill="#358bb7" d="M326 339c1.11 1.67 2.3 3.13 3 5 .28.75.89.78 0 2 6.5-2.7 10.41.39 16 0 5.08-2.67 9.23-6.73 14-10-5.98-4.66-15.17-1.23-21 2 2.29-11-8.19-1.75-12 1"/><path fill="#368db9" d="M496 346c3.52 4.29 11.46 9.73 11 16 1.29.17 1.75 1.7 3 2 8.18-5.68-.31-14.55-3.75-20.25S493.37 328.66 490 339c3.2.98 4.35 4.99 6 7"/><path fill="#328cb9" d="M348 347c.74.12 2.71 2.11 3 3 3.52-1.93 5.58-6.84 10-7-2.1 1.6-3.88 4.23-6 6 0 3.34 7.63 6.51 8.25 9.75s7.96 7.3 7.75 10.25c3.63-1.89 8.74-4.75 10-9-2.92-3.9-7.99-7.13-10.23-11.77s-9.71-6.39-6.77-9.23c-5.6-4.57-11.62 4.64-16 8"/><path fill="#388db8" d="M506 363c-4.69-2.27-7.63-12.13-11-16-5.77-4.91-13.09-11.8-21-9 7.99 4.8 13.19 12.58 19.25 19.75 6.06 7.18 9.82 18.04 12.75 25.25 4.23-4.28-2.39-17.34 0-20"/><path fill="#63b1d5" d="M345 346c-5.59.39-9.5-2.7-16 0-1.17.49-1.77 1.69-3 2-.21-1.77 1.54-3.37 3-4-.7-1.87-1.89-3.33-3-5-5.54.91-7.84 8.21-1 9-5.01 4.95-9.37 12.07-7 19 9.6-6.11 18.14-14.08 27-21m-19-5c2.17.86-.23 5.88-2.7 4.64-2.46-1.24.41-5.55 2.7-4.64"/><path fill="#61b2d6" d="M450 402c4.6 2.51 11.19-8.37 15.75-10.25 4.57-1.88 11.37-10.21 16-12 4.63-1.8 11.36-12.89 16.25-11.75-5.93-12.78-22.87-35.58-37.75-25.75-14.89 9.83-24.84 19.78-39.25 29.75 3.96 4.18 10.51 5.99 14 11 16.23-10.58 31.4-23.99 47-35-13.3 13.17-29.52 24.41-45 35 3.39 6.68 8.84 12.55 13 19m33-43c5.58 1.74 2.54 12.65-3.67 9.67-6.21-2.99-2.38-11.56 3.67-9.67m-14 10c5.71 1.16 3.2 12.73-3.22 10.22-6.43-2.51-2.32-11.35 3.22-10.22m-13 11c5.33 1.86 2.15 12.45-4 10s-2.21-12.17 4-10"/><path fill="#2d8cba" d="M326 341c-2.29-.91-5.16 3.4-2.7 4.64 2.47 1.24 4.87-3.78 2.7-4.64"/><path fill="#2a587d" d="M329 346c.89-1.22.28-1.25 0-2-1.46.63-3.21 2.23-3 4 1.23-.31 1.83-1.51 3-2"/><path fill="#398db8" d="M513 347c2.11 3.56 4.04 19.01 8.69 14.69 4.66-4.31-2.5-14.11-4.69-17.69-.3 1.08-3.66 1.78-4 3"/><path fill="#e0e5eb01" d="M495 347c3.37 3.87 6.31 13.73 11 16 .23-.26.97-.65 1-1 .46-6.27-7.48-11.71-11-16-.01.19-1.07.73-1 1"/><path fill="#63b2d5" d="M351 350c-.29-.89-2.26-2.88-3-3-10 6.36-19.63 14.55-29 22 4.55 5.62 10.83-3.95 15.77-7.23S346.02 353.56 351 350"/><path fill="#368db9" d="M548 347c-5.07 4.67-19.24 9.12-12 17 5.44-3.85 10.31-8.48 16-12-.73-2.03-3.19-2.96-4-5"/><path fill="#61b2d6" d="M368 372c-6.8-2.99-9.74-15.13-15-20 6.38 4.4 10.19 13.69 16 19 .5-.48 1.46-1.57 2-2 .21-2.95-7.13-7.01-7.75-10.25S355 352.34 355 349c-11.7 6.86-21.37 16.96-33 24 6.07 4.93 12.62 25.01 21.25 18.25S359.6 378.84 368 372m-14-9c5.39 2.63.65 12.8-5.07 9.07-5.73-3.72-.99-12.03 5.07-9.07"/><path fill="#3992bd" d="M368 372c.28-.23.75-.76 1-1-5.81-5.31-9.62-14.6-16-19 5.26 4.87 8.2 17.01 15 20"/><path fill="#328cb9" d="M553 353c-2.6 4.1-14.11 6.6-14.92 11.92-.82 5.33 10.64 10.87 10.92 16.08 5.66-3.12 13.04-7.02 16-13-5.06-3.97-8.36-9.78-12-15"/><path fill="#1a476d" d="M483 359c-6.05-1.89-9.88 6.68-3.67 9.67 6.21 2.98 9.25-7.93 3.67-9.67m0 2c3.67 1.43.98 8.21-3.23 6.21-4.2-1.99-1.64-8.11 3.23-6.21"/><path fill="#338cb8" d="M524 375c.33-5.67 8.35-4.95 10.21-9.77s-6.49-6.36-9.13-1.15-9.77-.21-13.08 1.92c3.19 3.28 5.55 11.66 11 9-3.73 3.57 1.97 7.66 4.23 10.77s4.28 9.83 8.77 7.23c-.24 5.75 7 18.38 14 16-4.81 7 7.15 12.29 9 19 5.45-4.02 12.3-7.49 16-13-5.41-3.76-7.99-10.01-12-15-4.16 2.77-7.67 6.43-12 9 .71-4.68 12.58-7.54 8.75-12.75S553.09 388.4 550 383c-3.93 3.12-7.73 6.35-12 9 .62-4.46 12.87-7.58 8.75-12.75s-6.79-7.67-9.75-13.25c-5.07 1.47-8.44 6.31-13 9"/><path fill="#3889b4" d="M483 361c-4.87-1.9-7.43 4.22-3.23 6.21 4.21 2 6.9-4.78 3.23-6.21"/><path fill="#17446b" d="M354 363c-6.06-2.96-10.8 5.35-5.07 9.07 5.72 3.73 10.46-6.44 5.07-9.07m-2 1c4 .6 3.72 7.61-1.01 6.99s-3.6-7.68 1.01-6.99"/><path fill="#3a8cb6" d="M352 364c-4.61-.69-5.74 6.37-1.01 6.99S356 364.6 352 364"/><path fill="#378db8" d="M369 374c-.37 2 1.31 3.14 1 5 3.06-2.39 16.23-6.95 14.75-12.75S371.24 372.28 369 374"/><path fill="#308cb9" d="M450 402c3.81 5.45 6.19 11.73 8 18 15.9-9.11 29.41-23.37 45-33 .93-7.14-1.8-13.38-5-19-4.89-1.14-11.62 9.95-16.25 11.75-4.63 1.79-11.43 10.12-16 12-4.56 1.88-11.15 12.76-15.75 10.25"/><path fill="#1d496f" d="M469 369c-5.54-1.13-9.65 7.71-3.22 10.22 6.42 2.51 8.93-9.06 3.22-10.22m0 2c3.65 1.3 1.46 8.45-2.68 6.66s-1.37-8.1 2.68-6.66"/><path fill="#338cb9" d="M368 383c-2.13 3.02-13.35 18-20 18 16.79 4.41 37.37-13.45 37-31-5.5 4.59-11.67 8.4-17 13"/><path fill="#3e8db6" d="M469 371c-4.05-1.44-6.82 4.87-2.68 6.66s6.33-5.36 2.68-6.66"/><path fill="#328db9" d="M562 398c2.41-2.11 15.22-8.06 15.64-11.3.43-3.25-8.13-13.58-10.94-15.34-2.82-1.76-12.22 10.42-15.7 10.64 2.96 5.72 8.4 10.23 11 16"/><path fill="#64b1d5" d="M370 379c.31-1.86-1.37-3-1-5-5.3 3.03-12.23 8.05-16.75 12.25-4.53 4.2-15.73 7.72-9.25 13.75 9.93-5.6 18.12-14.06 27-21"/><path fill="#328cb9" d="M596 374c-5.27 4.1-9.96 9.1-16 12 4.03 5.35 7.56 10.86 12 16 5.02-1.13 8.13-6.62 13-8-1.52 4.77-12.74 6.61-9.75 11.75 2.98 5.14 7.57 8.87 9.75 14.25-6.18-3.5-7.24-12.68-14-15-3.79 4.5-9.27 7.44-14 11 3.37 5.21 7.32 9.94 11 15-5.59-2.37-8.04-9.43-12-14-4.56 3.5-9.52 8.52-15 11 1.45 6.55 8.4 10.71 11 17 16.72-12.2 34.97-23.84 49-39-5.94-2.99-7.37-15.49-15-13 3.93-6.65-7.31-12.59-10-19"/><path fill="#60b3d7" d="M435 413c5.4 3.23 9.86-9.19 15-8-5.74-9.87-10.71-15.39-18.92-24.08-8.2-8.69-21.74-5.02-21.08 9.08 10.92 3.21 19.93 12.97 25 23"/><path fill="#1c486f" d="M456 380c-6.21-2.17-10.15 7.55-4 10s9.33-8.14 4-10m-1 2c3.32 1.18 2.07 7.72-2.23 6.21-4.3-1.5-2.06-7.74 2.23-6.21"/><path fill="#3e90b9" d="M455 382c-4.29-1.53-6.53 4.71-2.23 6.21 4.3 1.51 5.55-5.03 2.23-6.21"/><path fill="#6cb6d7" d="M348 401c6.65 0 17.87-14.98 20-18-3.23 2.79-8.78 6.69-11.75 9.25-2.98 2.56-11.35 6.86-8.25 8.75"/><path fill="#318dba" d="M591 402c-5.58-1.2-6.69-13.15-11.92-13.92-5.22-.76-9.39 10.8-15.08 9.92 3.13 6.15 7.24 12.55 13 17 3.7-5.02 11.87-6.77 14-13"/><path fill="#388db8" d="M385 395c-4.04-8.76-7.23.83-13.3 2.7-6.08 1.87-5.9 11.68.55 7.55 6.45-4.14 6.8-6.3 12.75-10.25"/><path fill="#338cb8" d="M406 397c2.91 4.99 8.91 13.36 12.7 17.3 3.78 3.95 8.88 17.04 14.55 11.95 5.66-5.1-2.98-15.54-6-20.5-3.01-4.97-10.18-11.53-16.25-12.75-.82 2.17-3.45 2.45-5 4"/><path fill="#398eb9" d="M380 403c2.56-.45 9.02 1.14 8 4 3.91-3.44 8.96-5.59 12-10-7.38-3.58-14.51 1.96-20 6"/><path fill="#318cb9" d="M392 407c6.85.57 8.84 12.97 13.92 16.08 5.08 3.12 7.8 16.43 14.08 14.92 3.15-.54 5.07-3.71 8-5-7.29-11.93-18.05-22.03-25-34-4.72.6-7.56 5.36-11 8"/><path fill="#63b1d4" d="M388 407c1.02-2.86-5.44-4.45-8-4-6.61 4.2-13.12 10.67-13 19 7.56-3.62 14.24-9.67 21-15"/><path fill="#328cb9" d="M435 413c4.27 8.44 6.72 17.8 17.3 12.3 10.59-5.5 1.13-14.82-2.3-20.3-5.14-1.19-9.6 11.23-15 8"/><path fill="#60b3d7" d="M420 438c-6.28 1.51-9-11.8-14.08-14.92-5.08-3.11-7.07-15.51-13.92-16.08-7.43 4.29-15.81 10.44-21 17 13.68 4.02 23.41 18.27 25 32 9.07-3.9 16.22-12.04 24-18"/><path fill="#318cb8" d="M250 444c-4.01-4.76-7.79-11.49-12.3-15.7-4.5-4.22-6.88-12.01-11.95-16.04-5.08-4.03-11.37 8.52-16.75 8.74 2.33 4.88 5.63 9.52 9 14-6.26-1.13-5.53-11-12-12-3.75 4.49-9.08 8.21-14 11 4.32 4.87 8.35 18.89 16 15-5.82 5.02 2.92 9.41 5.7 14.3 2.77 4.9 7.28 7.61 10 13 2.71 5.4 8.49 10.92 13.05 5.45 4.56-5.46 12.57-5.47 7.25-11.75 6.07 3.8 8.34 8.92 12.75 15.25 4.4 6.33 11.33-.08 16.25-4.25-1.35 4.67-7.07 6.69-11 9 .95 3.76 4.77 6.2 6 10-3.42-.9-4.29-5.59-7-8-4.5 1.76-7.89 7.56-13 9 3.2-3.98 8.13-7.6 12-10-4.74-4.45-8.24-10.41-12-16-5.55 3.33-10.12 8.17-16 11 3.99 4.93 7.64 16.73 15 15-3.9 5.18 4.94 10.03 7 15-4.56-1.38-6.74-7.26-9-11-2.68-.53-3.34 3.48-6 3 .73-2.03 3.19-2.96 4-5-6.16-3.04-8.24-17.48-16-13 5.25-5.93-5.27-12.35-8.77-18.23-3.49-5.89-10.43-12.25-14.23-18.77-2.82 3.58-7.31 5.93-11 9 1-5.32 8.76-5.62 10-11-5.12-3.97-7.59-10.24-12-15-3.24 3.36-16.78 8.25-13.92 13.92 2.87 5.67 9.53 11.65 13.15 16.85S197.98 480.32 204 480c-3.29 5.84 6.78 12.72 10.29 17.7s7.52 12.05 12.46 17.55S235.87 528.38 242 532c2.81-5.79 14-7.67 13-14 10.89-2.55 17.37-11.16 27.25-17.75 9.87-6.59-4.88-20.09-10.5-28-5.62-7.92-14.77-19.01-20.75-27.25-6.96 5.51-20.46 10.86-10 20-4.1-2.81-6.4-9.88-12-4 1.69-2.63 5.94-5.07 2-8 6.18 5.88 12.22-6.41 19-9m-15-16c-2.04 5.22-8.44 8.35-13 11 3.57 4.06 5.59 8.89 9 13-6.22-.68-5.55-13.58-13-10 2.26-1.98 1.94-3.99 0-6 6.35 4.45 11.44-5.08 17-8m27 34c-2.26 4.86-8.36 8.49-13 11 3.48-4.57 8.66-7.39 13-11m-47 9c-.9 4.06-5.82 5.86-9 8 1.29-3.52 6.16-5.31 9-8"/><path fill="#348cb8" d="M364 429c2.67 5.75 11.47 12.06 14.75 17.25 3.27 5.2 9.33 19.09 13.32 10.83 3.99-8.27-5.14-15.2-8.77-21.38-3.63-6.19-13.1-12.99-19.3-6.7"/><path fill="#32668c" d="M235 428c-5.56 2.92-10.65 12.45-17 8 1.94 2.01 2.26 4.02 0 6 7.45-3.58 6.78 9.32 13 10-3.41-4.11-5.43-8.94-9-13 4.56-2.65 10.96-5.78 13-11"/><path fill="#358db9" d="M380 481c14.34-19.68-11.73-54.8-35-49 17.04 10.7 32.55 28.76 35 49"/><path fill="#60b3d7" d="M335 491c4.06.84 8.87-6.91 12.7-8.3 3.82-1.39 8.59-8.23 12.38-9.62s8.71-10.34 12.92-9.08c-6.56-12.99-17.49-26.41-32-31-10.41 10.77-25.4 18.1-35 29 11.84 6.16 22.1 17.97 29 29m23-37c7.37 2.47 1.67 15.87-5.67 11.67s-1.4-14.04 5.67-11.67m-16 12c7.26 2.62 3.4 15.79-4.67 12.67S333.95 463.1 342 466"/><path fill="#378db8" d="M418 443c-.87 1.48-3.18 7.91-7.25 8.75-4.06.85-7.09 8.99-11.75 7.25 8.83 3.98 16.41-5.62 23-10-.29 1.55-2.1 4.24-3 5 .11 1.68 2.96 2.32 3 4 3.17.03 4.26-3.91 7-5-.97-2.62-2.95-5.91-6-4 3.65-4.28 8.3-8.7 7-15-4.67 2.02-8.16 6-12 9"/><path fill="#6ab4d5" d="M399 459c4.66 1.74 7.69-6.4 11.75-7.25 4.07-.84 6.38-7.27 7.25-8.75-2.45 1.92-9.04 5.87-10.92 8.08-1.88 2.22-10.16 5.84-8.08 7.92"/><path fill="#318cb9" d="M429 458c6.33-.1 9.15 10.63 14 11 3.38-2.83 7.91-4.65 11-8-.93 5.08-7.54 6.07-10 10 1.6 4.11 7.01 7.65 8.3 11.7 1.29 4.04 9.02 8.01 8.7 12.3 5.22-2.44 8.97-7.14 14-10-12.66-14.59-24.43-43.53-46-27"/><path fill="#1a466d" d="M358 454c-7.07-2.37-13.01 7.47-5.67 11.67s13.04-9.2 5.67-11.67m-2 1c5.46.62 4.52 10.66-1.7 9.64-6.21-1.01-3.3-10.2 1.7-9.64"/><path fill="#65b2d5" d="M422 458c-.04-1.68-2.89-2.32-3-4-4.5 1.31-11.98 6.45-6 11 3.96-1 6.09-4.61 9-7"/><path fill="#378cb7" d="M356 455c-5-.56-7.91 8.63-1.7 9.64 6.22 1.02 7.16-9.02 1.7-9.64"/><path fill="#60b3d7" d="M461 495c.32-4.29-7.41-8.26-8.7-12.3-1.29-4.05-6.7-7.59-8.3-11.7a343 343 0 0 1-24 18c6.44-8.06 16.37-12.33 23-20-4.85-.37-7.67-11.1-14-11-5.57 3.34-13.71 8.23-17.22 13.78-3.51 5.54-.71 19.98 6.22 18.22-3.34 8.53 5.6 9.94 9.25 18.75 3.64 8.82 10.8 5.51 16.67.17S455.04 500 461 495m-24 6c-3.93 1.75-11.72-7.1-8.22-10.22S438.8 497.52 437 501"/><path fill="#386a8e" d="M443 469c-6.63 7.67-16.56 11.94-23 20 7.99-5.45 16.32-11.69 24-18 2.46-3.93 9.07-4.92 10-10-3.09 3.35-7.62 5.17-11 8"/><path fill="#35688d" d="M262 462c-4.34 3.61-9.52 6.43-13 11 4.64-2.51 10.74-6.14 13-11"/><path fill="#60b3d7" d="M319 502c2.77 1.66 13.92-6.46 14-10-5.24-10.34-11.18-14.63-19.3-23.7-8.12-9.06-20.48-.4-19.7 11.7 11.1 2.33 20 12.11 25 22"/><path fill="#318cb9" d="M335 491c1.02 3.83 4.46 6.92 5 11 12.9-8.07 24.26-18.6 37-27-.06-4.11-2.27-7.73-4-11-4.21-1.26-9.13 7.69-12.92 9.08s-8.56 8.23-12.38 9.62c-3.83 1.39-8.64 9.14-12.7 8.3"/><path fill="#18446c" d="M342 466c-8.05-2.9-12.74 9.55-4.67 12.67S349.26 468.62 342 466m-1 2c5.56 1.49 2.71 11.12-3 9-5.72-2.13-2.72-10.54 3-9"/><path fill="#398eba" d="M341 468c-5.72-1.54-8.72 6.87-3 9 5.71 2.12 8.56-7.51 3-9"/><path fill="#34698e" d="M215 471c-2.84 2.69-7.71 4.48-9 8 3.18-2.14 8.1-3.94 9-8"/><path fill="#398db8" d="M378 477c-7.04 3.87-14.81 9.27-20.75 14.25-5.94 4.97-16.77 9.54-14.25 17.75 6.25-4.79 13.88-9 19.75-14.25 5.87-5.24 15.87-9.08 15.25-17.75"/><path fill="#388eb9" d="M316 515c6.13-3.6-.26-14.78-4.25-19.75-3.99-4.98-11-12.66-17.75-12.25 6.91 10.64 18.09 19.55 22 32"/><path fill="#368cb8" d="M293 486c-9.65-1.5-1.28 13.57 4.08 15.92 5.37 2.35 5.66 14.87 12.84 16.14 7.18 1.28 1.22-13.82-3.17-16.81-4.38-3-8.44-14.43-13.75-15.25"/><path fill="#338db9" d="M463 496c-.12 1.27.66 2.73 2 3 4.06-2.52 7.41-6.66 12-8-3.58 3.2-7.23 6.91-11 10-.14 2.35 4.6 5.68 4.77 8.23s1.83 8.01 1.23 9.77c16.13-5.03 15.48-23.2 4-33-4.46 3.04-8.98 6.53-13 10"/><path fill="#18456c" d="M437 501c1.8-3.48-4.72-13.34-8.22-10.22s4.29 11.97 8.22 10.22m-2-1c-2.51-1.52-4.33-4.28-5-7 2.25 1.72 5.55 3.71 5 7"/><path fill="#338cb9" d="M319 502c4.65 9.19 5.93 19.1 17.3 12.3 11.38-6.79.94-15.93-3.3-22.3-.08 3.54-11.23 11.66-14 10"/><path fill="#4b8db2" d="M435 500c.55-3.29-2.75-5.28-5-7 .67 2.72 2.49 5.48 5 7"/><path fill="#64b4d7" d="M465 499c-1.34-.27-2.12-1.73-2-3-4.39 4.37-10.93 7.51-15.25 11.75-4.31 4.24-13.53 6.97-11.75 13.25 9.84-6.99 19.63-14.53 29-22"/><path fill="#e0e5eb01" d="M299 517c5.95-4.43-1.92-6.6-3.75-12.25s-10.37-6.11-6 0c4.36 6.11 5.35 6.81 9.75 12.25"/><path fill="#60b2d7" d="M472 519c.6-1.76-1.06-7.22-1.23-9.77s-4.91-5.88-4.77-8.23c-10 5.22-18.05 14.33-28 20 7.51 18.99 23.91 5.89 34-2"/><path fill="#e0e5eb01" d="M285 504c-14.02 6.4 9.32 10.95 0 0m-7 6c-5.35-1.92-8.06 8.96-3.08 8.92 4.97-.05 6.83-6.41 3.08-8.92"/><path fill="#418db5" d="M291 511c-8.16 4.06-17.55 10.69-23 18 8.33-3.55 18.7-10.4 23-18"/><path fill="#e0e5eb01" d="M294 515c-2.65-1.28-6.71 5.41-3.7 6.64 3.02 1.24 6.37-5.34 3.7-6.64m-24 1c-4.84-1.39-4.51 5.39-.7 6.64 3.82 1.26 3.87-5.73.7-6.64"/><path fill="#3e90ba" d="M483 516c-7.45 5-8.16 6.07-15.92 12.08-7.75 6.02 1.65 7.42 6.17 1.17 4.53-6.24 13.62-5.73 9.75-13.25"/><path fill="#328cb9" d="M275 545c5.81 5.26 10.11 13.89 17.75 6.75 7.65-7.13 9.5-8.38 18-14 8.5-5.61 4.24-10.74-2.52-16.98s-13.33 4.09-18.53 7.93c-5.21 3.83-16.37 8.01-14.7 15.3-6.6-4.62-11.97 6.47-18 9 4.07 5.5 7.87 12.89 14 16 3.59-3.89 8.39-7.56 13-10-.83-5.54-6.69-8.9-9-14m23-6c-4.16-.68-5.07-5.99-7-9 3.93 1.84 4.1 6.26 7 9"/><path fill="#e0e5eb01" d="M288 525c.43-4.04-6.42-5.23-7.64-.7-1.23 4.54 5.51 3.17 7.64.7m-10 2c-2.97-.99-4.98 3.99-1.68 5.66s5.18-4.49 1.68-5.66"/><path fill="#366c91" d="M298 539c-2.9-2.74-3.07-7.16-7-9 1.93 3.01 2.84 8.32 7 9"/><path fill="#318cb9" d="M319 533c-5.01 3.59-9.57 8.38-15 11-.3 3.42 3.82 4.86 4 8-2.42-1.15-3.98-3.65-5-6-5.89 2.76-9.97 8.41-16 11 2.83 6.33 7.53 12.36 13 17 4.45-4.01 9.75-7.76 15-11-.28-2.98-4.18-2.97-4-6 6.34 8.32 15.81-3.42 20-9-4.86-4.11-7.81-10.11-12-15"/><path fill="#318cb8" d="M325 575c6.5 5.18 6.65-.78 13.25-3.75 6.6-2.98 4.68-7.63.67-12.17s-6.88-10.41-11.67-4.83-9.44 4.53-9.25 10.75c-6.86-1.57-11.51 7.85-18 10 4.46 5.23 7.18 11.88 13 16 3.47-5.22 18.76-9.43 12-16"/><path fill="#328cb9" d="M286 559c-5.79 2.84-10.04 8.71-16 11 4.2 5.87 8.91 13.29 14.08 17.92 5.18 4.63 6.99 15.49 13.92 15.08 2.07 13.12 17.81 22.09 23 35 5.83-2.8 12.92-7.21 16-13-5.08-1.56-6.47-12.3-11.3-13.64-4.84-1.34-9.91 8.98-14.7 9.64 6.17-8.39 15.85-8.35 7.77-18.77s-10.01-6.65-19.77.77c2.07-4.34 7.85-7.52 12-10-3.19-5.94-8.2-11.18-12-17-4.13 3.75-9.08 7.68-14 11 2.12-5.68 10.56-7.34 13-13-5.06-3.97-8.36-9.79-12-15"/><path fill="#318cb9" d="M357 584c-3.37-3.23-6.42-13.9-11.3-15.64-4.89-1.75-10.84 10.12-15.7 10.64 1.24 2.91 4.44 4.87 5 8-2.95-1.37-4.17-4.57-6-7-5.25 4.14-10.26 8.56-16 12 4.01 5.35 7.97 10.62 12 16 4.79-4.47 20.07-9.33 13-16 2.28.5 3.63 2.97 6 3 3.33-4.72 8.88-6.97 13-11"/><path fill="#318bb8" d="M370 602c-2.12-6.35-7.09-13.7-13-17-2.67 6.09-16.22 8.14-12 15-3.85-4.41-14.4 5.29-16.74 8.25-2.34 2.97 5.98 14.91 10.04 16.39 4.07 1.48 12.44-10.27 15.95-12.25 3.5-1.97 11.43-7.36 15.75-10.39"/></svg>