<svg xmlns="http://www.w3.org/2000/svg" width="360" height="360" viewBox="0 0 360 360"><path fill="none" fill-opacity="0" stroke="none" stroke-opacity="0" stroke-width=".3" d="M0 360h360V0H0zM276 74c.5.02 1.5 0 2 0 21.42 0 51.69 6.74 61.92 28.08 10.24 21.33-7.85 46.85-21.92 61.92-24.48 26.22-51.25 41.54-83 54-17.58 6.9-35.79 15.37-55 18-1.84.61-1.97 2.75-4 1-.31.24-1 0-1 0-2.53 2.58-12.16 2.91-16 2-10.21 1.08-21.47 2.65-31.68-.66s-21.14-3.98-28.22-13.44-.27-23.37 6.9-30.9c2.59-2.73 4.65-5.58 7-8 2.8-2.89 5.83-4.87 9-7 4.86-4.03 10.46-6.14 16-9 5.74-2.97 10.81-5.21 17-7-.51-1.22 3.36-2.67 3-4-6.96.96-13.29 4.09-20 6-3.46 1.6-7.46 4.05-11 6-2.34 1.29-4.83 2.5-7 4-1.38.95-2.55 2.24-4 3-.39.21-1 0-1 0-6.21 6.48-16.28 12.05-21 20-7.25 12.22-9.06 27.59 4.08 35.92 13.15 8.33 25.95 8.65 40.92 11.08 7.32.12 4.99-.56 0-2 5.75-2.28 13.49-.37 20-1 30.04-1.15 63.6-10.31 90-24 .85-.44 1.97-1.46 3-2 4.94-2.56 10.32-4.33 15-7 2.36-1.34 5.64-2.6 8-4 18.13-10.76 33.73-24.75 47.92-40.08C337.1 149.59 351.75 128.69 346 107c9.05 1.42 4.26 17.9 1.68 25.68-2.59 7.78-7.66 17.4-12.93 24.07s-9.92 13.73-16.5 19.5-13.31 11.49-20.33 16.67c-7.03 5.17-14.47 10.58-21.92 15.08 2.4 1.67 10.48-5.01 13.7-7.3 3.21-2.3 11.18-7.06 14.3-9.7.99-.83 2-2.15 3-3 14.08-11.88 29.04-24.76 38-39 1.19-1.9 2-4.01 3-6 1.32-2.64 2.31-7.09 5-8-.33 3.09-1.27 6.66-3 9-.7 1.98-1.2 3.96-2 6-12.11 30.86-36.97 51.38-62.23 69.77S227.74 253.37 196 263c-22.33 6.78-46.58 12.79-70 15-4.84.46-8 1.78-13 1-1.72.01-3.57.15-6 0-1.81.09-5.24.1-7 0-1.67.1-2.28.1-4 0-8.61 1.11-19.62-1.86-28-4-3.78-.97-7.44-1.08-11-3-.42-.02-2.32.95-2 1 8.13 4.67 19.04 9.3 28 11 3.35.64 6.8-.21 10 1-1.78 4.84-8.98.08-13 1-24.39-2.8-57.95-10.26-63-39-.57-3.24-.34-4.83 0-8-1.67-14.09 13.54-30.93 23-42 24.44-28.61 55.09-47.37 89-61 2.12-.85 3.86-1.32 6-2 1.23-.55 2.53-1.45 4-2 17.16-6.41 33.57-10.77 52-13 2.69-.33 6.73-.68 10-1 5.03-.49 11.04-.47 16 0h7c1.33 0 2.67.02 4 0 1.67-.03 3.33.02 5 0-6.24-7.56-17.95-3.85-28.01-4.01-10.06-.15-24.75 2.13-34.66 4.34-9.91 2.2-19.93 5.28-29.4 8.6-9.47 3.31-19.07 6.72-28 11-8.94 4.27-16.21 9.6-24.93 14.07-35.36 23.53-79.1 57.59-76 104-10.6-35.49 18.98-63.69 45-86 .04-.02-2.93 1.23-4 2-15.09 10.85-31.41 25.73-40 42-1.06 2-2.18 5.1-3 7-.7 1.61.11 5.45-3 5-.09-2.45-.23-5.61 2-7-.27-3.01 1.16-4.72 2-7 11.16-30.23 37.41-54.31 64-72 8.42-5.6 17.4-10.78 26-16 32-19.4 65.65-30.21 102-38 11.66-2.5 24.34-5 37-5h7c20.03 0 39.57.84 58 7-8.18-6.84-19.28-8.65-29-12-.5.04-1.5.02-2 0-1-.05-2 .04-3 0-.67-2.69 3.88-4.3 5-2"/><path fill="none" fill-opacity="0" stroke="#414973" stroke-opacity=".11" stroke-width=".3" d="M274 76c-.53-.24-1.72-1.33-2-2h4c-1.12-2.3-5.67-.69-5 2 1 .04 2-.05 3 0Z"/><path fill="none" fill-opacity="0" stroke="#243155" stroke-opacity=".61" stroke-width=".3" d="M274 76c.5.02 1.5.04 2 0 2.43-.2.76-1.34 2-2-.5 0-1.5.02-2 0h-4c.28.67 1.47 1.76 2 2Z"/><path fill="none" fill-opacity="0" stroke="#26365b" stroke-opacity=".91" stroke-width=".3" d="M276 76c9.72 3.35 20.82 5.16 29 12-18.43-6.16-37.97-7-58-7 .07.01 0 1 0 1 3.38.17 5.84 2.19 5 6 5.53 2.23 14.74-.18 20.02 1.98 5.29 2.15 16.04-.78 14.98 6.02 4.36-4.89 19.95-1.22 17 9-1.95-.11-4.77 2.12-3 4 .8 0 2.25.26 3 0 .38-.13 1.58-2.11 3-2-2.8-2.71.44-6.9 1-10 .83 3.9 3.17 7.17 1 10 3.11-.24 4.25 3.31 8 2 1.96.29 4.03-.22 6 0-.77 2.71-3.89 1.86-6 2-1.31.05-3.78.45-5 0 .93-.39-3.21 4.38-3 4 1.88 2.99 2.86-1.45 5-1 3.95 3.28 7.81 7.74 12 11 1.32-9.68-2.01-18.47-7-26 23.78 22.67-3.19 54.58-23 71-2.23 2.23-4.96 6.6-7 8-.17 1.47 1.32 4.73 3 5 8.75-6.06 17.71-12.39 26-19 14.07-15.07 32.16-40.59 21.92-61.92C329.69 80.74 299.42 74 278 74c-1.24.66.43 1.8-2 2m36 17c-3.88-1.22-4.4-2.83-6-6 2.67.41 5.67 3.28 6 6m3 8c-5.89 1.05-.01-5.89 0 0Z"/><path fill="none" fill-opacity="0" stroke="#3a5078" stroke-opacity=".97" stroke-width=".3" d="M203 86c1.87 1.14.61 4.12 1 6 9.3-1.45 18.92-1.61 28-4 1.2 3.4 1.99 6.87 4 10 20.59-1.4 41.81.63 57 14-.23-.16 0-1 0-1 .46-3.16 5.3-2 8-2-1.77-1.88 1.05-4.11 3-4 2.95-10.22-12.64-13.89-17-9 1.06-6.8-9.69-3.87-14.98-6.02-5.28-2.16-14.49.25-20.02-1.98.84-3.81-1.62-5.83-5-6-2.59.48-5.21-.83-7-1-12.66 0-25.34 2.5-37 5Z"/><path fill="none" fill-opacity="0" stroke="#485171" stroke-opacity=".31" stroke-width=".3" d="M247 82s.07-.99 0-1h-7c1.79.17 4.41 1.48 7 1Z"/><path fill="none" fill-opacity="0" stroke="#5f6383" stroke-opacity=".9" stroke-width=".3" d="M101 124c-.24.43.66 3.27-1 5 21.03-11.59 42.2-20.17 65-27 9.25-2.77 12.93-1.72 22.08-6.92 9.14-5.2 12.91 7.56 16.92 8.92 2.42.18 5.58-3.68 9.02-2.02 3.45 1.66 7.29-2.2 11-1.96 3.71.25 8.14-1.76 11.98-2.02-2.01-3.13-2.8-6.6-4-10-9.08 2.39-18.7 2.55-28 4-.39-1.88.87-4.86-1-6-36.35 7.79-70 18.6-102 38Z"/><path fill="none" fill-opacity="0" stroke="#253357" stroke-opacity=".6" stroke-width=".3" d="M312 93c-.33-2.72-3.33-5.59-6-6 1.6 3.17 2.12 4.78 6 6Z"/><path fill="none" fill-opacity="0" stroke="#84727d" stroke-width=".3" d="M165 102c-11.83 5.53-25.03 10.77-37 16 .16 2.18 2.2 5.66 1 8 24.05-9.67 51.43-16 78-16 1.47-.17 3.9-.94 6-1 2.04-.76 3.75-2.18 3-5-3.38 0-8.83 1.07-12 0-4.01-1.36-7.78-14.12-16.92-8.92-9.15 5.2-12.83 4.15-22.08 6.92Z"/><path fill="none" fill-opacity="0" stroke="#969cb4" stroke-width=".3" d="M307 107c3.18.24 3.62 3.49 5 4 1.22.45 3.69.05 5 0 .25-.28.11-1.97 0-2-3.75 1.31-4.89-2.24-8-2 2.17-2.83-.17-6.1-1-10-.56 3.1-3.8 7.29-1 10Z"/><path fill="none" fill-opacity="0" stroke="#6e7695" stroke-width=".3" d="M204 104c3.17 1.07 8.62 0 12 0 11.11 0 22.23-.19 33 1-1.09-.97-.95-2.69-1-4 6.91 2.59 19.79-2.93 25.67 2.33 5.89 5.25 10.23 6.25 17.08 8.92 6.85 2.68 6.23 16.45 5.25 22.75s-6.51 13.98-12 17c-5.12-5.18.95-17.02-4.77-23.23S267.37 119.93 260 117c-1.38-.47-2.59-.61-4-1 19.5 9.86 25.61 29.88 12 48 .14-1.2 1.27 4.54 1 4 .09.17 1.98 2 2 2 3.73-3.18 7.21-6.99 11-10 3.72 4.82-3.19 7.95-4 12 .87.95 2.68.54 3 2 12.94-12.94 22.05-24.71 21-44-.41-7.62-3.33-13.01-9-18-15.19-13.37-36.41-15.4-57-14-3.84.26-8.27 2.27-11.98 2.02-3.71-.24-7.55 3.62-11 1.96-3.44-1.66-6.6 2.2-9.02 2.02Z"/><path fill="none" fill-opacity="0" stroke="#bcc1d0" stroke-width=".3" d="M315 101c-.01-5.89-5.89 1.05 0 0Z"/><path fill="none" fill-opacity="0" stroke="#3e5279" stroke-width=".3" d="M309 115c-1.65 3.05-1.15 8.76-2 12-.72 2.72-.12 5.52-4 6-.11-1 .47-2.73-1-3 1.05 19.29-8.06 31.06-21 44-7.73 7.73-15.31 15.17-25 20-.33.17-.97.65-1 1-.05.5 0 1 0 1 7.63-4.43 15.63-8.16 23-13 1.13-1.03 2.7-2.02 4-3 4.4-3.33 10.46-7.9 14-10 19.81-16.42 46.78-48.33 23-71 4.99 7.53 8.32 16.32 7 26-4.19-3.26-8.05-7.72-12-11-2.14-.45-3.12 3.99-5 1Z"/><path fill="none" fill-opacity="0" stroke="#3f557f" stroke-width=".3" d="M249 105c4.28.47 7.91-.33 12 1-3.19 2.05-2.39 7.8-1 11 7.37 2.93 13.51 5.56 19.23 11.77s-.35 18.05 4.77 23.23c5.49-3.02 11.02-10.7 12-17s1.6-20.07-5.25-22.75c-6.85-2.67-11.19-3.67-17.08-8.92-5.88-5.26-18.76.26-25.67-2.33.05 1.31-.09 3.03 1 4m36 25c1.03 6.35-6.44-.92 0 0Z"/><path fill="none" fill-opacity="0" stroke="#807f9b" stroke-width=".3" d="M100 129c-8.78 4.84-16.91 9.99-25 16-7.6 5.65-16.66 11.61-22 19 6.11-3.33 10.74-9.32 17-12 7.61-5.83 15.91-10.94 24-16 10.75-6.72 22.19-12.84 34-18 11.97-5.23 25.17-10.47 37-16-22.8 6.83-43.97 15.41-65 27Z"/><path fill="none" fill-opacity="0" stroke="#616585" stroke-width=".3" d="M213 109c2.82-.08 5.93.8 8 1 12.73 0 23.26 2.72 35 6 1.41.39 2.62.53 4 1-1.39-3.2-2.19-8.95 1-11-4.09-1.33-7.72-.53-12-1-10.77-1.19-21.89-1-33-1 .75 2.82-.96 4.24-3 5Z"/><path fill="none" fill-opacity="0" stroke="#7896d0" stroke-opacity=".52" stroke-width=".3" d="M275 205c.02-.05 2.89 1.03 0 3 .26-.25 1 0 1 0 7.45-4.5 14.89-9.91 21.92-15.08 7.02-5.18 13.75-10.9 20.33-16.67s11.23-12.83 16.5-19.5 10.34-16.29 12.93-24.07c2.58-7.78 7.37-24.26-1.68-25.68 5.75 21.69-8.9 42.59-23.08 57.92-14.19 15.33-29.79 29.32-47.92 40.08Z"/><path fill="none" fill-opacity="0" stroke="#eae2dc" stroke-width=".3" d="M304 109c-.73 1.6-.56 1.35 0 3 1.71 5.02 3.92 8.27 3 15 .85-3.24.35-8.95 2-12-.21.38 3.93-4.39 3-4-1.38-.51-1.82-3.76-5-4-1.42-.11-2.62 1.87-3 2Z"/><path fill="none" fill-opacity="0" stroke="#9597ae" stroke-width=".3" d="M207 110h14c-2.07-.2-5.18-1.08-8-1-2.1.06-4.53.83-6 1Z"/><path fill="none" fill-opacity="0" stroke="#8a8083" stroke-width=".3" d="M293 111c3.22-.29 8.26-.75 11 1-.56-1.65-.73-1.4 0-3-.75.26-2.2 0-3 0-2.7 0-7.54-1.16-8 2Z"/><path fill="none" fill-opacity="0" stroke="#68635f" stroke-width=".3" d="M317 111c2.11-.14 5.23.71 6-2-1.97-.22-4.04.29-6 0 .11.03.25 1.72 0 2Z"/><path fill="none" fill-opacity="0" stroke="#c6cce1" stroke-opacity=".83" stroke-width=".3" d="M129 126c-3.83 1.54-6.84 2.69-11 1 .04 8.34-14.11 8.89-20 14-3.51 2.15-6.56 4.82-10 7-.83 1.46.39 3.09 0 4 8.72-4.47 15.99-9.8 24.93-14.07 8.93-4.28 18.53-7.69 28-11 9.47-3.32 19.49-6.4 29.4-8.6 9.91-2.21 24.6-4.49 34.66-4.34 10.06.16 21.77-3.55 28.01 4.01-1.67.02-3.33-.03-5 0 9.73 2.58 17.73 4.59 26.75 11.25S263.02 147.9 258 157c-1.19 2.16-2.51 4.05-4 6-.24.32 0 1 0 1 1.02.31 1.75 1.36 3 1-3.72 8.3-13.4 12.12-20 17-.24.33 0 1 0 1 3.45-2.16 11.73-8.86 12-2 .4-.2 1 0 1 0 5.53-5.77 13.08-10.45 18-17 13.61-18.12 7.5-38.14-12-48-11.74-3.28-22.27-6-35-6h-14c-26.57 0-53.95 6.33-78 16m129 40c11.81-11.31 16.3-35.92-2-45 20.9 6.16 17.11 35.5 2 45Z"/><path fill="none" fill-opacity="0" stroke="#27375b" stroke-width=".3" d="M293 112c5.67 4.99 8.59 10.38 9 18 1.47.27.89 2 1 3 3.88-.48 3.28-3.28 4-6 .92-6.73-1.29-9.98-3-15-2.74-1.75-7.78-1.29-11-1 0 0-.23.84 0 1Z"/><path fill="none" fill-opacity="0" stroke="#9dadd0" stroke-opacity=".15" stroke-width=".3" d="M201 118c4.18.04 10.87 0 16 0-4.96-.47-10.97-.49-16 0Z"/><path fill="none" fill-opacity="0" stroke="#636786" stroke-width=".3" d="M94 136c2.06-.25 4.94 1.76 4 5 5.89-5.11 20.04-5.66 20-14 4.16 1.69 7.17.54 11-1 1.2-2.34-.84-5.82-1-8-11.81 5.16-23.25 11.28-34 18Z"/><path fill="none" fill-opacity="0" stroke="#b4a6b2" stroke-opacity=".98" stroke-width=".3" d="M191 119c1.65.17 3.35-.13 5 0-.23 1.83.07 3.47 1 5 22.02-.84 57.98 4.5 44 35 4.85 2.38 6.34-7.79 12-2-.99 2.58-3.04 4.43-4 7 1.82 2.05 3.37-.19 5-1 1.49-1.95 2.81-3.84 4-6-1.49.52-2.44-1.55-4-1 12.32-21.53-15.11-35.59-33-36 .24-1.67 2.85-.17 3-2h-7c-5.13 0-11.82.04-16 0-3.27.32-7.31.67-10 1Z"/><path fill="none" fill-opacity="0" stroke="#8a88a2" stroke-opacity=".98" stroke-width=".3" d="M258 157c5.02-9.1 5.77-21.09-3.25-27.75S237.73 120.58 228 118c-1.33.02-2.67 0-4 0-.15 1.83-2.76.33-3 2 17.89.41 45.32 14.47 33 36 1.56-.55 2.51 1.52 4 1Z"/><path fill="none" fill-opacity="0" stroke="#dfc4bc" stroke-opacity=".88" stroke-width=".3" d="M139 132c-1.37.71-2.32 1.47-4 2-2.14.68-3.88 1.15-6 2-1.36 1.8-.85 4.1 0 6 22.68-6.53 43.59-17.07 68-18-.93-1.53-1.23-3.17-1-5-1.65-.13-3.35.17-5 0-18.43 2.23-34.84 6.59-52 13Z"/><path fill="none" fill-opacity="0" stroke="#07070c" stroke-opacity=".02" stroke-width=".3" d="M258 166c15.11-9.5 18.9-38.84-2-45 18.3 9.08 13.81 33.69 2 45Z"/><path fill="none" fill-opacity="0" stroke="#3f5179" stroke-opacity=".79" stroke-width=".3" d="M75 140c-.26.38.47 4.25 0 5 8.09-6.01 16.22-11.16 25-16 1.66-1.73.76-4.57 1-5-8.6 5.22-17.58 10.4-26 16Z"/><path fill="none" fill-opacity="0" stroke="#c9a9a2" stroke-width=".3" d="M129 142c.19.42 0 1 0 1 .6.92 1.12 1.84 1 3-9.03 2.2-16.63 8.08-25 12-.78.74-1.46 2.1-2 3 6.27-1.86 11.71-6.05 18-8 1.33-.25 11.86-3.65 14-3-.13-1-1.51-1.77-1-3 2.8-.68 5.98-2.07 8-4-.16 0-.66-.99-1-1-2.57-.07-6.05 2.46-8 0 23.25-7.77 48.03-18.05 73-15 10.14 2.06 25.5 3.26 30 15 1.66 4.34 1.38 10.95-1 15 1.64-.05 2.35 3.01 4 3-3.36 4.81-8.69 8.23-12 13 6.1-2.19 9.8-10.19 15-13-1.67 9.11-12.51 17.42-21 22 3.9-1.61 10.97-3.61 15.25-7.75 4.28-4.15 10.57-7.73 13.75-8.25.94-.69 3.1-.84 4-2 0 0-.24-.68 0-1-1.63.81-3.18 3.05-5 1 .96-2.57 3.01-4.42 4-7-5.66-5.79-7.15 4.38-12 2 13.98-30.5-21.98-35.84-44-35-24.41.93-45.32 11.47-68 18Z"/><path fill="none" fill-opacity="0" stroke="#e8be9d" stroke-width=".3" d="M141 142c17.77-5.17 34.68-10.47 54-12 3.22-.94 7.19-3 11-3-24.97-3.05-49.75 7.23-73 15 1.95 2.46 5.43-.07 8 0Z"/><path fill="none" fill-opacity="0" stroke="#e2c4ba" stroke-width=".3" d="M195 130c6.73-.53 17.78-.3 23.22 2.78 5.45 3.07 14.28 4.32 17.78 9.22-4.5-11.74-19.86-12.94-30-15-3.81 0-7.78 2.06-11 3Z"/><path fill="none" fill-opacity="0" stroke="#f8e8d7" stroke-width=".3" d="M141 142c.34.01.84 1 1 1 12.71-.13 24.43-7.88 37-9 .67 3.68-3.89 2.09-5 4 13.15-1.03 26.1.1 37.74 4.26 11.65 4.15 14.93 16.06 5.26 24.74.59-.26 5.92.62 6-3 2.44 3.21 4.72.84 7-1 1.38-1.86 3.96-4.24 5-6 2.38-4.05 2.66-10.66 1-15-3.5-4.9-12.33-6.15-17.78-9.22-5.44-3.08-16.49-3.31-23.22-2.78-19.32 1.53-36.23 6.83-54 12Z"/><path fill="none" fill-opacity="0" stroke="#c3c7d7" stroke-width=".3" d="M285 130c-6.44-.92 1.03 6.35 0 0Z"/><path fill="none" fill-opacity="0" stroke="#9ba5cf" stroke-opacity=".13" stroke-width=".3" d="M135 134c1.68-.53 2.63-1.29 4-2-1.47.55-2.77 1.45-4 2Z"/><path fill="none" fill-opacity="0" stroke="#f7d4a6" stroke-width=".3" d="M142 143c-2.02 1.93-5.2 3.32-8 4-.51 1.23.87 2 1 3 .2 1.51 2.68 2.14 2 4-1.56-1.85-4.45-.34-4 2 10-4.57 24.08-8.16 35-9 7.92-2.02 14.68-3.58 22.25-3.8 7.56-.22 14.58 1.87 21.5 7.05s4.71 14.04.25 20.75c1.55-1.22 3.72-2.62 5-4 9.67-8.68 6.39-20.59-5.26-24.74-11.64-4.16-24.59-5.29-37.74-4.26 1.11-1.91 5.67-.32 5-4-12.57 1.12-24.29 8.87-37 9Z"/><path fill="none" fill-opacity="0" stroke="#3b4f77" stroke-opacity=".88" stroke-width=".3" d="M94 136c-8.09 5.06-16.39 10.17-24 16 0 1.47 2.73 3.25 4 3-.55 1.46-2.4 2.18-2 4 .3-.21.81-.68 1-1 2.17-3.64 7.38-6.11 11-8 1.26-.66 2.68-1.17 4-2 3.44-2.18 6.49-4.85 10-7 .94-3.24-1.94-5.25-4-5Z"/><path fill="none" fill-opacity="0" stroke="#4b537b" stroke-opacity=".18" stroke-width=".3" d="M348 143c.89-.39 1.73.23 2 1 1.73-2.34 2.67-5.91 3-9-2.69.91-3.68 5.36-5 8Z"/><path fill="none" fill-opacity="0" stroke="#b1bad6" stroke-opacity=".8" stroke-width=".3" d="M40 197c26.16-21.49 56.19-44.56 89-54 0 0 .19-.58 0-1-.85-1.9-1.36-4.2 0-6-33.91 13.63-64.56 32.39-89 61Z"/><path fill="none" fill-opacity="0" stroke="#27375b" stroke-opacity=".8" stroke-width=".3" d="M11 212c.29.78 1.75.8 2 2 8.59-16.27 24.91-31.15 40-42 3.67-3.39 7.73-6.47 11-8 2.49-1.85 5.44-3.2 8-5-.4-1.82 1.45-2.54 2-4-1.27.25-4-1.53-4-3-6.26 2.68-10.89 8.67-17 12 5.34-7.39 14.4-13.35 22-19 .47-.75-.26-4.62 0-5-26.59 17.69-52.84 41.77-64 72Z"/><path fill="none" fill-opacity="0" stroke="#242b4b" stroke-opacity=".94" stroke-width=".3" d="M40 197c-9.46 11.07-24.67 27.91-23 42 .28 2.38.06 5.81 0 8 5.05 28.74 38.61 36.2 63 39 .61-.14 2.44-1.86 3-2-8.96-1.7-19.87-6.33-28-11-2.9-1.67-5.05-2.94-7-6 2.56 1.78 6.67 2.18 9 5 3.56 1.92 7.22 2.03 11 3 3.94-1.3-6.76-9.81-9.25-12.75C56.26 259.3 47.82 252.77 43 252c6.11-4-8.14-8.94-9-15v8c.4 7.31 3.89 12.43 8 18-19.35-13.13-10.97-38.24 1.25-52.75S68.3 182.35 84 172c6.81-4.72 13.71-9.8 21-14 8.37-3.92 15.97-9.8 25-12 .12-1.16-.4-2.08-1-3-32.81 9.44-62.84 32.51-89 54Z"/><path fill="none" fill-opacity="0" stroke="#f4de9a" stroke-width=".3" d="M168 147c-14.41 3.68-34.35 8.82-46 19-.25.22 0 1 0 1 10.24-1.51 22.01-9.67 32-13 1.66-.55 4.05-1.34 6-2 5.57-1.88 9.87-3.85 16.22-4.78 6.35-.92 13.84-1.91 20.78-1.22s8.75 1.77 12.77 8.23-6.4 10.41-7.77 13.77c-.27 1.27.2 2.71 0 4 .12.54 1.81 1.83 1 3 3.78.85 6.29-2.12 9-4 4.46-6.71 6.67-15.57-.25-20.75s-13.94-7.27-21.5-7.05c-7.57.22-14.33 1.78-22.25 3.8Z"/><path fill="none" fill-opacity="0" stroke="#555b7b" stroke-opacity=".44" stroke-width=".3" d="M345 149c.14-.04 2.25.76 3 1 .8-2.04 1.3-4.02 2-6-.27-.77-1.11-1.39-2-1-1 1.99-1.81 4.1-3 6Z"/><path fill="none" fill-opacity="0" stroke="#dfaf8b" stroke-width=".3" d="M133 156c-3.79 3.31-8.71 5.42-13 8-.04-.01.97 1.66 2 2 11.65-10.18 31.59-15.32 46-19-10.92.84-25 4.43-35 9Z"/><path fill="none" fill-opacity="0" stroke="#fdf3d5" stroke-width=".3" d="M160 152c7.67-1.05 12.89-2.18 21-2s11.21.38 19.69 3.31c8.49 2.92 2.44 9.45 1.31 14.69 1.37-3.36 11.79-7.31 7.77-13.77s-5.83-7.54-12.77-8.23-14.43.3-20.78 1.22c-6.35.93-10.65 2.9-16.22 4.78Z"/><path fill="none" fill-opacity="0" stroke="#7a99d1" stroke-opacity=".53" stroke-width=".3" d="M84 150c-3.36 2.2-7.88 5.24-11 8-.19.32-.7.79-1 1-2.56 1.8-5.51 3.15-8 5-2.24 1.66-4.76 4.09-7 6-26.02 22.31-55.6 50.51-45 86-3.1-46.41 40.64-80.47 76-104 .39-.91-.83-2.54 0-4-1.32.83-2.74 1.34-4 2Z"/><path fill="none" fill-opacity="0" stroke="#5b5c79" stroke-opacity=".89" stroke-width=".3" d="M307 188c-.67.86-1.82 2.41-3 3-3.12 2.64-11.09 7.4-14.3 9.7-3.22 2.29-11.3 8.97-13.7 7.3 0 0-.74-.25-1 0-.49.47-1.62 1.55-2 2-1.78 2.11-2.6 4.07-6 5-.46.13-1.62-.22-2 0-4.43 3.57-9.92 6.2-15 9-25.23 13.91-57.76 22.27-86 25-.51-.19.52 4.21 3 5-3.84 2.18-9.62-.43-13 2 7.34 2.51 16.16-.83 24-1-.08 1.26-2.06.56-2 2 2.01-.06 1.85 1.64 3 2 25.44-1.38 51.1-18.36 74.08-27.92 22.97-9.57 42-27.06 60.92-42.08-33.23 34.84-78 57.37-123 70 3.86.13 4.88 1.06 5 4 31.74-9.63 64.51-24.84 89.77-43.23S335.89 180.86 348 150c-.75-.24-2.86-1.04-3-1-8.96 14.24-23.92 27.12-38 39Z"/><path fill="none" fill-opacity="0" stroke="none" stroke-opacity="0" stroke-width=".3" d="M73 158c3.12-2.76 7.64-5.8 11-8-3.62 1.89-8.83 4.36-11 8"/><path fill="none" fill-opacity="0" stroke="#9f97aa" stroke-width=".3" d="M121 153c3.7.5-8.5 6.93-12.08 8.92-3.57 2-11.18 7.51-14.92 10.08-3.13 2.15-6.13 4.55-9 7-2.45 2.45-3.03 5.2-4 7 9.86-9.11 21.45-16.94 33-23-11.19 8.95-24.48 16.46-34 28 1.87-.66 3.74 1.64 6-1 .19-.32.79-.73 1-1 4.41-5.66 16.77-17.32 24-18 1.66-2.62 6.26-5.36 9-7 4.29-2.58 9.21-4.69 13-8-.45-2.34 2.44-3.85 4-2 .68-1.86-1.8-2.49-2-4-2.14-.65-12.67 2.75-14 3Z"/><path fill="none" fill-opacity="0" stroke="#fefefc" stroke-width=".3" d="M160 152c-1.95.66-4.34 1.45-6 2 7.79-1.11 20.9-1.87 28.75-2.6 7.86-.74 22.38 1.64 19.25 12.6-2.01.53-3.28-1.5-5 0-12.75.49-20.64.63-32 6-2.83 21.63 22.43 18.03 36 13 .37-4.1-1.53-7.44 1-11 .2-1.29-.27-2.73 0-4 1.13-5.24 7.18-11.77-1.31-14.69-8.48-2.93-11.58-3.13-19.69-3.31s-13.33.95-21 2Z"/><path fill="none" fill-opacity="0" stroke="#f9edd6" stroke-opacity=".93" stroke-width=".3" d="M154 154c-9.99 3.33-21.76 11.49-32 13-3.56 2.23-6.73 6.32-10 9-.09 1.91 1.49 2.97 3 2 0 0 .61.21 1 0 1.49-2.14 3.16-2.57 4-3 2.17-1.5 4.66-2.71 7-4 3.54-2.43 6.71-4.57 11-6 6.71-1.91 13.04-5.04 20-6 .36 1.33-3.51 2.78-3 4 .72-.21 1.28-.74 2-1 4.25-3.96 7.61-5.95 13.22-6.78s13.55-.11 18-.44c4.46-.34 13.98 5.64 8.78 9.22 1.72-1.5 2.99.53 5 0 3.13-10.96-11.39-13.34-19.25-12.6-7.85.73-20.96 1.49-28.75 2.6Z"/><path fill="none" fill-opacity="0" stroke="#616480" stroke-width=".3" d="M105 158c-7.29 4.2-14.19 9.28-21 14 3.34-1.54 10.37-6.53 15-5-.9 2.37-4.33 2.34-5 5 3.74-2.57 11.35-8.08 14.92-10.08 3.58-1.99 15.78-8.42 12.08-8.92-6.29 1.95-11.73 6.14-18 8 .54-.9 1.22-2.26 2-3Z"/><path fill="none" fill-opacity="0" stroke="#fef9b4" stroke-width=".3" d="M157 162c2.74-1.01 6.37-2.24 9-1-7.85 3.02-16.02 8.64-24 12-2.55 1.92-5.5 7.21-7 10 4.83-5.17 12.8-8.57 19-12-.58 2.95-5.03 3.62-7 6-1.76 1.63-4.75 4.66-5 7 .16-.23 1 0 1 0 4.65-6.65 14.9-10.64 22-14 11.36-5.37 19.25-5.51 32-6 5.2-3.58-4.32-9.56-8.78-9.22-4.45.33-12.39-.39-18 .44s-8.97 2.82-13.22 6.78Z"/><path fill="none" fill-opacity="0" stroke="#f7d399" stroke-width=".3" d="M230 163c-5.84 7.85-15.4 11.49-23 17 3.7 4.55-7.07 6.62 0 9-2.24.99-4.46 2.02-7 2-.21.11.24 1.69 0 2 3.47-.89 6.9-1.99 10-3 1.46-1.19 7.55-5.65 11-8 8.49-4.58 19.33-12.89 21-22-5.2 2.81-8.9 10.81-15 13 3.31-4.77 8.64-8.19 12-13-1.65.01-2.36-3.05-4-3-1.04 1.76-3.62 4.14-5 6Z"/><path fill="none" fill-opacity="0" stroke="#f4cf8f" stroke-opacity=".88" stroke-width=".3" d="M157 162c-.72.26-1.28.79-2 1-6.19 1.79-11.26 4.03-17 7 .02-.12 1.34 3.18 1 3 .89-.23 2.08.07 3 0 7.98-3.36 16.15-8.98 24-12-2.63-1.24-6.26-.01-9 1Z"/><path fill="none" fill-opacity="0" stroke="#9d97ab" stroke-width=".3" d="M271 170c-5.53 4.73-11.43 8.65-17 13-2.24 1.75-5.27 4.26-6 7 4.19-.98 7.37-1.08 8 4 9.69-4.83 17.27-12.27 25-20-.32-1.46-2.13-1.05-3-2 .81-4.05 7.72-7.18 4-12-3.79 3.01-7.27 6.82-11 10Z"/><path fill="none" fill-opacity="0" stroke="#232a4a" stroke-opacity=".07" stroke-width=".3" d="M53 172c1.07-.77 4.04-2.02 4-2 2.24-1.91 4.76-4.34 7-6-3.27 1.53-7.33 4.61-11 8Z"/><path fill="none" fill-opacity="0" stroke="#a8aec6" stroke-width=".3" d="M81 186c-2.35 2.17-7.42 5.52-9 8-.96 1.95-.4 5.16-2 7 3.73-2.72 5.73-7.68 10-10 9.52-11.54 22.81-19.05 34-28-11.55 6.06-23.14 13.89-33 23Z"/><path fill="none" fill-opacity="0" stroke="#fdf3d5" stroke-width=".3" d="M217 167c-1.28 1.38-3.45 2.78-5 4-2.71 1.88-5.22 4.85-9 4 .81-1.17-.88-2.46-1-3-2.53 3.56-.63 6.9-1 11-13.57 5.03-38.83 8.63-36-13-7.1 3.36-17.35 7.35-22 14 3.78-1.65 1.18 1.34 2 2 1.03.83 2.7-1.77 3 2 3.34-4.63 9.65-6.86 14-10-.43 4.16-3.5 7.18-5 11 1.13-1.5 3.66-2.75 5-4-5.1 11.86 7.97 14.4 17 14s21.64-1.42 29.67-4.33S226.57 190 229 183c-6.11 3.09-12.58 4.91-19 7-3.1 1.01-6.53 2.11-10 3-8.96 2.29-31.56 9.72-32-5 10.36 1.93 21 7.14 32 3 2.54.02 4.76-1.01 7-2-7.07-2.38 3.7-4.45 0-9 7.6-5.51 17.16-9.15 23-17-2.28 1.84-4.56 4.21-7 1-.08 3.62-5.41 2.74-6 3Z"/><path fill="none" fill-opacity="0" stroke="#ae9291" stroke-width=".3" d="M111 171c.5-.05 1 0 1 0 3.76-.35 6.07-3.55 10-4 0 0-.25-.78 0-1-1.03-.34-2.04-2.01-2-2-2.74 1.64-7.34 4.38-9 7Z"/><path fill="none" fill-opacity="0" stroke="#e9bf9d" stroke-width=".3" d="M221 182c-3.45 2.35-9.54 6.81-11 8 6.42-2.09 12.89-3.91 19-7 7.97-4.03 13.87-11.76 21-17-3.18.52-9.47 4.1-13.75 8.25-4.28 4.14-11.35 6.14-15.25 7.75Z"/><path fill="none" fill-opacity="0" stroke="#f8e9d8" stroke-opacity=".96" stroke-width=".3" d="M250 166c-7.13 5.24-13.03 12.97-21 17-2.43 7-12.3 8.76-20.33 11.67S188.03 198.6 179 199s-22.1-2.14-17-14c-1.34 1.25-3.87 2.5-5 4-7.44 15.22 20.45 15.53 32 15s29.91-6.37 41-11c.16-.34.7-.79 1-1 5.65-3.98 12.11-8.14 18-11-.27-6.86-8.55-.16-12 2-1.39 1.56-3.85 2.67-6 3 1.09-2.4 4-2.67 6-4 6.6-4.88 16.28-8.7 20-17-1.25.36-1.98-.69-3-1-.9 1.16-3.06 1.31-4 2Z"/><path fill="none" fill-opacity="0" stroke="#a595a0" stroke-width=".3" d="M250 181c.97-.06 1.74 1 2 1 4.24-4.2 14.6-8.52 17-14 .27.54-.86-5.2-1-4-4.92 6.55-12.47 11.23-18 17Z"/><path fill="none" fill-opacity="0" stroke="#b1bad6" stroke-opacity=".79" stroke-width=".3" d="M292 183c-17.95 12.44-37.25 23.08-58 30-.62 1.94 1.2 3.13 1 5 31.75-12.46 58.52-27.78 83-54-8.29 6.61-17.25 12.94-26 19Z"/><path fill="none" fill-opacity="0" stroke="#b9bace" stroke-opacity=".13" stroke-width=".3" d="M127 171c3.54-1.95 7.54-4.4 11-6-4.29 1.43-7.46 3.57-11 6Z"/><path fill="none" fill-opacity="0" stroke="#3a4e76" stroke-width=".3" d="M84 172c-15.7 10.35-28.53 23.74-40.75 38.25S22.65 249.87 42 263c-4.11-5.57-7.6-10.69-8-18-2.71-16.68 7.75-29 17-42 1.74 3.48 7.35 5.49 7 10 3.77-11.18 12.57-19.57 21-28 2-2 3.87-4.18 6-6 2.87-2.45 5.87-4.85 9-7 .67-2.66 4.1-2.63 5-5-4.63-1.53-11.66 3.46-15 5Z"/><path fill="none" fill-opacity="0" stroke="#8f8da6" stroke-width=".3" d="M112 171c-1.72 4.13-5.91 6.3-9.75 9.25-3.84 2.94-6.04 5.98-7.25 9.75 4.74-5.66 11.72-9.66 17-14 3.27-2.68 6.44-6.77 10-9-3.93.45-6.24 3.65-10 4Z"/><path fill="none" fill-opacity="0" stroke="#877681" stroke-width=".3" d="M252 182c-.94.93-2.78 1.44-3 3 2.14.52 2.81-2.57 5-2 5.57-4.35 11.47-8.27 17-13-.02 0-1.91-1.83-2-2-2.4 5.48-12.76 9.8-17 14Z"/><path fill="none" fill-opacity="0" stroke="#656e8d" stroke-width=".3" d="M282 180c1.94-.88 5.14-.72 7-2 2.04-1.4 4.77-5.77 7-8-3.54 2.1-9.6 6.67-14 10Z"/><path fill="none" fill-opacity="0" stroke="#b69a99" stroke-opacity=".89" stroke-width=".3" d="M122 179c-2.82 2.34-6.14 4.65-9 7-2.35 2.42-4.41 5.27-7 8-.34-.07 2.13 2.19 2 2 1.28.24 2.71-.75 3-2 2.2.8 5.27 2.42 3 5 2.5-5.17 9.01-9.38 12-14 .93-3.08 7.84-10.64 13-12 .34.18-.98-3.12-1-3-5.54 2.86-11.14 4.97-16 9Z"/><path fill="none" fill-opacity="0" stroke="#4d618c" stroke-width=".3" d="M87 189c3.89.94-4.93 12.17-7.3 16.7-2.38 4.52-5.89 17.04-1.77 23.37 4.11 6.34 8.63 8.47 15.15 12.85 6.51 4.38 14.73 5.29 21.92 5.08-10.98-3.38-19.14-8.42-26.92-18.08-7.77-9.67-1.66-23.72 3.92-32.92 1.04-1.71 1.6-4.33 3-6 1.21-3.77 3.41-6.81 7.25-9.75 3.84-2.95 8.03-5.12 9.75-9.25 0 0-.5-.05-1 0-7.23.68-19.59 12.34-24 18Z"/><path fill="none" fill-opacity="0" stroke="#f8e7d6" stroke-width=".3" d="M135 183c-1 1.85-1.76 4.12-3 6 6.47-1.82 8.01-10.99 15-12 1.97-2.38 6.42-3.05 7-6-6.2 3.43-14.17 6.83-19 12Z"/><path fill="none" fill-opacity="0" stroke="#e0beae" stroke-width=".3" d="M126 185c-.04.14.27 3.14-2 3-.87 3.62 4.51 1.85 4 5-2.27 2.48-5-4.05-7-1 4.61-.61 4.92 5.41 4 8 1.24-1.59 3.21-2.92 4-5 2.38 1.37-.06 4.07 0 6 1.94.62 3.13-1.2 5-1-.38-6.75 4.46-10.94 8-16 .25-2.34 3.24-5.37 5-7-6.99 1.01-8.53 10.18-15 12 1.24-1.88 2-4.15 3-6 1.5-2.79 4.45-8.08 7-10-.92.07-2.11-.23-3 0-5.16 1.36-12.07 8.92-13 12Z"/><path fill="none" fill-opacity="0" stroke="#cacad4" stroke-opacity=".23" stroke-width=".3" d="M116 178c1.45-.76 2.62-2.05 4-3-.84.43-2.51.86-4 3Z"/><path fill="none" fill-opacity="0" stroke="#cad0e4" stroke-opacity=".81" stroke-width=".3" d="M95 190c-1.4 1.67-1.96 4.29-3 6 .2 1.08 1.8 1.44 2 2 4.72-7.95 14.79-13.52 21-20-1.51.97-3.09-.09-3-2-5.28 4.34-12.26 8.34-17 14Z"/><path fill="none" fill-opacity="0" stroke="#f9d8a9" stroke-width=".3" d="M148 188c-5.1 7.07-1.53 14.48 5 18 23.83 12.86 52.04-1.29 74-9 1.51-1.08 2.28-2.5 3-4-11.09 4.63-29.45 10.47-41 11s-39.44.22-32-15c1.5-3.82 4.57-6.84 5-11-4.35 3.14-10.66 5.37-14 10Z"/><path fill="none" fill-opacity="0" stroke="#86747f" stroke-width=".3" d="M282 180c-1.3.98-2.87 1.97-4 3-12.68 11.59-30.92 20.14-47 26-14.96 5.45-30.26 8.13-46 11 16.14.14 33.23-1.74 49-7 20.75-6.92 40.05-17.56 58-30-1.68-.27-3.17-3.53-3-5-1.86 1.28-5.06 1.12-7 2Z"/><path fill="none" fill-opacity="0" stroke="#767f9d" stroke-width=".3" d="M79 185c-.03.06.11 4.32-2.25 4.75-2.35.43-3.84 2.41-4.75 4.25 1.58-2.48 6.65-5.83 9-8 .97-1.8 1.55-4.55 4-7-2.13 1.82-4 4-6 6Z"/><path fill="none" fill-opacity="0" stroke="#6570b2" stroke-opacity=".07" stroke-width=".3" d="M113 186c2.86-2.35 6.18-4.66 9-7-3.17 2.13-6.2 4.11-9 7Z"/><path fill="none" fill-opacity="0" stroke="#c9aaa4" stroke-width=".3" d="M231 192c3.18 4.16 11.13-4.84 16-6-.15 2.84-4.27 3.05-6 5-3.73 3.66-6.64 7.38-12 10 .6 2.67 1.41 5.29 2 8 16.08-5.86 34.32-14.41 47-26-7.37 4.84-15.37 8.57-23 13-1.26 1.4-3.27 2.09-5 3-.18-2.59 3.36-2.73 5-4 .03-.35.67-.83 1-1-.63-5.08-3.81-4.98-8-4 .73-2.74 3.76-5.25 6-7-2.19-.57-2.86 2.52-5 2 .22-1.56 2.06-2.07 3-3-.26 0-1.03-1.06-2-1 0 0-.6-.2-1 0-5.89 2.86-12.35 7.02-18 11Z"/><path fill="none" fill-opacity="0" stroke="#e8dad1" stroke-opacity=".36" stroke-width=".3" d="M237 183s-.24-.67 0-1c-2 1.33-4.91 1.6-6 4 2.15-.33 4.61-1.44 6-3Z"/><path fill="none" fill-opacity="0" stroke="#f7e7d6" stroke-width=".3" d="M143 184s-.84-.23-1 0c-3.54 5.06-8.38 9.25-8 16 .64 11.3 19.32 14.53 28 15 22.76 1.23 47.31-4.37 67-14 5.36-2.62 8.27-6.34 12-10-4.56 2.62-9.19 4.31-14 6-21.96 7.71-50.17 21.86-74 9-4.93-.82-9.55.38-12.92-6.08-3.36-6.46 2.84-9.15 4.92-13.92-.82-.66 1.78-3.65-2-2Z"/><path fill="none" fill-opacity="0" stroke="#506793" stroke-width=".3" d="M58 213c-2.75 8.15-1.06 17.09 2.31 24.69 3.36 7.6 10.59 8.64 16.38 13.62 5.8 4.97 19.35.63 24.31 5.69-2.73-4.31 3.71-4.28 1 0 3.09-1.77 7.48-1 11-1 2.52 0 6.3.78 8-1-16.96-4.61-43.26-.8-54.25-17.75C55.75 220.3 73.81 200.2 86 190c-2.26 2.64-4.13.34-6 1-4.27 2.32-6.27 7.28-10 10 1.6-1.84 1.04-5.05 2-7 .91-1.84 2.4-3.82 4.75-4.25 2.36-.43 2.22-4.69 2.25-4.75-8.43 8.43-17.23 16.82-21 28m5-3c1.03 6.35-6.44-.92 0 0Z"/><path fill="none" fill-opacity="0" stroke="#c6b7bd" stroke-width=".3" d="M114 199c-.31 4.28-1.95 9.35-1 14-.53-4.84 2.41-18.54 8-21 2-3.05 4.73 3.48 7 1 .51-3.15-4.87-1.38-4-5 2.27.14 1.96-2.86 2-3-2.99 4.62-9.5 8.83-12 14Z"/><path fill="none" fill-opacity="0" stroke="#fefdfa" stroke-width=".3" d="M145 186c-2.08 4.77-8.28 7.46-4.92 13.92 3.37 6.46 7.99 5.26 12.92 6.08-6.53-3.52-10.1-10.93-5-18-.3-3.77-1.97-1.17-3-2Z"/><path fill="none" fill-opacity="0" stroke="#e2b594" stroke-width=".3" d="M231 192c-.3.21-.84.66-1 1-.72 1.5-1.49 2.92-3 4 4.81-1.69 9.44-3.38 14-6 1.73-1.95 5.85-2.16 6-5-4.87 1.16-12.82 10.16-16 6Z"/><path fill="none" fill-opacity="0" stroke="#fefab7" stroke-width=".3" d="M200 193c.24-.31-.21-1.89 0-2-11 4.14-21.64-1.07-32-3 .44 14.72 23.04 7.29 32 5Z"/><path fill="none" fill-opacity="0" stroke="#505675" stroke-opacity=".41" stroke-width=".3" d="M304 191c1.18-.59 2.33-2.14 3-3-1 .85-2.01 2.17-3 3Z"/><path fill="none" fill-opacity="0" stroke="#334870" stroke-width=".3" d="M86 190c-12.19 10.2-30.25 30.3-19.25 47.25C77.74 254.2 104.04 250.39 121 255c-1.7 1.78-5.48 1-8 1 1.45.2 2.86 2.91 5 1 .66 5.05 6.85 5.92 8 10 4.12.57 15.76 1.44 14-4 10.12 5.47 22.79-2.03 34-2 1.92-1.16-1.32-3.24 1-4 .06-.16 1 0 1 0-.06-1.44 1.92-.74 2-2-7.84.17-16.66 3.51-24 1 3.38-2.43 9.16.18 13-2-2.48-.79-3.51-5.19-3-5-2.61.25-5.38 0-8 0-7.24.7-15.81.87-23 0-6.16-.12-11.99-2.17-18-2-7.19.21-15.41-.7-21.92-5.08-6.52-4.38-11.04-6.51-15.15-12.85-4.12-6.33-.61-18.85 1.77-23.37 2.37-4.53 11.19-15.76 7.3-16.7-.21.27-.81.68-1 1Z"/><path fill="none" fill-opacity="0" stroke="#6a7392" stroke-width=".3" d="M179 259c-2.01.11-3.91 1.67-4-2-2.32.76.92 2.84-1 4-11.21-.03-23.88 7.47-34 2 1.76 5.44-9.88 4.57-14 4-2.56-.36-2.71-1.24-5-2-2.97 5.44-14.61 2.96-21.67 2.67S83.28 265.37 76 265c13.48 5.81 29.76 4.67 45 5 23.02-.46 48.32-4.42 70-11 45-12.63 89.77-35.16 123-70-18.92 15.02-37.95 32.51-60.92 42.08-22.98 9.56-48.64 26.54-74.08 27.92Z"/><path fill="none" fill-opacity="0" stroke="#a099ac" stroke-width=".3" d="M113 213c1.39 6.81 7.51 9.29 12 10-2.79-2.46-1.86-6.85-2-9-.36-5.72-1.76-9.19 2-14 .92-2.59.61-8.61-4-8-5.59 2.46-8.53 16.16-8 21Z"/><path fill="none" fill-opacity="0" stroke="#4d5e8b" stroke-opacity=".8" stroke-width=".3" d="M159 239c-2.05-.49-4.93.59-4-3-9.29.47-19.95-1.13-28.22-3.78s-14.75-4.28-20.53-11.47c-5.79-7.19-.05-18.47 1.75-24.75.13.19-2.34-2.07-2-2-7.17 7.53-13.98 21.44-6.9 30.9s18.01 10.13 28.22 13.44 21.47 1.74 31.68.66Z"/><path fill="none" fill-opacity="0" stroke="#84829e" stroke-opacity=".98" stroke-width=".3" d="M108 196c-1.8 6.28-7.54 17.56-1.75 24.75 5.78 7.19 12.26 8.82 20.53 11.47s18.93 4.25 28.22 3.78c-.93 3.59 1.95 2.51 4 3 3.84.91 13.47.58 16-2-4.37-3.23-12.69.35-18-1 .85-3.76-4.53-6.54-2-10-3.57-1-7.32-1.3-11-2-6.4.11-12.33.06-19-1-4.49-.71-10.61-3.19-12-10-.95-4.65.69-9.72 1-14 2.27-2.58-.8-4.2-3-5-.29 1.25-1.72 2.24-3 2Z"/><path fill="none" fill-opacity="0" stroke="#c5bbc6" stroke-width=".3" d="M125 200c-3.76 4.81-2.36 8.28-2 14 1.57 2.76 11.52 8.03 14 9 .34-.12-.22-1.76 1-2-2.56-2.39-5.36-5.62-6-9 9.11 4.18.44-9.82-3-11-.06-1.93 2.38-4.63 0-6-.79 2.08-2.76 3.41-4 5Z"/><path fill="none" fill-opacity="0" stroke="#79758b" stroke-width=".3" d="M255 196s-.05-.5 0-1c-1.64 1.27-5.18 1.41-5 4 1.73-.91 3.74-1.6 5-3Z"/><path fill="none" fill-opacity="0" stroke="#a6bde0" stroke-opacity=".81" stroke-width=".3" d="M115 247c6.01-.17 11.84 1.88 18 2 5.99.12 12 0 18 0-.48-.63.39-2.29 0-3-4.19.12-8.54-.44-12-1-14.97-2.43-27.77-2.75-40.92-11.08-13.14-8.33-11.33-23.7-4.08-35.92-.2-.56-1.8-.92-2-2-5.58 9.2-11.69 23.25-3.92 32.92 7.78 9.66 15.94 14.7 26.92 18.08Z"/><path fill="none" fill-opacity="0" stroke="#c4a8a6" stroke-opacity=".96" stroke-width=".3" d="M129 201c3.44 1.18 12.11 15.18 3 11 .64 3.38 3.44 6.61 6 9 .54.51 1.38.67 2 1 1.3.69 2.61 1.53 4 2 3.68.7 7.43 1 11 2-2.53 3.46 2.85 6.24 2 10 5.31 1.35 13.63-2.23 18 1 0 0 .69.24 1 0 1.61-1.24 2.99-.86 4-1 19.21-2.63 37.42-11.1 55-18 .2-1.87-1.62-3.06-1-5-15.77 5.26-32.86 7.14-49 7-7.42 1.35-15.55 1.45-23 0v-5c-8.68-.47-27.36-3.7-28-15-1.87-.2-3.06 1.62-5 1Z"/><path fill="none" fill-opacity="0" stroke="#e8be9c" stroke-width=".3" d="M162 215v5c7.45 1.45 15.58 1.35 23 0 15.74-2.87 31.04-5.55 46-11-.59-2.71-1.4-5.33-2-8-19.69 9.63-44.24 15.23-67 14Z"/><path fill="none" fill-opacity="0" stroke="#2a3a5e" stroke-opacity=".98" stroke-width=".3" d="M34 245v-8c.86 6.06 15.11 11 9 15 4.82.77 13.26 7.3 15.75 10.25C61.24 265.19 71.94 273.7 68 275c8.38 2.14 19.39 5.11 28 4 5.5-.71 11.17-.91 17 0 5 .78 8.16-.54 13-1 2.04-1.36 1.48-1.69 1-4-2.87 2.11-4-3.05-6-4-15.24-.33-31.52.81-45-5 7.28.37 16.27 2.38 23.33 2.67s18.7 2.77 21.67-2.67c2.29.76 2.44 1.64 5 2-1.15-4.08-7.34-4.95-8-10-2.14 1.91-3.55-.8-5-1-3.52 0-7.91-.77-11 1-.38.22-1 0-1 0-4.96-5.06-18.51-.72-24.31-5.69-5.79-4.98-13.02-6.02-16.38-13.62-3.37-7.6-5.06-16.54-2.31-24.69.35-4.51-5.26-6.52-7-10-9.25 13-19.71 25.32-17 42Z"/><path fill="none" fill-opacity="0" stroke="#aabee0" stroke-opacity=".77" stroke-width=".3" d="M267 209c-1.24 1.48-11.83 14.36-15 7-1.03.54-2.15 1.56-3 2-.65 1.26.86 4.6 1 6 5.08-2.8 10.57-5.43 15-9 2.53-2.03 6.3-4.16 8-5 .38-.45 1.51-1.53 2-2 2.89-1.97.02-3.05 0-3-2.36 1.4-5.64 2.66-8 4Z"/><path fill="none" fill-opacity="0" stroke="#adb8d9" stroke-opacity=".62" stroke-width=".3" d="M252 216c3.17 7.36 13.76-5.52 15-7-4.68 2.67-10.06 4.44-15 7Z"/><path fill="none" fill-opacity="0" stroke="#b7bfd8" stroke-opacity=".26" stroke-width=".3" d="M265 215c.38-.22 1.54.13 2 0 1.99-1.21 3.64-3.99 6-5-1.7.84-5.47 2.97-8 5Z"/><path fill="none" fill-opacity="0" stroke="#c2c8d9" stroke-width=".3" d="M63 210c-6.44-.92 1.03 6.35 0 0Z"/><path fill="none" fill-opacity="0" stroke="#3c436a" stroke-opacity=".11" stroke-width=".3" d="M267 215c3.4-.93 4.22-2.89 6-5-2.36 1.01-4.01 3.79-6 5Z"/><path fill="none" fill-opacity="0" stroke="#2c3a60" stroke-opacity=".47" stroke-width=".3" d="M9 219c.11 1.18.85 1.35 1 2 .82-1.9 1.94-5 3-7-.25-1.2-1.71-1.22-2-2-.84 2.28-2.27 3.99-2 7Z"/><path fill="none" fill-opacity="0" stroke="#a6acc4" stroke-width=".3" d="M125 223c6.67 1.06 12.6 1.11 19 1-1.39-.47-2.7-1.31-4-2-1.59.03-.65 1.92-3 1-2.48-.97-12.43-6.24-14-9 .14 2.15-.79 6.54 2 9Z"/><path fill="none" fill-opacity="0" stroke="#c0c8de" stroke-opacity=".68" stroke-width=".3" d="M159 242c-.39.11-2.93 1.28-3 2 2.42-.77 5.52.58 8 0-1.45 1.96-4.8.56-7 1-1.53.21-3.85.94-6 1 .39.71-.48 2.37 0 3h5c2.62 0 5.39.25 8 0 28.24-2.73 60.77-11.09 86-25-.14-1.4-1.65-4.74-1-6-26.4 13.69-59.96 22.85-90 24m75-15c-1.5 2.42-4.85 1.49-7 3 .13-2.88 4.61-2.9 7-3Z"/><path fill="none" fill-opacity="0" stroke="#3c4675" stroke-opacity=".13" stroke-width=".3" d="M10 221c-.15-.65-.89-.82-1-2-2.23 1.39-2.09 4.55-2 7 3.11.45 2.3-3.39 3-5Z"/><path fill="none" fill-opacity="0" stroke="#f9f8f6" stroke-width=".3" d="M137 223c2.35.92 1.41-.97 3-1-.62-.33-1.46-.49-2-1-1.22.24-.66 1.88-1 2Z"/><path fill="none" fill-opacity="0" stroke="#c1c9de" stroke-opacity=".25" stroke-width=".3" d="M234 227c-2.39.1-6.87.12-7 3 2.15-1.51 5.5-.58 7-3Z"/><path fill="none" fill-opacity="0" stroke="#555c90" stroke-opacity=".15" stroke-width=".3" d="M176 237c2.03 1.75 2.16-.39 4-1-1.01.14-2.39-.24-4 1Z"/><path fill="none" fill-opacity="0" stroke="#2e4064" stroke-opacity=".44" stroke-width=".3" d="M17 247c.06-2.19.28-5.62 0-8-.34 3.17-.57 4.76 0 8Z"/><path fill="none" fill-opacity="0" stroke="#bbc4da" stroke-opacity=".26" stroke-width=".3" d="M139 245c3.46.56 7.81 1.12 12 1 2.15-.06 4.47-.79 6-1-.35-.07-1.03-.69-1-1 .07-.72 2.61-1.89 3-2-6.51.63-14.25-1.28-20 1 4.99 1.44 7.32 2.12 0 2Z"/><path fill="none" fill-opacity="0" stroke="none" stroke-opacity="0" stroke-width=".3" d="M157 245c2.2-.44 5.55.96 7-1-2.48.58-5.58-.77-8 0-.03.31.65.93 1 1"/><path fill="none" fill-opacity="0" stroke="#5c698c" stroke-width=".3" d="M156 249h-5c-6 0-12.01.12-18 0 7.19.87 15.76.7 23 0Z"/><path fill="none" fill-opacity="0" stroke="#cdd1e0" stroke-width=".3" d="M101 257s.62.22 1 0c2.71-4.28-3.73-4.31-1 0Z"/><path fill="none" fill-opacity="0" stroke="#dbdce4" stroke-width=".3" d="M179 259c-1.15-.36-.99-2.06-3-2 0 0-.94-.16-1 0 .09 3.67 1.99 2.11 4 2Z"/><path fill="none" fill-opacity="0" stroke="#3a4c73" stroke-opacity=".88" stroke-width=".3" d="M121 270c2 .95 3.13 6.11 6 4 .48 2.31 1.04 2.64-1 4 23.42-2.21 47.67-8.22 70-15-.12-2.94-1.14-3.87-5-4-21.68 6.58-46.98 10.54-70 11Z"/><path fill="none" fill-opacity="0" stroke="#2a3756" stroke-opacity=".28" stroke-width=".3" d="M55 273c-.32-.05 1.58-1.02 2-1-2.33-2.82-6.44-3.22-9-5 1.95 3.06 4.1 4.33 7 6Z"/><path fill="none" fill-opacity="0" stroke="#2f3968" stroke-opacity=".46" stroke-width=".3" d="M96 279c1.72.1 2.33.1 4 0 2.27-.13 4.73-.14 7 0 2.43.15 4.28.01 6 0-5.83-.91-11.5-.71-17 0Z"/><path fill="none" fill-opacity="0" stroke="#55a" stroke-opacity=".01" stroke-width=".3" d="M107 279c-2.27-.14-4.73-.13-7 0 1.76.1 5.19.09 7 0Z"/><path fill="none" fill-opacity="0" stroke="#334068" stroke-opacity=".27" stroke-width=".3" d="M80 286c4.02-.92 11.22 3.84 13-1-3.2-1.21-6.65-.36-10-1-.56.14-2.39 1.86-3 2Z"/><path fill="none" fill-opacity="0" d="M0 360h360V0H0zM276 74c.5.02 1.5 0 2 0 21.42 0 51.69 6.74 61.92 28.08 10.24 21.33-7.85 46.85-21.92 61.92-24.48 26.22-51.25 41.54-83 54-17.58 6.9-35.79 15.37-55 18-1.84.61-1.97 2.75-4 1-.31.24-1 0-1 0-2.53 2.58-12.16 2.91-16 2-10.21 1.08-21.47 2.65-31.68-.66s-21.14-3.98-28.22-13.44-.27-23.37 6.9-30.9c2.59-2.73 4.65-5.58 7-8 2.8-2.89 5.83-4.87 9-7 4.86-4.03 10.46-6.14 16-9 5.74-2.97 10.81-5.21 17-7-.51-1.22 3.36-2.67 3-4-6.96.96-13.29 4.09-20 6-3.46 1.6-7.46 4.05-11 6-2.34 1.29-4.83 2.5-7 4-1.38.95-2.55 2.24-4 3-.39.21-1 0-1 0-6.21 6.48-16.28 12.05-21 20-7.25 12.22-9.06 27.59 4.08 35.92 13.15 8.33 25.95 8.65 40.92 11.08 7.32.12 4.99-.56 0-2 5.75-2.28 13.49-.37 20-1 30.04-1.15 63.6-10.31 90-24 .85-.44 1.97-1.46 3-2 4.94-2.56 10.32-4.33 15-7 2.36-1.34 5.64-2.6 8-4 18.13-10.76 33.73-24.75 47.92-40.08C337.1 149.59 351.75 128.69 346 107c9.05 1.42 4.26 17.9 1.68 25.68-2.59 7.78-7.66 17.4-12.93 24.07s-9.92 13.73-16.5 19.5-13.31 11.49-20.33 16.67c-7.03 5.17-14.47 10.58-21.92 15.08 2.4 1.67 10.48-5.01 13.7-7.3 3.21-2.3 11.18-7.06 14.3-9.7.99-.83 2-2.15 3-3 14.08-11.88 29.04-24.76 38-39 1.19-1.9 2-4.01 3-6 1.32-2.64 2.31-7.09 5-8-.33 3.09-1.27 6.66-3 9-.7 1.98-1.2 3.96-2 6-12.11 30.86-36.97 51.38-62.23 69.77S227.74 253.37 196 263c-22.33 6.78-46.58 12.79-70 15-4.84.46-8 1.78-13 1-1.72.01-3.57.15-6 0-1.81.09-5.24.1-7 0-1.67.1-2.28.1-4 0-8.61 1.11-19.62-1.86-28-4-3.78-.97-7.44-1.08-11-3-.42-.02-2.32.95-2 1 8.13 4.67 19.04 9.3 28 11 3.35.64 6.8-.21 10 1-1.78 4.84-8.98.08-13 1-24.39-2.8-57.95-10.26-63-39-.57-3.24-.34-4.83 0-8-1.67-14.09 13.54-30.93 23-42 24.44-28.61 55.09-47.37 89-61 2.12-.85 3.86-1.32 6-2 1.23-.55 2.53-1.45 4-2 17.16-6.41 33.57-10.77 52-13 2.69-.33 6.73-.68 10-1 5.03-.49 11.04-.47 16 0h7c1.33 0 2.67.02 4 0 1.67-.03 3.33.02 5 0-6.24-7.56-17.95-3.85-28.01-4.01-10.06-.15-24.75 2.13-34.66 4.34-9.91 2.2-19.93 5.28-29.4 8.6-9.47 3.31-19.07 6.72-28 11-8.94 4.27-16.21 9.6-24.93 14.07-35.36 23.53-79.1 57.59-76 104-10.6-35.49 18.98-63.69 45-86 .04-.02-2.93 1.23-4 2-15.09 10.85-31.41 25.73-40 42-1.06 2-2.18 5.1-3 7-.7 1.61.11 5.45-3 5-.09-2.45-.23-5.61 2-7-.27-3.01 1.16-4.72 2-7 11.16-30.23 37.41-54.31 64-72 8.42-5.6 17.4-10.78 26-16 32-19.4 65.65-30.21 102-38 11.66-2.5 24.34-5 37-5h7c20.03 0 39.57.84 58 7-8.18-6.84-19.28-8.65-29-12-.5.04-1.5.02-2 0-1-.05-2 .04-3 0-.67-2.69 3.88-4.3 5-2"/><path fill="#414973" fill-opacity=".11" d="M274 76c-.53-.24-1.72-1.33-2-2h4c-1.12-2.3-5.67-.69-5 2 1 .04 2-.05 3 0"/><path fill="#243155" fill-opacity=".61" d="M274 76c.5.02 1.5.04 2 0 2.43-.2.76-1.34 2-2-.5 0-1.5.02-2 0h-4c.28.67 1.47 1.76 2 2"/><path fill="#26365b" fill-opacity=".91" d="M276 76c9.72 3.35 20.82 5.16 29 12-18.43-6.16-37.97-7-58-7 .07.01 0 1 0 1 3.38.17 5.84 2.19 5 6 5.53 2.23 14.74-.18 20.02 1.98 5.29 2.15 16.04-.78 14.98 6.02 4.36-4.89 19.95-1.22 17 9-1.95-.11-4.77 2.12-3 4 .8 0 2.25.26 3 0 .38-.13 1.58-2.11 3-2-2.8-2.71.44-6.9 1-10 .83 3.9 3.17 7.17 1 10 3.11-.24 4.25 3.31 8 2 1.96.29 4.03-.22 6 0-.77 2.71-3.89 1.86-6 2-1.31.05-3.78.45-5 0 .93-.39-3.21 4.38-3 4 1.88 2.99 2.86-1.45 5-1 3.95 3.28 7.81 7.74 12 11 1.32-9.68-2.01-18.47-7-26 23.78 22.67-3.19 54.58-23 71-2.23 2.23-4.96 6.6-7 8-.17 1.47 1.32 4.73 3 5 8.75-6.06 17.71-12.39 26-19 14.07-15.07 32.16-40.59 21.92-61.92C329.69 80.74 299.42 74 278 74c-1.24.66.43 1.8-2 2m36 17c-3.88-1.22-4.4-2.83-6-6 2.67.41 5.67 3.28 6 6m3 8c-5.89 1.05-.01-5.89 0 0"/><path fill="#3a5078" fill-opacity=".97" d="M203 86c1.87 1.14.61 4.12 1 6 9.3-1.45 18.92-1.61 28-4 1.2 3.4 1.99 6.87 4 10 20.59-1.4 41.81.63 57 14-.23-.16 0-1 0-1 .46-3.16 5.3-2 8-2-1.77-1.88 1.05-4.11 3-4 2.95-10.22-12.64-13.89-17-9 1.06-6.8-9.69-3.87-14.98-6.02-5.28-2.16-14.49.25-20.02-1.98.84-3.81-1.62-5.83-5-6-2.59.48-5.21-.83-7-1-12.66 0-25.34 2.5-37 5"/><path fill="#485171" fill-opacity=".31" d="M247 82s.07-.99 0-1h-7c1.79.17 4.41 1.48 7 1"/><path fill="#5f6383" fill-opacity=".9" d="M101 124c-.24.43.66 3.27-1 5 21.03-11.59 42.2-20.17 65-27 9.25-2.77 12.93-1.72 22.08-6.92 9.14-5.2 12.91 7.56 16.92 8.92 2.42.18 5.58-3.68 9.02-2.02 3.45 1.66 7.29-2.2 11-1.96 3.71.25 8.14-1.76 11.98-2.02-2.01-3.13-2.8-6.6-4-10-9.08 2.39-18.7 2.55-28 4-.39-1.88.87-4.86-1-6-36.35 7.79-70 18.6-102 38"/><path fill="#253357" fill-opacity=".6" d="M312 93c-.33-2.72-3.33-5.59-6-6 1.6 3.17 2.12 4.78 6 6"/><path fill="#84727d" d="M165 102c-11.83 5.53-25.03 10.77-37 16 .16 2.18 2.2 5.66 1 8 24.05-9.67 51.43-16 78-16 1.47-.17 3.9-.94 6-1 2.04-.76 3.75-2.18 3-5-3.38 0-8.83 1.07-12 0-4.01-1.36-7.78-14.12-16.92-8.92-9.15 5.2-12.83 4.15-22.08 6.92"/><path fill="#969cb4" d="M307 107c3.18.24 3.62 3.49 5 4 1.22.45 3.69.05 5 0 .25-.28.11-1.97 0-2-3.75 1.31-4.89-2.24-8-2 2.17-2.83-.17-6.1-1-10-.56 3.1-3.8 7.29-1 10"/><path fill="#6e7695" d="M204 104c3.17 1.07 8.62 0 12 0 11.11 0 22.23-.19 33 1-1.09-.97-.95-2.69-1-4 6.91 2.59 19.79-2.93 25.67 2.33 5.89 5.25 10.23 6.25 17.08 8.92 6.85 2.68 6.23 16.45 5.25 22.75s-6.51 13.98-12 17c-5.12-5.18.95-17.02-4.77-23.23S267.37 119.93 260 117c-1.38-.47-2.59-.61-4-1 19.5 9.86 25.61 29.88 12 48 .14-1.2 1.27 4.54 1 4 .09.17 1.98 2 2 2 3.73-3.18 7.21-6.99 11-10 3.72 4.82-3.19 7.95-4 12 .87.95 2.68.54 3 2 12.94-12.94 22.05-24.71 21-44-.41-7.62-3.33-13.01-9-18-15.19-13.37-36.41-15.4-57-14-3.84.26-8.27 2.27-11.98 2.02-3.71-.24-7.55 3.62-11 1.96-3.44-1.66-6.6 2.2-9.02 2.02"/><path fill="#bcc1d0" d="M315 101c-.01-5.89-5.89 1.05 0 0"/><path fill="#3e5279" d="M309 115c-1.65 3.05-1.15 8.76-2 12-.72 2.72-.12 5.52-4 6-.11-1 .47-2.73-1-3 1.05 19.29-8.06 31.06-21 44-7.73 7.73-15.31 15.17-25 20-.33.17-.97.65-1 1-.05.5 0 1 0 1 7.63-4.43 15.63-8.16 23-13 1.13-1.03 2.7-2.02 4-3 4.4-3.33 10.46-7.9 14-10 19.81-16.42 46.78-48.33 23-71 4.99 7.53 8.32 16.32 7 26-4.19-3.26-8.05-7.72-12-11-2.14-.45-3.12 3.99-5 1"/><path fill="#3f557f" d="M249 105c4.28.47 7.91-.33 12 1-3.19 2.05-2.39 7.8-1 11 7.37 2.93 13.51 5.56 19.23 11.77s-.35 18.05 4.77 23.23c5.49-3.02 11.02-10.7 12-17s1.6-20.07-5.25-22.75c-6.85-2.67-11.19-3.67-17.08-8.92-5.88-5.26-18.76.26-25.67-2.33.05 1.31-.09 3.03 1 4m36 25c1.03 6.35-6.44-.92 0 0"/><path fill="#807f9b" d="M100 129c-8.78 4.84-16.91 9.99-25 16-7.6 5.65-16.66 11.61-22 19 6.11-3.33 10.74-9.32 17-12 7.61-5.83 15.91-10.94 24-16 10.75-6.72 22.19-12.84 34-18 11.97-5.23 25.17-10.47 37-16-22.8 6.83-43.97 15.41-65 27"/><path fill="#616585" d="M213 109c2.82-.08 5.93.8 8 1 12.73 0 23.26 2.72 35 6 1.41.39 2.62.53 4 1-1.39-3.2-2.19-8.95 1-11-4.09-1.33-7.72-.53-12-1-10.77-1.19-21.89-1-33-1 .75 2.82-.96 4.24-3 5"/><path fill="#7896d0" fill-opacity=".52" d="M275 205c.02-.05 2.89 1.03 0 3 .26-.25 1 0 1 0 7.45-4.5 14.89-9.91 21.92-15.08 7.02-5.18 13.75-10.9 20.33-16.67s11.23-12.83 16.5-19.5 10.34-16.29 12.93-24.07c2.58-7.78 7.37-24.26-1.68-25.68 5.75 21.69-8.9 42.59-23.08 57.92-14.19 15.33-29.79 29.32-47.92 40.08"/><path fill="#eae2dc" d="M304 109c-.73 1.6-.56 1.35 0 3 1.71 5.02 3.92 8.27 3 15 .85-3.24.35-8.95 2-12-.21.38 3.93-4.39 3-4-1.38-.51-1.82-3.76-5-4-1.42-.11-2.62 1.87-3 2"/><path fill="#9597ae" d="M207 110h14c-2.07-.2-5.18-1.08-8-1-2.1.06-4.53.83-6 1"/><path fill="#8a8083" d="M293 111c3.22-.29 8.26-.75 11 1-.56-1.65-.73-1.4 0-3-.75.26-2.2 0-3 0-2.7 0-7.54-1.16-8 2"/><path fill="#68635f" d="M317 111c2.11-.14 5.23.71 6-2-1.97-.22-4.04.29-6 0 .11.03.25 1.72 0 2"/><path fill="#c6cce1" fill-opacity=".83" d="M129 126c-3.83 1.54-6.84 2.69-11 1 .04 8.34-14.11 8.89-20 14-3.51 2.15-6.56 4.82-10 7-.83 1.46.39 3.09 0 4 8.72-4.47 15.99-9.8 24.93-14.07 8.93-4.28 18.53-7.69 28-11 9.47-3.32 19.49-6.4 29.4-8.6 9.91-2.21 24.6-4.49 34.66-4.34 10.06.16 21.77-3.55 28.01 4.01-1.67.02-3.33-.03-5 0 9.73 2.58 17.73 4.59 26.75 11.25S263.02 147.9 258 157c-1.19 2.16-2.51 4.05-4 6-.24.32 0 1 0 1 1.02.31 1.75 1.36 3 1-3.72 8.3-13.4 12.12-20 17-.24.33 0 1 0 1 3.45-2.16 11.73-8.86 12-2 .4-.2 1 0 1 0 5.53-5.77 13.08-10.45 18-17 13.61-18.12 7.5-38.14-12-48-11.74-3.28-22.27-6-35-6h-14c-26.57 0-53.95 6.33-78 16m129 40c11.81-11.31 16.3-35.92-2-45 20.9 6.16 17.11 35.5 2 45"/><path fill="#27375b" d="M293 112c5.67 4.99 8.59 10.38 9 18 1.47.27.89 2 1 3 3.88-.48 3.28-3.28 4-6 .92-6.73-1.29-9.98-3-15-2.74-1.75-7.78-1.29-11-1 0 0-.23.84 0 1"/><path fill="#9dadd0" fill-opacity=".15" d="M201 118c4.18.04 10.87 0 16 0-4.96-.47-10.97-.49-16 0"/><path fill="#636786" d="M94 136c2.06-.25 4.94 1.76 4 5 5.89-5.11 20.04-5.66 20-14 4.16 1.69 7.17.54 11-1 1.2-2.34-.84-5.82-1-8-11.81 5.16-23.25 11.28-34 18"/><path fill="#b4a6b2" fill-opacity=".98" d="M191 119c1.65.17 3.35-.13 5 0-.23 1.83.07 3.47 1 5 22.02-.84 57.98 4.5 44 35 4.85 2.38 6.34-7.79 12-2-.99 2.58-3.04 4.43-4 7 1.82 2.05 3.37-.19 5-1 1.49-1.95 2.81-3.84 4-6-1.49.52-2.44-1.55-4-1 12.32-21.53-15.11-35.59-33-36 .24-1.67 2.85-.17 3-2h-7c-5.13 0-11.82.04-16 0-3.27.32-7.31.67-10 1"/><path fill="#8a88a2" fill-opacity=".98" d="M258 157c5.02-9.1 5.77-21.09-3.25-27.75S237.73 120.58 228 118c-1.33.02-2.67 0-4 0-.15 1.83-2.76.33-3 2 17.89.41 45.32 14.47 33 36 1.56-.55 2.51 1.52 4 1"/><path fill="#dfc4bc" fill-opacity=".88" d="M139 132c-1.37.71-2.32 1.47-4 2-2.14.68-3.88 1.15-6 2-1.36 1.8-.85 4.1 0 6 22.68-6.53 43.59-17.07 68-18-.93-1.53-1.23-3.17-1-5-1.65-.13-3.35.17-5 0-18.43 2.23-34.84 6.59-52 13"/><path fill="#07070c" fill-opacity=".02" d="M258 166c15.11-9.5 18.9-38.84-2-45 18.3 9.08 13.81 33.69 2 45"/><path fill="#3f5179" fill-opacity=".79" d="M75 140c-.26.38.47 4.25 0 5 8.09-6.01 16.22-11.16 25-16 1.66-1.73.76-4.57 1-5-8.6 5.22-17.58 10.4-26 16"/><path fill="#c9a9a2" d="M129 142c.19.42 0 1 0 1 .6.92 1.12 1.84 1 3-9.03 2.2-16.63 8.08-25 12-.78.74-1.46 2.1-2 3 6.27-1.86 11.71-6.05 18-8 1.33-.25 11.86-3.65 14-3-.13-1-1.51-1.77-1-3 2.8-.68 5.98-2.07 8-4-.16 0-.66-.99-1-1-2.57-.07-6.05 2.46-8 0 23.25-7.77 48.03-18.05 73-15 10.14 2.06 25.5 3.26 30 15 1.66 4.34 1.38 10.95-1 15 1.64-.05 2.35 3.01 4 3-3.36 4.81-8.69 8.23-12 13 6.1-2.19 9.8-10.19 15-13-1.67 9.11-12.51 17.42-21 22 3.9-1.61 10.97-3.61 15.25-7.75 4.28-4.15 10.57-7.73 13.75-8.25.94-.69 3.1-.84 4-2 0 0-.24-.68 0-1-1.63.81-3.18 3.05-5 1 .96-2.57 3.01-4.42 4-7-5.66-5.79-7.15 4.38-12 2 13.98-30.5-21.98-35.84-44-35-24.41.93-45.32 11.47-68 18"/><path fill="#e8be9d" d="M141 142c17.77-5.17 34.68-10.47 54-12 3.22-.94 7.19-3 11-3-24.97-3.05-49.75 7.23-73 15 1.95 2.46 5.43-.07 8 0"/><path fill="#e2c4ba" d="M195 130c6.73-.53 17.78-.3 23.22 2.78 5.45 3.07 14.28 4.32 17.78 9.22-4.5-11.74-19.86-12.94-30-15-3.81 0-7.78 2.06-11 3"/><path fill="#f8e8d7" d="M141 142c.34.01.84 1 1 1 12.71-.13 24.43-7.88 37-9 .67 3.68-3.89 2.09-5 4 13.15-1.03 26.1.1 37.74 4.26 11.65 4.15 14.93 16.06 5.26 24.74.59-.26 5.92.62 6-3 2.44 3.21 4.72.84 7-1 1.38-1.86 3.96-4.24 5-6 2.38-4.05 2.66-10.66 1-15-3.5-4.9-12.33-6.15-17.78-9.22-5.44-3.08-16.49-3.31-23.22-2.78-19.32 1.53-36.23 6.83-54 12"/><path fill="#c3c7d7" d="M285 130c-6.44-.92 1.03 6.35 0 0"/><path fill="#9ba5cf" fill-opacity=".13" d="M135 134c1.68-.53 2.63-1.29 4-2-1.47.55-2.77 1.45-4 2"/><path fill="#f7d4a6" d="M142 143c-2.02 1.93-5.2 3.32-8 4-.51 1.23.87 2 1 3 .2 1.51 2.68 2.14 2 4-1.56-1.85-4.45-.34-4 2 10-4.57 24.08-8.16 35-9 7.92-2.02 14.68-3.58 22.25-3.8 7.56-.22 14.58 1.87 21.5 7.05s4.71 14.04.25 20.75c1.55-1.22 3.72-2.62 5-4 9.67-8.68 6.39-20.59-5.26-24.74-11.64-4.16-24.59-5.29-37.74-4.26 1.11-1.91 5.67-.32 5-4-12.57 1.12-24.29 8.87-37 9"/><path fill="#3b4f77" fill-opacity=".88" d="M94 136c-8.09 5.06-16.39 10.17-24 16 0 1.47 2.73 3.25 4 3-.55 1.46-2.4 2.18-2 4 .3-.21.81-.68 1-1 2.17-3.64 7.38-6.11 11-8 1.26-.66 2.68-1.17 4-2 3.44-2.18 6.49-4.85 10-7 .94-3.24-1.94-5.25-4-5"/><path fill="#4b537b" fill-opacity=".18" d="M348 143c.89-.39 1.73.23 2 1 1.73-2.34 2.67-5.91 3-9-2.69.91-3.68 5.36-5 8"/><path fill="#b1bad6" fill-opacity=".8" d="M40 197c26.16-21.49 56.19-44.56 89-54 0 0 .19-.58 0-1-.85-1.9-1.36-4.2 0-6-33.91 13.63-64.56 32.39-89 61"/><path fill="#27375b" fill-opacity=".8" d="M11 212c.29.78 1.75.8 2 2 8.59-16.27 24.91-31.15 40-42 3.67-3.39 7.73-6.47 11-8 2.49-1.85 5.44-3.2 8-5-.4-1.82 1.45-2.54 2-4-1.27.25-4-1.53-4-3-6.26 2.68-10.89 8.67-17 12 5.34-7.39 14.4-13.35 22-19 .47-.75-.26-4.62 0-5-26.59 17.69-52.84 41.77-64 72"/><path fill="#242b4b" fill-opacity=".94" d="M40 197c-9.46 11.07-24.67 27.91-23 42 .28 2.38.06 5.81 0 8 5.05 28.74 38.61 36.2 63 39 .61-.14 2.44-1.86 3-2-8.96-1.7-19.87-6.33-28-11-2.9-1.67-5.05-2.94-7-6 2.56 1.78 6.67 2.18 9 5 3.56 1.92 7.22 2.03 11 3 3.94-1.3-6.76-9.81-9.25-12.75C56.26 259.3 47.82 252.77 43 252c6.11-4-8.14-8.94-9-15v8c.4 7.31 3.89 12.43 8 18-19.35-13.13-10.97-38.24 1.25-52.75S68.3 182.35 84 172c6.81-4.72 13.71-9.8 21-14 8.37-3.92 15.97-9.8 25-12 .12-1.16-.4-2.08-1-3-32.81 9.44-62.84 32.51-89 54"/><path fill="#f4de9a" d="M168 147c-14.41 3.68-34.35 8.82-46 19-.25.22 0 1 0 1 10.24-1.51 22.01-9.67 32-13 1.66-.55 4.05-1.34 6-2 5.57-1.88 9.87-3.85 16.22-4.78 6.35-.92 13.84-1.91 20.78-1.22s8.75 1.77 12.77 8.23-6.4 10.41-7.77 13.77c-.27 1.27.2 2.71 0 4 .12.54 1.81 1.83 1 3 3.78.85 6.29-2.12 9-4 4.46-6.71 6.67-15.57-.25-20.75s-13.94-7.27-21.5-7.05c-7.57.22-14.33 1.78-22.25 3.8"/><path fill="#555b7b" fill-opacity=".44" d="M345 149c.14-.04 2.25.76 3 1 .8-2.04 1.3-4.02 2-6-.27-.77-1.11-1.39-2-1-1 1.99-1.81 4.1-3 6"/><path fill="#dfaf8b" d="M133 156c-3.79 3.31-8.71 5.42-13 8-.04-.01.97 1.66 2 2 11.65-10.18 31.59-15.32 46-19-10.92.84-25 4.43-35 9"/><path fill="#fdf3d5" d="M160 152c7.67-1.05 12.89-2.18 21-2s11.21.38 19.69 3.31c8.49 2.92 2.44 9.45 1.31 14.69 1.37-3.36 11.79-7.31 7.77-13.77s-5.83-7.54-12.77-8.23-14.43.3-20.78 1.22c-6.35.93-10.65 2.9-16.22 4.78"/><path fill="#7a99d1" fill-opacity=".53" d="M84 150c-3.36 2.2-7.88 5.24-11 8-.19.32-.7.79-1 1-2.56 1.8-5.51 3.15-8 5-2.24 1.66-4.76 4.09-7 6-26.02 22.31-55.6 50.51-45 86-3.1-46.41 40.64-80.47 76-104 .39-.91-.83-2.54 0-4-1.32.83-2.74 1.34-4 2"/><path fill="#5b5c79" fill-opacity=".89" d="M307 188c-.67.86-1.82 2.41-3 3-3.12 2.64-11.09 7.4-14.3 9.7-3.22 2.29-11.3 8.97-13.7 7.3 0 0-.74-.25-1 0-.49.47-1.62 1.55-2 2-1.78 2.11-2.6 4.07-6 5-.46.13-1.62-.22-2 0-4.43 3.57-9.92 6.2-15 9-25.23 13.91-57.76 22.27-86 25-.51-.19.52 4.21 3 5-3.84 2.18-9.62-.43-13 2 7.34 2.51 16.16-.83 24-1-.08 1.26-2.06.56-2 2 2.01-.06 1.85 1.64 3 2 25.44-1.38 51.1-18.36 74.08-27.92 22.97-9.57 42-27.06 60.92-42.08-33.23 34.84-78 57.37-123 70 3.86.13 4.88 1.06 5 4 31.74-9.63 64.51-24.84 89.77-43.23S335.89 180.86 348 150c-.75-.24-2.86-1.04-3-1-8.96 14.24-23.92 27.12-38 39"/><path fill="none" fill-opacity="0" d="M73 158c3.12-2.76 7.64-5.8 11-8-3.62 1.89-8.83 4.36-11 8"/><path fill="#9f97aa" d="M121 153c3.7.5-8.5 6.93-12.08 8.92-3.57 2-11.18 7.51-14.92 10.08-3.13 2.15-6.13 4.55-9 7-2.45 2.45-3.03 5.2-4 7 9.86-9.11 21.45-16.94 33-23-11.19 8.95-24.48 16.46-34 28 1.87-.66 3.74 1.64 6-1 .19-.32.79-.73 1-1 4.41-5.66 16.77-17.32 24-18 1.66-2.62 6.26-5.36 9-7 4.29-2.58 9.21-4.69 13-8-.45-2.34 2.44-3.85 4-2 .68-1.86-1.8-2.49-2-4-2.14-.65-12.67 2.75-14 3"/><path fill="#fefefc" d="M160 152c-1.95.66-4.34 1.45-6 2 7.79-1.11 20.9-1.87 28.75-2.6 7.86-.74 22.38 1.64 19.25 12.6-2.01.53-3.28-1.5-5 0-12.75.49-20.64.63-32 6-2.83 21.63 22.43 18.03 36 13 .37-4.1-1.53-7.44 1-11 .2-1.29-.27-2.73 0-4 1.13-5.24 7.18-11.77-1.31-14.69-8.48-2.93-11.58-3.13-19.69-3.31s-13.33.95-21 2"/><path fill="#f9edd6" fill-opacity=".93" d="M154 154c-9.99 3.33-21.76 11.49-32 13-3.56 2.23-6.73 6.32-10 9-.09 1.91 1.49 2.97 3 2 0 0 .61.21 1 0 1.49-2.14 3.16-2.57 4-3 2.17-1.5 4.66-2.71 7-4 3.54-2.43 6.71-4.57 11-6 6.71-1.91 13.04-5.04 20-6 .36 1.33-3.51 2.78-3 4 .72-.21 1.28-.74 2-1 4.25-3.96 7.61-5.95 13.22-6.78s13.55-.11 18-.44c4.46-.34 13.98 5.64 8.78 9.22 1.72-1.5 2.99.53 5 0 3.13-10.96-11.39-13.34-19.25-12.6-7.85.73-20.96 1.49-28.75 2.6"/><path fill="#616480" d="M105 158c-7.29 4.2-14.19 9.28-21 14 3.34-1.54 10.37-6.53 15-5-.9 2.37-4.33 2.34-5 5 3.74-2.57 11.35-8.08 14.92-10.08 3.58-1.99 15.78-8.42 12.08-8.92-6.29 1.95-11.73 6.14-18 8 .54-.9 1.22-2.26 2-3"/><path fill="#fef9b4" d="M157 162c2.74-1.01 6.37-2.24 9-1-7.85 3.02-16.02 8.64-24 12-2.55 1.92-5.5 7.21-7 10 4.83-5.17 12.8-8.57 19-12-.58 2.95-5.03 3.62-7 6-1.76 1.63-4.75 4.66-5 7 .16-.23 1 0 1 0 4.65-6.65 14.9-10.64 22-14 11.36-5.37 19.25-5.51 32-6 5.2-3.58-4.32-9.56-8.78-9.22-4.45.33-12.39-.39-18 .44s-8.97 2.82-13.22 6.78"/><path fill="#f7d399" d="M230 163c-5.84 7.85-15.4 11.49-23 17 3.7 4.55-7.07 6.62 0 9-2.24.99-4.46 2.02-7 2-.21.11.24 1.69 0 2 3.47-.89 6.9-1.99 10-3 1.46-1.19 7.55-5.65 11-8 8.49-4.58 19.33-12.89 21-22-5.2 2.81-8.9 10.81-15 13 3.31-4.77 8.64-8.19 12-13-1.65.01-2.36-3.05-4-3-1.04 1.76-3.62 4.14-5 6"/><path fill="#f4cf8f" fill-opacity=".88" d="M157 162c-.72.26-1.28.79-2 1-6.19 1.79-11.26 4.03-17 7 .02-.12 1.34 3.18 1 3 .89-.23 2.08.07 3 0 7.98-3.36 16.15-8.98 24-12-2.63-1.24-6.26-.01-9 1"/><path fill="#9d97ab" d="M271 170c-5.53 4.73-11.43 8.65-17 13-2.24 1.75-5.27 4.26-6 7 4.19-.98 7.37-1.08 8 4 9.69-4.83 17.27-12.27 25-20-.32-1.46-2.13-1.05-3-2 .81-4.05 7.72-7.18 4-12-3.79 3.01-7.27 6.82-11 10"/><path fill="#232a4a" fill-opacity=".07" d="M53 172c1.07-.77 4.04-2.02 4-2 2.24-1.91 4.76-4.34 7-6-3.27 1.53-7.33 4.61-11 8"/><path fill="#a8aec6" d="M81 186c-2.35 2.17-7.42 5.52-9 8-.96 1.95-.4 5.16-2 7 3.73-2.72 5.73-7.68 10-10 9.52-11.54 22.81-19.05 34-28-11.55 6.06-23.14 13.89-33 23"/><path fill="#fdf3d5" d="M217 167c-1.28 1.38-3.45 2.78-5 4-2.71 1.88-5.22 4.85-9 4 .81-1.17-.88-2.46-1-3-2.53 3.56-.63 6.9-1 11-13.57 5.03-38.83 8.63-36-13-7.1 3.36-17.35 7.35-22 14 3.78-1.65 1.18 1.34 2 2 1.03.83 2.7-1.77 3 2 3.34-4.63 9.65-6.86 14-10-.43 4.16-3.5 7.18-5 11 1.13-1.5 3.66-2.75 5-4-5.1 11.86 7.97 14.4 17 14s21.64-1.42 29.67-4.33S226.57 190 229 183c-6.11 3.09-12.58 4.91-19 7-3.1 1.01-6.53 2.11-10 3-8.96 2.29-31.56 9.72-32-5 10.36 1.93 21 7.14 32 3 2.54.02 4.76-1.01 7-2-7.07-2.38 3.7-4.45 0-9 7.6-5.51 17.16-9.15 23-17-2.28 1.84-4.56 4.21-7 1-.08 3.62-5.41 2.74-6 3"/><path fill="#ae9291" d="M111 171c.5-.05 1 0 1 0 3.76-.35 6.07-3.55 10-4 0 0-.25-.78 0-1-1.03-.34-2.04-2.01-2-2-2.74 1.64-7.34 4.38-9 7"/><path fill="#e9bf9d" d="M221 182c-3.45 2.35-9.54 6.81-11 8 6.42-2.09 12.89-3.91 19-7 7.97-4.03 13.87-11.76 21-17-3.18.52-9.47 4.1-13.75 8.25-4.28 4.14-11.35 6.14-15.25 7.75"/><path fill="#f8e9d8" fill-opacity=".96" d="M250 166c-7.13 5.24-13.03 12.97-21 17-2.43 7-12.3 8.76-20.33 11.67S188.03 198.6 179 199s-22.1-2.14-17-14c-1.34 1.25-3.87 2.5-5 4-7.44 15.22 20.45 15.53 32 15s29.91-6.37 41-11c.16-.34.7-.79 1-1 5.65-3.98 12.11-8.14 18-11-.27-6.86-8.55-.16-12 2-1.39 1.56-3.85 2.67-6 3 1.09-2.4 4-2.67 6-4 6.6-4.88 16.28-8.7 20-17-1.25.36-1.98-.69-3-1-.9 1.16-3.06 1.31-4 2"/><path fill="#a595a0" d="M250 181c.97-.06 1.74 1 2 1 4.24-4.2 14.6-8.52 17-14 .27.54-.86-5.2-1-4-4.92 6.55-12.47 11.23-18 17"/><path fill="#b1bad6" fill-opacity=".79" d="M292 183c-17.95 12.44-37.25 23.08-58 30-.62 1.94 1.2 3.13 1 5 31.75-12.46 58.52-27.78 83-54-8.29 6.61-17.25 12.94-26 19"/><path fill="#b9bace" fill-opacity=".13" d="M127 171c3.54-1.95 7.54-4.4 11-6-4.29 1.43-7.46 3.57-11 6"/><path fill="#3a4e76" d="M84 172c-15.7 10.35-28.53 23.74-40.75 38.25S22.65 249.87 42 263c-4.11-5.57-7.6-10.69-8-18-2.71-16.68 7.75-29 17-42 1.74 3.48 7.35 5.49 7 10 3.77-11.18 12.57-19.57 21-28 2-2 3.87-4.18 6-6 2.87-2.45 5.87-4.85 9-7 .67-2.66 4.1-2.63 5-5-4.63-1.53-11.66 3.46-15 5"/><path fill="#8f8da6" d="M112 171c-1.72 4.13-5.91 6.3-9.75 9.25-3.84 2.94-6.04 5.98-7.25 9.75 4.74-5.66 11.72-9.66 17-14 3.27-2.68 6.44-6.77 10-9-3.93.45-6.24 3.65-10 4"/><path fill="#877681" d="M252 182c-.94.93-2.78 1.44-3 3 2.14.52 2.81-2.57 5-2 5.57-4.35 11.47-8.27 17-13-.02 0-1.91-1.83-2-2-2.4 5.48-12.76 9.8-17 14"/><path fill="#656e8d" d="M282 180c1.94-.88 5.14-.72 7-2 2.04-1.4 4.77-5.77 7-8-3.54 2.1-9.6 6.67-14 10"/><path fill="#b69a99" fill-opacity=".89" d="M122 179c-2.82 2.34-6.14 4.65-9 7-2.35 2.42-4.41 5.27-7 8-.34-.07 2.13 2.19 2 2 1.28.24 2.71-.75 3-2 2.2.8 5.27 2.42 3 5 2.5-5.17 9.01-9.38 12-14 .93-3.08 7.84-10.64 13-12 .34.18-.98-3.12-1-3-5.54 2.86-11.14 4.97-16 9"/><path fill="#4d618c" d="M87 189c3.89.94-4.93 12.17-7.3 16.7-2.38 4.52-5.89 17.04-1.77 23.37 4.11 6.34 8.63 8.47 15.15 12.85 6.51 4.38 14.73 5.29 21.92 5.08-10.98-3.38-19.14-8.42-26.92-18.08-7.77-9.67-1.66-23.72 3.92-32.92 1.04-1.71 1.6-4.33 3-6 1.21-3.77 3.41-6.81 7.25-9.75 3.84-2.95 8.03-5.12 9.75-9.25 0 0-.5-.05-1 0-7.23.68-19.59 12.34-24 18"/><path fill="#f8e7d6" d="M135 183c-1 1.85-1.76 4.12-3 6 6.47-1.82 8.01-10.99 15-12 1.97-2.38 6.42-3.05 7-6-6.2 3.43-14.17 6.83-19 12"/><path fill="#e0beae" d="M126 185c-.04.14.27 3.14-2 3-.87 3.62 4.51 1.85 4 5-2.27 2.48-5-4.05-7-1 4.61-.61 4.92 5.41 4 8 1.24-1.59 3.21-2.92 4-5 2.38 1.37-.06 4.07 0 6 1.94.62 3.13-1.2 5-1-.38-6.75 4.46-10.94 8-16 .25-2.34 3.24-5.37 5-7-6.99 1.01-8.53 10.18-15 12 1.24-1.88 2-4.15 3-6 1.5-2.79 4.45-8.08 7-10-.92.07-2.11-.23-3 0-5.16 1.36-12.07 8.92-13 12"/><path fill="#cacad4" fill-opacity=".23" d="M116 178c1.45-.76 2.62-2.05 4-3-.84.43-2.51.86-4 3"/><path fill="#cad0e4" fill-opacity=".81" d="M95 190c-1.4 1.67-1.96 4.29-3 6 .2 1.08 1.8 1.44 2 2 4.72-7.95 14.79-13.52 21-20-1.51.97-3.09-.09-3-2-5.28 4.34-12.26 8.34-17 14"/><path fill="#f9d8a9" d="M148 188c-5.1 7.07-1.53 14.48 5 18 23.83 12.86 52.04-1.29 74-9 1.51-1.08 2.28-2.5 3-4-11.09 4.63-29.45 10.47-41 11s-39.44.22-32-15c1.5-3.82 4.57-6.84 5-11-4.35 3.14-10.66 5.37-14 10"/><path fill="#86747f" d="M282 180c-1.3.98-2.87 1.97-4 3-12.68 11.59-30.92 20.14-47 26-14.96 5.45-30.26 8.13-46 11 16.14.14 33.23-1.74 49-7 20.75-6.92 40.05-17.56 58-30-1.68-.27-3.17-3.53-3-5-1.86 1.28-5.06 1.12-7 2"/><path fill="#767f9d" d="M79 185c-.03.06.11 4.32-2.25 4.75-2.35.43-3.84 2.41-4.75 4.25 1.58-2.48 6.65-5.83 9-8 .97-1.8 1.55-4.55 4-7-2.13 1.82-4 4-6 6"/><path fill="#6570b2" fill-opacity=".07" d="M113 186c2.86-2.35 6.18-4.66 9-7-3.17 2.13-6.2 4.11-9 7"/><path fill="#c9aaa4" d="M231 192c3.18 4.16 11.13-4.84 16-6-.15 2.84-4.27 3.05-6 5-3.73 3.66-6.64 7.38-12 10 .6 2.67 1.41 5.29 2 8 16.08-5.86 34.32-14.41 47-26-7.37 4.84-15.37 8.57-23 13-1.26 1.4-3.27 2.09-5 3-.18-2.59 3.36-2.73 5-4 .03-.35.67-.83 1-1-.63-5.08-3.81-4.98-8-4 .73-2.74 3.76-5.25 6-7-2.19-.57-2.86 2.52-5 2 .22-1.56 2.06-2.07 3-3-.26 0-1.03-1.06-2-1 0 0-.6-.2-1 0-5.89 2.86-12.35 7.02-18 11"/><path fill="#e8dad1" fill-opacity=".36" d="M237 183s-.24-.67 0-1c-2 1.33-4.91 1.6-6 4 2.15-.33 4.61-1.44 6-3"/><path fill="#f7e7d6" d="M143 184s-.84-.23-1 0c-3.54 5.06-8.38 9.25-8 16 .64 11.3 19.32 14.53 28 15 22.76 1.23 47.31-4.37 67-14 5.36-2.62 8.27-6.34 12-10-4.56 2.62-9.19 4.31-14 6-21.96 7.71-50.17 21.86-74 9-4.93-.82-9.55.38-12.92-6.08-3.36-6.46 2.84-9.15 4.92-13.92-.82-.66 1.78-3.65-2-2"/><path fill="#506793" d="M58 213c-2.75 8.15-1.06 17.09 2.31 24.69 3.36 7.6 10.59 8.64 16.38 13.62 5.8 4.97 19.35.63 24.31 5.69-2.73-4.31 3.71-4.28 1 0 3.09-1.77 7.48-1 11-1 2.52 0 6.3.78 8-1-16.96-4.61-43.26-.8-54.25-17.75C55.75 220.3 73.81 200.2 86 190c-2.26 2.64-4.13.34-6 1-4.27 2.32-6.27 7.28-10 10 1.6-1.84 1.04-5.05 2-7 .91-1.84 2.4-3.82 4.75-4.25 2.36-.43 2.22-4.69 2.25-4.75-8.43 8.43-17.23 16.82-21 28m5-3c1.03 6.35-6.44-.92 0 0"/><path fill="#c6b7bd" d="M114 199c-.31 4.28-1.95 9.35-1 14-.53-4.84 2.41-18.54 8-21 2-3.05 4.73 3.48 7 1 .51-3.15-4.87-1.38-4-5 2.27.14 1.96-2.86 2-3-2.99 4.62-9.5 8.83-12 14"/><path fill="#fefdfa" d="M145 186c-2.08 4.77-8.28 7.46-4.92 13.92 3.37 6.46 7.99 5.26 12.92 6.08-6.53-3.52-10.1-10.93-5-18-.3-3.77-1.97-1.17-3-2"/><path fill="#e2b594" d="M231 192c-.3.21-.84.66-1 1-.72 1.5-1.49 2.92-3 4 4.81-1.69 9.44-3.38 14-6 1.73-1.95 5.85-2.16 6-5-4.87 1.16-12.82 10.16-16 6"/><path fill="#fefab7" d="M200 193c.24-.31-.21-1.89 0-2-11 4.14-21.64-1.07-32-3 .44 14.72 23.04 7.29 32 5"/><path fill="#505675" fill-opacity=".41" d="M304 191c1.18-.59 2.33-2.14 3-3-1 .85-2.01 2.17-3 3"/><path fill="#334870" d="M86 190c-12.19 10.2-30.25 30.3-19.25 47.25C77.74 254.2 104.04 250.39 121 255c-1.7 1.78-5.48 1-8 1 1.45.2 2.86 2.91 5 1 .66 5.05 6.85 5.92 8 10 4.12.57 15.76 1.44 14-4 10.12 5.47 22.79-2.03 34-2 1.92-1.16-1.32-3.24 1-4 .06-.16 1 0 1 0-.06-1.44 1.92-.74 2-2-7.84.17-16.66 3.51-24 1 3.38-2.43 9.16.18 13-2-2.48-.79-3.51-5.19-3-5-2.61.25-5.38 0-8 0-7.24.7-15.81.87-23 0-6.16-.12-11.99-2.17-18-2-7.19.21-15.41-.7-21.92-5.08-6.52-4.38-11.04-6.51-15.15-12.85-4.12-6.33-.61-18.85 1.77-23.37 2.37-4.53 11.19-15.76 7.3-16.7-.21.27-.81.68-1 1"/><path fill="#6a7392" d="M179 259c-2.01.11-3.91 1.67-4-2-2.32.76.92 2.84-1 4-11.21-.03-23.88 7.47-34 2 1.76 5.44-9.88 4.57-14 4-2.56-.36-2.71-1.24-5-2-2.97 5.44-14.61 2.96-21.67 2.67S83.28 265.37 76 265c13.48 5.81 29.76 4.67 45 5 23.02-.46 48.32-4.42 70-11 45-12.63 89.77-35.16 123-70-18.92 15.02-37.95 32.51-60.92 42.08-22.98 9.56-48.64 26.54-74.08 27.92"/><path fill="#a099ac" d="M113 213c1.39 6.81 7.51 9.29 12 10-2.79-2.46-1.86-6.85-2-9-.36-5.72-1.76-9.19 2-14 .92-2.59.61-8.61-4-8-5.59 2.46-8.53 16.16-8 21"/><path fill="#4d5e8b" fill-opacity=".8" d="M159 239c-2.05-.49-4.93.59-4-3-9.29.47-19.95-1.13-28.22-3.78s-14.75-4.28-20.53-11.47c-5.79-7.19-.05-18.47 1.75-24.75.13.19-2.34-2.07-2-2-7.17 7.53-13.98 21.44-6.9 30.9s18.01 10.13 28.22 13.44 21.47 1.74 31.68.66"/><path fill="#84829e" fill-opacity=".98" d="M108 196c-1.8 6.28-7.54 17.56-1.75 24.75 5.78 7.19 12.26 8.82 20.53 11.47s18.93 4.25 28.22 3.78c-.93 3.59 1.95 2.51 4 3 3.84.91 13.47.58 16-2-4.37-3.23-12.69.35-18-1 .85-3.76-4.53-6.54-2-10-3.57-1-7.32-1.3-11-2-6.4.11-12.33.06-19-1-4.49-.71-10.61-3.19-12-10-.95-4.65.69-9.72 1-14 2.27-2.58-.8-4.2-3-5-.29 1.25-1.72 2.24-3 2"/><path fill="#c5bbc6" d="M125 200c-3.76 4.81-2.36 8.28-2 14 1.57 2.76 11.52 8.03 14 9 .34-.12-.22-1.76 1-2-2.56-2.39-5.36-5.62-6-9 9.11 4.18.44-9.82-3-11-.06-1.93 2.38-4.63 0-6-.79 2.08-2.76 3.41-4 5"/><path fill="#79758b" d="M255 196s-.05-.5 0-1c-1.64 1.27-5.18 1.41-5 4 1.73-.91 3.74-1.6 5-3"/><path fill="#a6bde0" fill-opacity=".81" d="M115 247c6.01-.17 11.84 1.88 18 2 5.99.12 12 0 18 0-.48-.63.39-2.29 0-3-4.19.12-8.54-.44-12-1-14.97-2.43-27.77-2.75-40.92-11.08-13.14-8.33-11.33-23.7-4.08-35.92-.2-.56-1.8-.92-2-2-5.58 9.2-11.69 23.25-3.92 32.92 7.78 9.66 15.94 14.7 26.92 18.08"/><path fill="#c4a8a6" fill-opacity=".96" d="M129 201c3.44 1.18 12.11 15.18 3 11 .64 3.38 3.44 6.61 6 9 .54.51 1.38.67 2 1 1.3.69 2.61 1.53 4 2 3.68.7 7.43 1 11 2-2.53 3.46 2.85 6.24 2 10 5.31 1.35 13.63-2.23 18 1 0 0 .69.24 1 0 1.61-1.24 2.99-.86 4-1 19.21-2.63 37.42-11.1 55-18 .2-1.87-1.62-3.06-1-5-15.77 5.26-32.86 7.14-49 7-7.42 1.35-15.55 1.45-23 0v-5c-8.68-.47-27.36-3.7-28-15-1.87-.2-3.06 1.62-5 1"/><path fill="#e8be9c" d="M162 215v5c7.45 1.45 15.58 1.35 23 0 15.74-2.87 31.04-5.55 46-11-.59-2.71-1.4-5.33-2-8-19.69 9.63-44.24 15.23-67 14"/><path fill="#2a3a5e" fill-opacity=".98" d="M34 245v-8c.86 6.06 15.11 11 9 15 4.82.77 13.26 7.3 15.75 10.25C61.24 265.19 71.94 273.7 68 275c8.38 2.14 19.39 5.11 28 4 5.5-.71 11.17-.91 17 0 5 .78 8.16-.54 13-1 2.04-1.36 1.48-1.69 1-4-2.87 2.11-4-3.05-6-4-15.24-.33-31.52.81-45-5 7.28.37 16.27 2.38 23.33 2.67s18.7 2.77 21.67-2.67c2.29.76 2.44 1.64 5 2-1.15-4.08-7.34-4.95-8-10-2.14 1.91-3.55-.8-5-1-3.52 0-7.91-.77-11 1-.38.22-1 0-1 0-4.96-5.06-18.51-.72-24.31-5.69-5.79-4.98-13.02-6.02-16.38-13.62-3.37-7.6-5.06-16.54-2.31-24.69.35-4.51-5.26-6.52-7-10-9.25 13-19.71 25.32-17 42"/><path fill="#aabee0" fill-opacity=".77" d="M267 209c-1.24 1.48-11.83 14.36-15 7-1.03.54-2.15 1.56-3 2-.65 1.26.86 4.6 1 6 5.08-2.8 10.57-5.43 15-9 2.53-2.03 6.3-4.16 8-5 .38-.45 1.51-1.53 2-2 2.89-1.97.02-3.05 0-3-2.36 1.4-5.64 2.66-8 4"/><path fill="#adb8d9" fill-opacity=".62" d="M252 216c3.17 7.36 13.76-5.52 15-7-4.68 2.67-10.06 4.44-15 7"/><path fill="#b7bfd8" fill-opacity=".26" d="M265 215c.38-.22 1.54.13 2 0 1.99-1.21 3.64-3.99 6-5-1.7.84-5.47 2.97-8 5"/><path fill="#c2c8d9" d="M63 210c-6.44-.92 1.03 6.35 0 0"/><path fill="#3c436a" fill-opacity=".11" d="M267 215c3.4-.93 4.22-2.89 6-5-2.36 1.01-4.01 3.79-6 5"/><path fill="#2c3a60" fill-opacity=".47" d="M9 219c.11 1.18.85 1.35 1 2 .82-1.9 1.94-5 3-7-.25-1.2-1.71-1.22-2-2-.84 2.28-2.27 3.99-2 7"/><path fill="#a6acc4" d="M125 223c6.67 1.06 12.6 1.11 19 1-1.39-.47-2.7-1.31-4-2-1.59.03-.65 1.92-3 1-2.48-.97-12.43-6.24-14-9 .14 2.15-.79 6.54 2 9"/><path fill="#c0c8de" fill-opacity=".68" d="M159 242c-.39.11-2.93 1.28-3 2 2.42-.77 5.52.58 8 0-1.45 1.96-4.8.56-7 1-1.53.21-3.85.94-6 1 .39.71-.48 2.37 0 3h5c2.62 0 5.39.25 8 0 28.24-2.73 60.77-11.09 86-25-.14-1.4-1.65-4.74-1-6-26.4 13.69-59.96 22.85-90 24m75-15c-1.5 2.42-4.85 1.49-7 3 .13-2.88 4.61-2.9 7-3"/><path fill="#3c4675" fill-opacity=".13" d="M10 221c-.15-.65-.89-.82-1-2-2.23 1.39-2.09 4.55-2 7 3.11.45 2.3-3.39 3-5"/><path fill="#f9f8f6" d="M137 223c2.35.92 1.41-.97 3-1-.62-.33-1.46-.49-2-1-1.22.24-.66 1.88-1 2"/><path fill="#c1c9de" fill-opacity=".25" d="M234 227c-2.39.1-6.87.12-7 3 2.15-1.51 5.5-.58 7-3"/><path fill="#555c90" fill-opacity=".15" d="M176 237c2.03 1.75 2.16-.39 4-1-1.01.14-2.39-.24-4 1"/><path fill="#2e4064" fill-opacity=".44" d="M17 247c.06-2.19.28-5.62 0-8-.34 3.17-.57 4.76 0 8"/><path fill="#bbc4da" fill-opacity=".26" d="M139 245c3.46.56 7.81 1.12 12 1 2.15-.06 4.47-.79 6-1-.35-.07-1.03-.69-1-1 .07-.72 2.61-1.89 3-2-6.51.63-14.25-1.28-20 1 4.99 1.44 7.32 2.12 0 2"/><path fill="none" fill-opacity="0" d="M157 245c2.2-.44 5.55.96 7-1-2.48.58-5.58-.77-8 0-.03.31.65.93 1 1"/><path fill="#5c698c" d="M156 249h-5c-6 0-12.01.12-18 0 7.19.87 15.76.7 23 0"/><path fill="#cdd1e0" d="M101 257s.62.22 1 0c2.71-4.28-3.73-4.31-1 0"/><path fill="#dbdce4" d="M179 259c-1.15-.36-.99-2.06-3-2 0 0-.94-.16-1 0 .09 3.67 1.99 2.11 4 2"/><path fill="#3a4c73" fill-opacity=".88" d="M121 270c2 .95 3.13 6.11 6 4 .48 2.31 1.04 2.64-1 4 23.42-2.21 47.67-8.22 70-15-.12-2.94-1.14-3.87-5-4-21.68 6.58-46.98 10.54-70 11"/><path fill="#2a3756" fill-opacity=".28" d="M55 273c-.32-.05 1.58-1.02 2-1-2.33-2.82-6.44-3.22-9-5 1.95 3.06 4.1 4.33 7 6"/><path fill="#2f3968" fill-opacity=".46" d="M96 279c1.72.1 2.33.1 4 0 2.27-.13 4.73-.14 7 0 2.43.15 4.28.01 6 0-5.83-.91-11.5-.71-17 0"/><path fill="#55a" fill-opacity=".01" d="M107 279c-2.27-.14-4.73-.13-7 0 1.76.1 5.19.09 7 0"/><path fill="#334068" fill-opacity=".27" d="M80 286c4.02-.92 11.22 3.84 13-1-3.2-1.21-6.65-.36-10-1-.56.14-2.39 1.86-3 2"/></svg>